<?xml version="1.0" encoding="utf-8" standalone="no"?>
<!DOCTYPE svg PUBLIC "-//W3C//DTD SVG 1.1//EN"
  "http://www.w3.org/Graphics/SVG/1.1/DTD/svg11.dtd">
<svg xmlns:xlink="http://www.w3.org/1999/xlink" width="415.698125pt" height="325.986375pt" viewBox="0 0 415.698125 325.986375" xmlns="http://www.w3.org/2000/svg" version="1.1">
 <metadata>
  <rdf:RDF xmlns:dc="http://purl.org/dc/elements/1.1/" xmlns:cc="http://creativecommons.org/ns#" xmlns:rdf="http://www.w3.org/1999/02/22-rdf-syntax-ns#">
   <cc:Work>
    <dc:type rdf:resource="http://purl.org/dc/dcmitype/StillImage"/>
    <dc:date>2024-07-02T12:04:05.418074</dc:date>
    <dc:format>image/svg+xml</dc:format>
    <dc:creator>
     <cc:Agent>
      <dc:title>Matplotlib v3.9.0, https://matplotlib.org/</dc:title>
     </cc:Agent>
    </dc:creator>
   </cc:Work>
  </rdf:RDF>
 </metadata>
 <defs>
  <style type="text/css">*{stroke-linejoin: round; stroke-linecap: butt}</style>
 </defs>
 <g id="figure_1">
  <g id="patch_1">
   <path d="M 0 325.986375 
L 415.698125 325.986375 
L 415.698125 0 
L 0 0 
z
" style="fill: #ffffff"/>
  </g>
  <g id="axes_1">
   <g id="patch_2">
    <path d="M 51.378125 288.430125 
L 408.498125 288.430125 
L 408.498125 22.318125 
L 51.378125 22.318125 
z
" style="fill: #ffffff"/>
   </g>
   <g id="matplotlib.axis_1">
    <g id="xtick_1">
     <g id="line2d_1">
      <defs>
       <path id="mcf511ac699" d="M 0 0 
L 0 3.5 
" style="stroke: #000000; stroke-width: 0.8"/>
      </defs>
      <g>
       <use xlink:href="#mcf511ac699" x="66.525051" y="288.430125" style="stroke: #000000; stroke-width: 0.8"/>
      </g>
     </g>
     <g id="text_1">
      <!-- 0 -->
      <g transform="translate(63.343801 303.028562) scale(0.1 -0.1)">
       <defs>
        <path id="DejaVuSans-30" d="M 2034 4250 
Q 1547 4250 1301 3770 
Q 1056 3291 1056 2328 
Q 1056 1369 1301 889 
Q 1547 409 2034 409 
Q 2525 409 2770 889 
Q 3016 1369 3016 2328 
Q 3016 3291 2770 3770 
Q 2525 4250 2034 4250 
z
M 2034 4750 
Q 2819 4750 3233 4129 
Q 3647 3509 3647 2328 
Q 3647 1150 3233 529 
Q 2819 -91 2034 -91 
Q 1250 -91 836 529 
Q 422 1150 422 2328 
Q 422 3509 836 4129 
Q 1250 4750 2034 4750 
z
" transform="scale(0.015625)"/>
       </defs>
       <use xlink:href="#DejaVuSans-30"/>
      </g>
     </g>
    </g>
    <g id="xtick_2">
     <g id="line2d_2">
      <g>
       <use xlink:href="#mcf511ac699" x="120.815109" y="288.430125" style="stroke: #000000; stroke-width: 0.8"/>
      </g>
     </g>
     <g id="text_2">
      <!-- 50 -->
      <g transform="translate(114.452609 303.028562) scale(0.1 -0.1)">
       <defs>
        <path id="DejaVuSans-35" d="M 691 4666 
L 3169 4666 
L 3169 4134 
L 1269 4134 
L 1269 2991 
Q 1406 3038 1543 3061 
Q 1681 3084 1819 3084 
Q 2600 3084 3056 2656 
Q 3513 2228 3513 1497 
Q 3513 744 3044 326 
Q 2575 -91 1722 -91 
Q 1428 -91 1123 -41 
Q 819 9 494 109 
L 494 744 
Q 775 591 1075 516 
Q 1375 441 1709 441 
Q 2250 441 2565 725 
Q 2881 1009 2881 1497 
Q 2881 1984 2565 2268 
Q 2250 2553 1709 2553 
Q 1456 2553 1204 2497 
Q 953 2441 691 2322 
L 691 4666 
z
" transform="scale(0.015625)"/>
       </defs>
       <use xlink:href="#DejaVuSans-35"/>
       <use xlink:href="#DejaVuSans-30" x="63.623047"/>
      </g>
     </g>
    </g>
    <g id="xtick_3">
     <g id="line2d_3">
      <g>
       <use xlink:href="#mcf511ac699" x="175.105167" y="288.430125" style="stroke: #000000; stroke-width: 0.8"/>
      </g>
     </g>
     <g id="text_3">
      <!-- 100 -->
      <g transform="translate(165.561417 303.028562) scale(0.1 -0.1)">
       <defs>
        <path id="DejaVuSans-31" d="M 794 531 
L 1825 531 
L 1825 4091 
L 703 3866 
L 703 4441 
L 1819 4666 
L 2450 4666 
L 2450 531 
L 3481 531 
L 3481 0 
L 794 0 
L 794 531 
z
" transform="scale(0.015625)"/>
       </defs>
       <use xlink:href="#DejaVuSans-31"/>
       <use xlink:href="#DejaVuSans-30" x="63.623047"/>
       <use xlink:href="#DejaVuSans-30" x="127.246094"/>
      </g>
     </g>
    </g>
    <g id="xtick_4">
     <g id="line2d_4">
      <g>
       <use xlink:href="#mcf511ac699" x="229.395224" y="288.430125" style="stroke: #000000; stroke-width: 0.8"/>
      </g>
     </g>
     <g id="text_4">
      <!-- 150 -->
      <g transform="translate(219.851474 303.028562) scale(0.1 -0.1)">
       <use xlink:href="#DejaVuSans-31"/>
       <use xlink:href="#DejaVuSans-35" x="63.623047"/>
       <use xlink:href="#DejaVuSans-30" x="127.246094"/>
      </g>
     </g>
    </g>
    <g id="xtick_5">
     <g id="line2d_5">
      <g>
       <use xlink:href="#mcf511ac699" x="283.685282" y="288.430125" style="stroke: #000000; stroke-width: 0.8"/>
      </g>
     </g>
     <g id="text_5">
      <!-- 200 -->
      <g transform="translate(274.141532 303.028562) scale(0.1 -0.1)">
       <defs>
        <path id="DejaVuSans-32" d="M 1228 531 
L 3431 531 
L 3431 0 
L 469 0 
L 469 531 
Q 828 903 1448 1529 
Q 2069 2156 2228 2338 
Q 2531 2678 2651 2914 
Q 2772 3150 2772 3378 
Q 2772 3750 2511 3984 
Q 2250 4219 1831 4219 
Q 1534 4219 1204 4116 
Q 875 4013 500 3803 
L 500 4441 
Q 881 4594 1212 4672 
Q 1544 4750 1819 4750 
Q 2544 4750 2975 4387 
Q 3406 4025 3406 3419 
Q 3406 3131 3298 2873 
Q 3191 2616 2906 2266 
Q 2828 2175 2409 1742 
Q 1991 1309 1228 531 
z
" transform="scale(0.015625)"/>
       </defs>
       <use xlink:href="#DejaVuSans-32"/>
       <use xlink:href="#DejaVuSans-30" x="63.623047"/>
       <use xlink:href="#DejaVuSans-30" x="127.246094"/>
      </g>
     </g>
    </g>
    <g id="xtick_6">
     <g id="line2d_6">
      <g>
       <use xlink:href="#mcf511ac699" x="337.97534" y="288.430125" style="stroke: #000000; stroke-width: 0.8"/>
      </g>
     </g>
     <g id="text_6">
      <!-- 250 -->
      <g transform="translate(328.43159 303.028562) scale(0.1 -0.1)">
       <use xlink:href="#DejaVuSans-32"/>
       <use xlink:href="#DejaVuSans-35" x="63.623047"/>
       <use xlink:href="#DejaVuSans-30" x="127.246094"/>
      </g>
     </g>
    </g>
    <g id="xtick_7">
     <g id="line2d_7">
      <g>
       <use xlink:href="#mcf511ac699" x="392.265398" y="288.430125" style="stroke: #000000; stroke-width: 0.8"/>
      </g>
     </g>
     <g id="text_7">
      <!-- 300 -->
      <g transform="translate(382.721648 303.028562) scale(0.1 -0.1)">
       <defs>
        <path id="DejaVuSans-33" d="M 2597 2516 
Q 3050 2419 3304 2112 
Q 3559 1806 3559 1356 
Q 3559 666 3084 287 
Q 2609 -91 1734 -91 
Q 1441 -91 1130 -33 
Q 819 25 488 141 
L 488 750 
Q 750 597 1062 519 
Q 1375 441 1716 441 
Q 2309 441 2620 675 
Q 2931 909 2931 1356 
Q 2931 1769 2642 2001 
Q 2353 2234 1838 2234 
L 1294 2234 
L 1294 2753 
L 1863 2753 
Q 2328 2753 2575 2939 
Q 2822 3125 2822 3475 
Q 2822 3834 2567 4026 
Q 2313 4219 1838 4219 
Q 1578 4219 1281 4162 
Q 984 4106 628 3988 
L 628 4550 
Q 988 4650 1302 4700 
Q 1616 4750 1894 4750 
Q 2613 4750 3031 4423 
Q 3450 4097 3450 3541 
Q 3450 3153 3228 2886 
Q 3006 2619 2597 2516 
z
" transform="scale(0.015625)"/>
       </defs>
       <use xlink:href="#DejaVuSans-33"/>
       <use xlink:href="#DejaVuSans-30" x="63.623047"/>
       <use xlink:href="#DejaVuSans-30" x="127.246094"/>
      </g>
     </g>
    </g>
    <g id="text_8">
     <!-- Epoch -->
     <g transform="translate(214.627188 316.706687) scale(0.1 -0.1)">
      <defs>
       <path id="DejaVuSans-45" d="M 628 4666 
L 3578 4666 
L 3578 4134 
L 1259 4134 
L 1259 2753 
L 3481 2753 
L 3481 2222 
L 1259 2222 
L 1259 531 
L 3634 531 
L 3634 0 
L 628 0 
L 628 4666 
z
" transform="scale(0.015625)"/>
       <path id="DejaVuSans-70" d="M 1159 525 
L 1159 -1331 
L 581 -1331 
L 581 3500 
L 1159 3500 
L 1159 2969 
Q 1341 3281 1617 3432 
Q 1894 3584 2278 3584 
Q 2916 3584 3314 3078 
Q 3713 2572 3713 1747 
Q 3713 922 3314 415 
Q 2916 -91 2278 -91 
Q 1894 -91 1617 61 
Q 1341 213 1159 525 
z
M 3116 1747 
Q 3116 2381 2855 2742 
Q 2594 3103 2138 3103 
Q 1681 3103 1420 2742 
Q 1159 2381 1159 1747 
Q 1159 1113 1420 752 
Q 1681 391 2138 391 
Q 2594 391 2855 752 
Q 3116 1113 3116 1747 
z
" transform="scale(0.015625)"/>
       <path id="DejaVuSans-6f" d="M 1959 3097 
Q 1497 3097 1228 2736 
Q 959 2375 959 1747 
Q 959 1119 1226 758 
Q 1494 397 1959 397 
Q 2419 397 2687 759 
Q 2956 1122 2956 1747 
Q 2956 2369 2687 2733 
Q 2419 3097 1959 3097 
z
M 1959 3584 
Q 2709 3584 3137 3096 
Q 3566 2609 3566 1747 
Q 3566 888 3137 398 
Q 2709 -91 1959 -91 
Q 1206 -91 779 398 
Q 353 888 353 1747 
Q 353 2609 779 3096 
Q 1206 3584 1959 3584 
z
" transform="scale(0.015625)"/>
       <path id="DejaVuSans-63" d="M 3122 3366 
L 3122 2828 
Q 2878 2963 2633 3030 
Q 2388 3097 2138 3097 
Q 1578 3097 1268 2742 
Q 959 2388 959 1747 
Q 959 1106 1268 751 
Q 1578 397 2138 397 
Q 2388 397 2633 464 
Q 2878 531 3122 666 
L 3122 134 
Q 2881 22 2623 -34 
Q 2366 -91 2075 -91 
Q 1284 -91 818 406 
Q 353 903 353 1747 
Q 353 2603 823 3093 
Q 1294 3584 2113 3584 
Q 2378 3584 2631 3529 
Q 2884 3475 3122 3366 
z
" transform="scale(0.015625)"/>
       <path id="DejaVuSans-68" d="M 3513 2113 
L 3513 0 
L 2938 0 
L 2938 2094 
Q 2938 2591 2744 2837 
Q 2550 3084 2163 3084 
Q 1697 3084 1428 2787 
Q 1159 2491 1159 1978 
L 1159 0 
L 581 0 
L 581 4863 
L 1159 4863 
L 1159 2956 
Q 1366 3272 1645 3428 
Q 1925 3584 2291 3584 
Q 2894 3584 3203 3211 
Q 3513 2838 3513 2113 
z
" transform="scale(0.015625)"/>
      </defs>
      <use xlink:href="#DejaVuSans-45"/>
      <use xlink:href="#DejaVuSans-70" x="63.183594"/>
      <use xlink:href="#DejaVuSans-6f" x="126.660156"/>
      <use xlink:href="#DejaVuSans-63" x="187.841797"/>
      <use xlink:href="#DejaVuSans-68" x="242.822266"/>
     </g>
    </g>
   </g>
   <g id="matplotlib.axis_2">
    <g id="ytick_1">
     <g id="line2d_8">
      <defs>
       <path id="m77e04c82e3" d="M 0 0 
L -3.5 0 
" style="stroke: #000000; stroke-width: 0.8"/>
      </defs>
      <g>
       <use xlink:href="#m77e04c82e3" x="51.378125" y="281.67363" style="stroke: #000000; stroke-width: 0.8"/>
      </g>
     </g>
     <g id="text_9">
      <!-- $\mathdefault{10^{-2}}$ -->
      <g transform="translate(20.878125 285.472849) scale(0.1 -0.1)">
       <defs>
        <path id="DejaVuSans-2212" d="M 678 2272 
L 4684 2272 
L 4684 1741 
L 678 1741 
L 678 2272 
z
" transform="scale(0.015625)"/>
       </defs>
       <use xlink:href="#DejaVuSans-31" transform="translate(0 0.765625)"/>
       <use xlink:href="#DejaVuSans-30" transform="translate(63.623047 0.765625)"/>
       <use xlink:href="#DejaVuSans-2212" transform="translate(128.203125 39.046875) scale(0.7)"/>
       <use xlink:href="#DejaVuSans-32" transform="translate(186.855469 39.046875) scale(0.7)"/>
      </g>
     </g>
    </g>
    <g id="ytick_2">
     <g id="line2d_9">
      <g>
       <use xlink:href="#m77e04c82e3" x="51.378125" y="208.668348" style="stroke: #000000; stroke-width: 0.8"/>
      </g>
     </g>
     <g id="text_10">
      <!-- $\mathdefault{10^{-1}}$ -->
      <g transform="translate(20.878125 212.467567) scale(0.1 -0.1)">
       <use xlink:href="#DejaVuSans-31" transform="translate(0 0.684375)"/>
       <use xlink:href="#DejaVuSans-30" transform="translate(63.623047 0.684375)"/>
       <use xlink:href="#DejaVuSans-2212" transform="translate(128.203125 38.965625) scale(0.7)"/>
       <use xlink:href="#DejaVuSans-31" transform="translate(186.855469 38.965625) scale(0.7)"/>
      </g>
     </g>
    </g>
    <g id="ytick_3">
     <g id="line2d_10">
      <g>
       <use xlink:href="#m77e04c82e3" x="51.378125" y="135.663066" style="stroke: #000000; stroke-width: 0.8"/>
      </g>
     </g>
     <g id="text_11">
      <!-- $\mathdefault{10^{0}}$ -->
      <g transform="translate(26.778125 139.462285) scale(0.1 -0.1)">
       <use xlink:href="#DejaVuSans-31" transform="translate(0 0.765625)"/>
       <use xlink:href="#DejaVuSans-30" transform="translate(63.623047 0.765625)"/>
       <use xlink:href="#DejaVuSans-30" transform="translate(128.203125 39.046875) scale(0.7)"/>
      </g>
     </g>
    </g>
    <g id="ytick_4">
     <g id="line2d_11">
      <g>
       <use xlink:href="#m77e04c82e3" x="51.378125" y="62.657785" style="stroke: #000000; stroke-width: 0.8"/>
      </g>
     </g>
     <g id="text_12">
      <!-- $\mathdefault{10^{1}}$ -->
      <g transform="translate(26.778125 66.457003) scale(0.1 -0.1)">
       <use xlink:href="#DejaVuSans-31" transform="translate(0 0.684375)"/>
       <use xlink:href="#DejaVuSans-30" transform="translate(63.623047 0.684375)"/>
       <use xlink:href="#DejaVuSans-31" transform="translate(128.203125 38.965625) scale(0.7)"/>
      </g>
     </g>
    </g>
    <g id="ytick_5">
     <g id="line2d_12">
      <defs>
       <path id="m73c61733ff" d="M 0 0 
L -2 0 
" style="stroke: #000000; stroke-width: 0.6"/>
      </defs>
      <g>
       <use xlink:href="#m73c61733ff" x="51.378125" y="285.014168" style="stroke: #000000; stroke-width: 0.6"/>
      </g>
     </g>
    </g>
    <g id="ytick_6">
     <g id="line2d_13">
      <g>
       <use xlink:href="#m73c61733ff" x="51.378125" y="259.69685" style="stroke: #000000; stroke-width: 0.6"/>
      </g>
     </g>
    </g>
    <g id="ytick_7">
     <g id="line2d_14">
      <g>
       <use xlink:href="#m73c61733ff" x="51.378125" y="246.841258" style="stroke: #000000; stroke-width: 0.6"/>
      </g>
     </g>
    </g>
    <g id="ytick_8">
     <g id="line2d_15">
      <g>
       <use xlink:href="#m73c61733ff" x="51.378125" y="237.720071" style="stroke: #000000; stroke-width: 0.6"/>
      </g>
     </g>
    </g>
    <g id="ytick_9">
     <g id="line2d_16">
      <g>
       <use xlink:href="#m73c61733ff" x="51.378125" y="230.645128" style="stroke: #000000; stroke-width: 0.6"/>
      </g>
     </g>
    </g>
    <g id="ytick_10">
     <g id="line2d_17">
      <g>
       <use xlink:href="#m73c61733ff" x="51.378125" y="224.864479" style="stroke: #000000; stroke-width: 0.6"/>
      </g>
     </g>
    </g>
    <g id="ytick_11">
     <g id="line2d_18">
      <g>
       <use xlink:href="#m73c61733ff" x="51.378125" y="219.977009" style="stroke: #000000; stroke-width: 0.6"/>
      </g>
     </g>
    </g>
    <g id="ytick_12">
     <g id="line2d_19">
      <g>
       <use xlink:href="#m73c61733ff" x="51.378125" y="215.743291" style="stroke: #000000; stroke-width: 0.6"/>
      </g>
     </g>
    </g>
    <g id="ytick_13">
     <g id="line2d_20">
      <g>
       <use xlink:href="#m73c61733ff" x="51.378125" y="212.008887" style="stroke: #000000; stroke-width: 0.6"/>
      </g>
     </g>
    </g>
    <g id="ytick_14">
     <g id="line2d_21">
      <g>
       <use xlink:href="#m73c61733ff" x="51.378125" y="186.691569" style="stroke: #000000; stroke-width: 0.6"/>
      </g>
     </g>
    </g>
    <g id="ytick_15">
     <g id="line2d_22">
      <g>
       <use xlink:href="#m73c61733ff" x="51.378125" y="173.835977" style="stroke: #000000; stroke-width: 0.6"/>
      </g>
     </g>
    </g>
    <g id="ytick_16">
     <g id="line2d_23">
      <g>
       <use xlink:href="#m73c61733ff" x="51.378125" y="164.714789" style="stroke: #000000; stroke-width: 0.6"/>
      </g>
     </g>
    </g>
    <g id="ytick_17">
     <g id="line2d_24">
      <g>
       <use xlink:href="#m73c61733ff" x="51.378125" y="157.639846" style="stroke: #000000; stroke-width: 0.6"/>
      </g>
     </g>
    </g>
    <g id="ytick_18">
     <g id="line2d_25">
      <g>
       <use xlink:href="#m73c61733ff" x="51.378125" y="151.859197" style="stroke: #000000; stroke-width: 0.6"/>
      </g>
     </g>
    </g>
    <g id="ytick_19">
     <g id="line2d_26">
      <g>
       <use xlink:href="#m73c61733ff" x="51.378125" y="146.971728" style="stroke: #000000; stroke-width: 0.6"/>
      </g>
     </g>
    </g>
    <g id="ytick_20">
     <g id="line2d_27">
      <g>
       <use xlink:href="#m73c61733ff" x="51.378125" y="142.738009" style="stroke: #000000; stroke-width: 0.6"/>
      </g>
     </g>
    </g>
    <g id="ytick_21">
     <g id="line2d_28">
      <g>
       <use xlink:href="#m73c61733ff" x="51.378125" y="139.003605" style="stroke: #000000; stroke-width: 0.6"/>
      </g>
     </g>
    </g>
    <g id="ytick_22">
     <g id="line2d_29">
      <g>
       <use xlink:href="#m73c61733ff" x="51.378125" y="113.686287" style="stroke: #000000; stroke-width: 0.6"/>
      </g>
     </g>
    </g>
    <g id="ytick_23">
     <g id="line2d_30">
      <g>
       <use xlink:href="#m73c61733ff" x="51.378125" y="100.830695" style="stroke: #000000; stroke-width: 0.6"/>
      </g>
     </g>
    </g>
    <g id="ytick_24">
     <g id="line2d_31">
      <g>
       <use xlink:href="#m73c61733ff" x="51.378125" y="91.709507" style="stroke: #000000; stroke-width: 0.6"/>
      </g>
     </g>
    </g>
    <g id="ytick_25">
     <g id="line2d_32">
      <g>
       <use xlink:href="#m73c61733ff" x="51.378125" y="84.634564" style="stroke: #000000; stroke-width: 0.6"/>
      </g>
     </g>
    </g>
    <g id="ytick_26">
     <g id="line2d_33">
      <g>
       <use xlink:href="#m73c61733ff" x="51.378125" y="78.853915" style="stroke: #000000; stroke-width: 0.6"/>
      </g>
     </g>
    </g>
    <g id="ytick_27">
     <g id="line2d_34">
      <g>
       <use xlink:href="#m73c61733ff" x="51.378125" y="73.966446" style="stroke: #000000; stroke-width: 0.6"/>
      </g>
     </g>
    </g>
    <g id="ytick_28">
     <g id="line2d_35">
      <g>
       <use xlink:href="#m73c61733ff" x="51.378125" y="69.732727" style="stroke: #000000; stroke-width: 0.6"/>
      </g>
     </g>
    </g>
    <g id="ytick_29">
     <g id="line2d_36">
      <g>
       <use xlink:href="#m73c61733ff" x="51.378125" y="65.998323" style="stroke: #000000; stroke-width: 0.6"/>
      </g>
     </g>
    </g>
    <g id="ytick_30">
     <g id="line2d_37">
      <g>
       <use xlink:href="#m73c61733ff" x="51.378125" y="40.681005" style="stroke: #000000; stroke-width: 0.6"/>
      </g>
     </g>
    </g>
    <g id="ytick_31">
     <g id="line2d_38">
      <g>
       <use xlink:href="#m73c61733ff" x="51.378125" y="27.825413" style="stroke: #000000; stroke-width: 0.6"/>
      </g>
     </g>
    </g>
    <g id="text_13">
     <!-- Cross-entropy loss -->
     <g transform="translate(14.798438 201.469437) rotate(-90) scale(0.1 -0.1)">
      <defs>
       <path id="DejaVuSans-43" d="M 4122 4306 
L 4122 3641 
Q 3803 3938 3442 4084 
Q 3081 4231 2675 4231 
Q 1875 4231 1450 3742 
Q 1025 3253 1025 2328 
Q 1025 1406 1450 917 
Q 1875 428 2675 428 
Q 3081 428 3442 575 
Q 3803 722 4122 1019 
L 4122 359 
Q 3791 134 3420 21 
Q 3050 -91 2638 -91 
Q 1578 -91 968 557 
Q 359 1206 359 2328 
Q 359 3453 968 4101 
Q 1578 4750 2638 4750 
Q 3056 4750 3426 4639 
Q 3797 4528 4122 4306 
z
" transform="scale(0.015625)"/>
       <path id="DejaVuSans-72" d="M 2631 2963 
Q 2534 3019 2420 3045 
Q 2306 3072 2169 3072 
Q 1681 3072 1420 2755 
Q 1159 2438 1159 1844 
L 1159 0 
L 581 0 
L 581 3500 
L 1159 3500 
L 1159 2956 
Q 1341 3275 1631 3429 
Q 1922 3584 2338 3584 
Q 2397 3584 2469 3576 
Q 2541 3569 2628 3553 
L 2631 2963 
z
" transform="scale(0.015625)"/>
       <path id="DejaVuSans-73" d="M 2834 3397 
L 2834 2853 
Q 2591 2978 2328 3040 
Q 2066 3103 1784 3103 
Q 1356 3103 1142 2972 
Q 928 2841 928 2578 
Q 928 2378 1081 2264 
Q 1234 2150 1697 2047 
L 1894 2003 
Q 2506 1872 2764 1633 
Q 3022 1394 3022 966 
Q 3022 478 2636 193 
Q 2250 -91 1575 -91 
Q 1294 -91 989 -36 
Q 684 19 347 128 
L 347 722 
Q 666 556 975 473 
Q 1284 391 1588 391 
Q 1994 391 2212 530 
Q 2431 669 2431 922 
Q 2431 1156 2273 1281 
Q 2116 1406 1581 1522 
L 1381 1569 
Q 847 1681 609 1914 
Q 372 2147 372 2553 
Q 372 3047 722 3315 
Q 1072 3584 1716 3584 
Q 2034 3584 2315 3537 
Q 2597 3491 2834 3397 
z
" transform="scale(0.015625)"/>
       <path id="DejaVuSans-2d" d="M 313 2009 
L 1997 2009 
L 1997 1497 
L 313 1497 
L 313 2009 
z
" transform="scale(0.015625)"/>
       <path id="DejaVuSans-65" d="M 3597 1894 
L 3597 1613 
L 953 1613 
Q 991 1019 1311 708 
Q 1631 397 2203 397 
Q 2534 397 2845 478 
Q 3156 559 3463 722 
L 3463 178 
Q 3153 47 2828 -22 
Q 2503 -91 2169 -91 
Q 1331 -91 842 396 
Q 353 884 353 1716 
Q 353 2575 817 3079 
Q 1281 3584 2069 3584 
Q 2775 3584 3186 3129 
Q 3597 2675 3597 1894 
z
M 3022 2063 
Q 3016 2534 2758 2815 
Q 2500 3097 2075 3097 
Q 1594 3097 1305 2825 
Q 1016 2553 972 2059 
L 3022 2063 
z
" transform="scale(0.015625)"/>
       <path id="DejaVuSans-6e" d="M 3513 2113 
L 3513 0 
L 2938 0 
L 2938 2094 
Q 2938 2591 2744 2837 
Q 2550 3084 2163 3084 
Q 1697 3084 1428 2787 
Q 1159 2491 1159 1978 
L 1159 0 
L 581 0 
L 581 3500 
L 1159 3500 
L 1159 2956 
Q 1366 3272 1645 3428 
Q 1925 3584 2291 3584 
Q 2894 3584 3203 3211 
Q 3513 2838 3513 2113 
z
" transform="scale(0.015625)"/>
       <path id="DejaVuSans-74" d="M 1172 4494 
L 1172 3500 
L 2356 3500 
L 2356 3053 
L 1172 3053 
L 1172 1153 
Q 1172 725 1289 603 
Q 1406 481 1766 481 
L 2356 481 
L 2356 0 
L 1766 0 
Q 1100 0 847 248 
Q 594 497 594 1153 
L 594 3053 
L 172 3053 
L 172 3500 
L 594 3500 
L 594 4494 
L 1172 4494 
z
" transform="scale(0.015625)"/>
       <path id="DejaVuSans-79" d="M 2059 -325 
Q 1816 -950 1584 -1140 
Q 1353 -1331 966 -1331 
L 506 -1331 
L 506 -850 
L 844 -850 
Q 1081 -850 1212 -737 
Q 1344 -625 1503 -206 
L 1606 56 
L 191 3500 
L 800 3500 
L 1894 763 
L 2988 3500 
L 3597 3500 
L 2059 -325 
z
" transform="scale(0.015625)"/>
       <path id="DejaVuSans-20" transform="scale(0.015625)"/>
       <path id="DejaVuSans-6c" d="M 603 4863 
L 1178 4863 
L 1178 0 
L 603 0 
L 603 4863 
z
" transform="scale(0.015625)"/>
      </defs>
      <use xlink:href="#DejaVuSans-43"/>
      <use xlink:href="#DejaVuSans-72" x="69.824219"/>
      <use xlink:href="#DejaVuSans-6f" x="108.6875"/>
      <use xlink:href="#DejaVuSans-73" x="169.869141"/>
      <use xlink:href="#DejaVuSans-73" x="221.96875"/>
      <use xlink:href="#DejaVuSans-2d" x="274.068359"/>
      <use xlink:href="#DejaVuSans-65" x="310.152344"/>
      <use xlink:href="#DejaVuSans-6e" x="371.675781"/>
      <use xlink:href="#DejaVuSans-74" x="435.054688"/>
      <use xlink:href="#DejaVuSans-72" x="474.263672"/>
      <use xlink:href="#DejaVuSans-6f" x="513.126953"/>
      <use xlink:href="#DejaVuSans-70" x="574.308594"/>
      <use xlink:href="#DejaVuSans-79" x="637.785156"/>
      <use xlink:href="#DejaVuSans-20" x="696.964844"/>
      <use xlink:href="#DejaVuSans-6c" x="728.751953"/>
      <use xlink:href="#DejaVuSans-6f" x="756.535156"/>
      <use xlink:href="#DejaVuSans-73" x="817.716797"/>
      <use xlink:href="#DejaVuSans-73" x="869.816406"/>
     </g>
    </g>
   </g>
   <g id="line2d_39">
    <path d="M 67.610852 98.471133 
L 68.696653 127.766431 
L 69.782455 139.720053 
L 70.868256 145.669013 
L 71.954057 150.597825 
L 73.039858 153.945566 
L 74.125659 156.256778 
L 75.21146 157.728461 
L 76.297262 159.947977 
L 77.383063 162.746811 
L 78.468864 163.861386 
L 79.554665 164.178364 
L 80.640466 166.19833 
L 81.726267 167.420741 
L 82.812068 169.553619 
L 84.983671 171.182895 
L 86.069472 172.573557 
L 88.241074 174.302801 
L 89.326875 176.087824 
L 90.412677 175.478492 
L 91.498478 177.913964 
L 92.584279 178.254478 
L 93.67008 178.852604 
L 94.755881 179.96168 
L 95.841682 180.738289 
L 96.927483 181.011015 
L 98.013285 181.58885 
L 99.099086 183.566421 
L 100.184887 183.627833 
L 101.270688 183.902527 
L 102.356489 185.006062 
L 103.44229 185.174239 
L 104.528092 186.37009 
L 105.613893 186.737136 
L 106.699694 186.898106 
L 107.785495 187.826191 
L 108.871296 187.819881 
L 109.957097 188.138701 
L 111.042898 188.686316 
L 112.1287 189.513149 
L 113.214501 189.752135 
L 114.300302 190.505759 
L 115.386103 190.863387 
L 116.471904 192.088945 
L 117.557705 191.541781 
L 118.643507 192.965436 
L 119.729308 192.328433 
L 120.815109 192.131532 
L 121.90091 192.917558 
L 122.986711 192.651794 
L 124.072512 193.596157 
L 125.158314 193.75043 
L 126.244115 194.128865 
L 127.329916 195.134808 
L 128.415717 194.548778 
L 129.501518 195.671587 
L 130.587319 195.3636 
L 131.67312 195.203609 
L 132.758922 196.059356 
L 133.844723 195.751965 
L 134.930524 196.305459 
L 136.016325 197.354347 
L 137.102126 196.747036 
L 138.187927 197.074541 
L 139.273729 197.526241 
L 140.35953 197.463388 
L 141.445331 197.954941 
L 142.531132 198.143707 
L 143.616933 198.857949 
L 144.702734 198.535937 
L 145.788535 199.379284 
L 146.874337 198.477468 
L 147.960138 199.570023 
L 149.045939 199.302711 
L 150.13174 199.282081 
L 151.217541 200.187537 
L 152.303342 199.415385 
L 153.389144 200.256451 
L 155.560746 200.450797 
L 156.646547 201.569629 
L 157.732348 200.322131 
L 158.818149 201.337976 
L 159.90395 201.871234 
L 162.075553 200.745133 
L 163.161354 202.614094 
L 164.247155 202.879859 
L 165.332956 202.055437 
L 166.418757 202.9507 
L 167.504559 202.290442 
L 168.59036 202.303852 
L 169.676161 202.00504 
L 174.019365 203.348566 
L 175.105167 202.557233 
L 176.190968 202.725358 
L 177.276769 202.749657 
L 178.36257 204.409145 
L 179.448371 203.486323 
L 180.534172 204.528673 
L 181.619974 203.886913 
L 182.705775 203.770063 
L 183.791576 204.731833 
L 184.877377 204.587262 
L 185.963178 203.70405 
L 187.048979 204.36019 
L 188.134781 203.806433 
L 190.306383 204.711518 
L 191.392184 205.514576 
L 193.563786 203.941025 
L 194.649587 204.963255 
L 196.82119 205.583847 
L 197.906991 205.282307 
L 198.992792 204.488609 
L 200.078593 205.856306 
L 201.164394 205.345998 
L 202.250196 205.099575 
L 203.335997 205.707986 
L 204.421798 205.647684 
L 205.507599 206.0719 
L 206.5934 205.790441 
L 207.679201 206.229276 
L 208.765002 205.745531 
L 209.850804 207.092419 
L 210.936605 205.722071 
L 212.022406 206.620126 
L 213.108207 206.329208 
L 214.194008 205.784741 
L 215.279809 207.280743 
L 216.365611 206.412595 
L 217.451412 207.263742 
L 218.537213 207.467997 
L 219.623014 206.761502 
L 220.708815 207.777366 
L 221.794616 207.680163 
L 223.966219 207.069628 
L 225.05202 208.150396 
L 226.137821 206.827208 
L 227.223622 206.92231 
L 228.309423 206.603184 
L 229.395224 207.333164 
L 230.481026 207.035767 
L 231.566827 207.357384 
L 232.652628 206.932438 
L 233.738429 206.134685 
L 234.82423 207.74612 
L 235.910031 206.447259 
L 236.995833 208.278185 
L 238.081634 207.678194 
L 239.167435 207.338385 
L 240.253236 208.264927 
L 241.339037 208.390622 
L 242.424838 207.998986 
L 243.510639 208.52033 
L 244.596441 207.473975 
L 245.682242 208.046355 
L 246.768043 207.924127 
L 247.853844 208.553328 
L 248.939645 207.682048 
L 250.025446 207.616115 
L 252.197049 208.027454 
L 253.28285 207.868449 
L 254.368651 208.593786 
L 255.454452 208.459511 
L 256.540253 208.839451 
L 257.626054 208.847519 
L 258.711856 209.174655 
L 259.797657 208.44456 
L 261.969259 208.522332 
L 263.05506 207.6796 
L 264.140861 209.453935 
L 265.226663 208.179565 
L 266.312464 208.223565 
L 267.398265 207.855744 
L 268.484066 208.482268 
L 269.569867 207.977836 
L 270.655668 208.435953 
L 271.741469 207.48492 
L 272.827271 208.941765 
L 273.913072 209.418461 
L 274.998873 208.8478 
L 276.084674 208.089855 
L 277.170475 208.670869 
L 278.256276 208.970425 
L 279.342078 207.962754 
L 280.427879 208.361825 
L 281.51368 208.962075 
L 282.599481 208.266631 
L 283.685282 208.488999 
L 285.856885 209.474616 
L 286.942686 208.514677 
L 289.114288 208.324592 
L 290.200089 210.463844 
L 291.28589 209.170406 
L 292.371691 208.225733 
L 293.457493 209.17748 
L 294.543294 208.948356 
L 295.629095 209.633455 
L 296.714896 208.381329 
L 297.800697 209.033925 
L 298.886498 209.345789 
L 299.9723 208.872979 
L 301.058101 208.909193 
L 302.143902 209.058349 
L 303.229703 208.987369 
L 304.315504 208.235295 
L 305.401305 209.029333 
L 306.487106 207.954493 
L 308.658709 209.711881 
L 309.74451 208.897679 
L 310.830311 209.420327 
L 311.916112 209.071043 
L 313.001913 208.330249 
L 314.087715 210.390874 
L 315.173516 208.979946 
L 316.259317 210.39353 
L 317.345118 208.957297 
L 318.430919 208.998276 
L 319.51672 210.558667 
L 320.602521 209.846114 
L 321.688323 210.350133 
L 322.774124 208.099355 
L 323.859925 208.922562 
L 324.945726 209.025867 
L 326.031527 209.470184 
L 327.117328 209.0732 
L 328.20313 209.178084 
L 329.288931 208.592815 
L 330.374732 209.043524 
L 331.460533 209.783622 
L 332.546334 208.578767 
L 333.632135 209.22324 
L 334.717936 209.599139 
L 335.803738 209.180104 
L 336.889539 210.305621 
L 337.97534 208.137826 
L 339.061141 209.290225 
L 340.146942 209.371826 
L 341.232743 208.163016 
L 342.318545 209.218185 
L 343.404346 208.576219 
L 344.490147 209.336667 
L 345.575948 209.244281 
L 346.661749 208.947174 
L 347.74755 209.544948 
L 348.833352 208.863017 
L 349.919153 210.035654 
L 351.004954 209.095226 
L 352.090755 209.430293 
L 353.176556 210.60064 
L 354.262357 208.601633 
L 355.348158 209.262571 
L 356.43396 209.485374 
L 357.519761 209.307312 
L 358.605562 210.433195 
L 360.777164 209.842633 
L 361.862965 210.505271 
L 362.948767 209.061307 
L 364.034568 210.116826 
L 365.120369 209.476436 
L 366.20617 210.284538 
L 367.291971 210.319245 
L 368.377772 209.605543 
L 369.463573 209.759943 
L 370.549375 209.609914 
L 371.635176 209.83472 
L 373.806778 211.095918 
L 374.892579 209.223011 
L 375.97838 209.487971 
L 377.064182 211.053602 
L 379.235784 209.37597 
L 380.321585 209.727352 
L 381.407386 209.216078 
L 382.493187 209.636917 
L 383.578988 210.488754 
L 384.66479 208.622256 
L 385.750591 208.699187 
L 386.836392 209.48431 
L 390.093795 209.825931 
L 391.179597 209.138086 
L 392.265398 209.690938 
L 392.265398 209.690938 
" clip-path="url(#pdea7747a2e)" style="fill: none; stroke: #1f77b4; stroke-width: 1.5; stroke-linecap: square"/>
   </g>
   <g id="line2d_40">
    <path d="M 67.610852 110.113981 
L 68.696653 95.64275 
L 70.868256 50.813297 
L 71.954057 49.898268 
L 73.039858 36.758142 
L 74.125659 47.214926 
L 75.21146 34.414125 
L 76.297262 49.041615 
L 77.383063 50.320631 
L 78.468864 62.09075 
L 79.554665 62.429607 
L 80.640466 51.398353 
L 81.726267 58.726148 
L 82.812068 63.416366 
L 83.89787 59.090099 
L 84.983671 61.183287 
L 86.069472 71.337081 
L 87.155273 79.648934 
L 88.241074 72.151193 
L 89.326875 89.729182 
L 90.412677 75.803574 
L 91.498478 86.043696 
L 92.584279 93.970586 
L 93.67008 113.033393 
L 94.755881 104.338794 
L 95.841682 119.330448 
L 96.927483 115.007448 
L 98.013285 113.086693 
L 99.099086 113.037945 
L 100.184887 126.843615 
L 101.270688 117.799429 
L 102.356489 137.810628 
L 103.44229 130.547037 
L 104.528092 117.305937 
L 105.613893 174.707733 
L 106.699694 202.777341 
L 107.785495 162.097497 
L 108.871296 222.851456 
L 109.957097 214.933912 
L 111.042898 198.876821 
L 112.1287 185.117853 
L 113.214501 212.586904 
L 114.300302 245.95465 
L 115.386103 245.07129 
L 117.557705 228.068208 
L 118.643507 221.023137 
L 119.729308 240.829 
L 120.815109 230.436648 
L 121.90091 248.150636 
L 122.986711 240.64444 
L 124.072512 234.785268 
L 125.158314 243.006028 
L 126.244115 247.144277 
L 127.329916 253.104341 
L 128.415717 255.750473 
L 129.501518 250.481562 
L 130.587319 227.557246 
L 131.67312 215.116356 
L 132.758922 256.440962 
L 133.844723 189.620953 
L 134.930524 241.316395 
L 136.016325 245.490328 
L 137.102126 245.139842 
L 138.187927 245.537748 
L 139.273729 251.348294 
L 140.35953 203.671238 
L 141.445331 248.882064 
L 142.531132 256.548497 
L 144.702734 208.201851 
L 145.788535 177.482347 
L 146.874337 182.084373 
L 147.960138 242.155763 
L 149.045939 245.013451 
L 150.13174 242.099437 
L 151.217541 252.267008 
L 152.303342 206.20541 
L 153.389144 202.9157 
L 154.474945 256.396992 
L 155.560746 231.595635 
L 156.646547 257.602621 
L 157.732348 257.10161 
L 158.818149 255.660924 
L 159.90395 260.074209 
L 160.989752 266.753805 
L 162.075553 249.918108 
L 163.161354 259.004056 
L 164.247155 254.576513 
L 165.332956 260.938218 
L 166.418757 263.083729 
L 167.504559 257.589142 
L 168.59036 256.913749 
L 169.676161 267.840718 
L 170.761962 266.070643 
L 171.847763 254.704341 
L 172.933564 260.605748 
L 174.019365 252.918374 
L 175.105167 250.908134 
L 176.190968 252.237805 
L 177.276769 264.12686 
L 178.36257 259.926283 
L 179.448371 245.757212 
L 180.534172 268.299988 
L 181.619974 268.140919 
L 182.705775 262.397426 
L 183.791576 267.056246 
L 184.877377 263.753683 
L 185.963178 267.617931 
L 187.048979 262.988316 
L 188.134781 266.833408 
L 189.220582 199.941139 
L 190.306383 269.402908 
L 191.392184 247.558076 
L 192.477985 258.182576 
L 193.563786 237.005187 
L 194.649587 261.079823 
L 195.735389 157.195031 
L 196.82119 205.602154 
L 197.906991 263.333713 
L 198.992792 262.405828 
L 200.078593 257.35326 
L 201.164394 267.071353 
L 202.250196 272.543484 
L 203.335997 268.371773 
L 204.421798 269.397157 
L 205.507599 267.178297 
L 206.5934 271.292972 
L 207.679201 270.432294 
L 208.765002 271.835865 
L 209.850804 270.692479 
L 210.936605 270.938769 
L 212.022406 265.630843 
L 213.108207 262.929673 
L 214.194008 266.060202 
L 215.279809 266.871138 
L 216.365611 261.869012 
L 217.451412 266.2474 
L 218.537213 266.079874 
L 219.623014 266.129355 
L 220.708815 248.239266 
L 221.794616 259.432755 
L 222.880417 258.869554 
L 223.966219 258.784554 
L 225.05202 248.074915 
L 226.137821 253.189549 
L 227.223622 247.178836 
L 229.395224 265.940855 
L 230.481026 267.373234 
L 231.566827 266.649158 
L 232.652628 268.030876 
L 233.738429 261.978365 
L 234.82423 253.106011 
L 235.910031 266.64722 
L 236.995833 270.918539 
L 239.167435 272.857709 
L 240.253236 271.167678 
L 241.339037 266.700517 
L 242.424838 270.919468 
L 243.510639 270.510368 
L 244.596441 270.852041 
L 245.682242 271.782702 
L 246.768043 268.682709 
L 247.853844 270.701648 
L 248.939645 269.29174 
L 250.025446 272.168959 
L 251.111248 273.49342 
L 252.197049 274.261192 
L 253.28285 273.829363 
L 254.368651 273.197553 
L 255.454452 272.100089 
L 256.540253 273.838719 
L 257.626054 274.405585 
L 258.711856 273.820467 
L 259.797657 270.900488 
L 260.883458 269.208639 
L 261.969259 270.65895 
L 263.05506 271.257481 
L 264.140861 273.483244 
L 265.226663 274.436671 
L 266.312464 275.124424 
L 267.398265 272.032941 
L 268.484066 270.317381 
L 269.569867 273.912251 
L 270.655668 274.178352 
L 271.741469 275.012599 
L 272.827271 273.335237 
L 273.913072 275.278132 
L 274.998873 273.773712 
L 276.084674 273.12575 
L 277.170475 273.294119 
L 278.256276 272.48797 
L 279.342078 272.893205 
L 280.427879 272.45778 
L 281.51368 274.179066 
L 282.599481 274.546012 
L 283.685282 272.168774 
L 284.771083 271.417184 
L 285.856885 273.132111 
L 286.942686 272.167866 
L 288.028487 272.497179 
L 289.114288 272.257376 
L 290.200089 273.580525 
L 291.28589 274.016268 
L 292.371691 275.538182 
L 293.457493 276.118579 
L 294.543294 274.971942 
L 295.629095 274.028706 
L 296.714896 275.039309 
L 297.800697 275.525296 
L 298.886498 274.527856 
L 299.9723 274.424122 
L 301.058101 273.775938 
L 302.143902 275.305044 
L 303.229703 272.94749 
L 304.315504 273.142902 
L 305.401305 273.016282 
L 306.487106 273.828887 
L 307.572908 273.94299 
L 308.658709 271.54467 
L 309.74451 273.604288 
L 310.830311 272.987077 
L 311.916112 273.831995 
L 313.001913 275.026629 
L 314.087715 272.957188 
L 315.173516 274.625005 
L 316.259317 273.575577 
L 317.345118 274.861223 
L 318.430919 275.61951 
L 319.51672 276.127841 
L 320.602521 275.96397 
L 321.688323 274.768376 
L 322.774124 275.857901 
L 323.859925 274.812544 
L 324.945726 274.291025 
L 326.031527 273.898971 
L 327.117328 273.710115 
L 328.20313 274.745858 
L 329.288931 274.429667 
L 330.374732 274.88179 
L 331.460533 274.994809 
L 332.546334 276.334125 
L 333.632135 276.042365 
L 334.717936 274.47442 
L 335.803738 274.136663 
L 336.889539 274.324198 
L 337.97534 275.493914 
L 339.061141 274.874173 
L 340.146942 274.445977 
L 341.232743 275.119366 
L 343.404346 274.110112 
L 344.490147 275.286701 
L 345.575948 275.317578 
L 346.661749 274.733936 
L 348.833352 274.811484 
L 351.004954 274.404504 
L 352.090755 275.448939 
L 353.176556 275.54857 
L 354.262357 274.494354 
L 355.348158 274.153381 
L 356.43396 275.034142 
L 357.519761 274.778668 
L 359.691363 275.519656 
L 360.777164 275.398195 
L 361.862965 275.474903 
L 362.948767 275.083955 
L 364.034568 275.322715 
L 365.120369 275.050865 
L 366.20617 275.563267 
L 367.291971 275.854129 
L 368.377772 275.469984 
L 370.549375 275.793763 
L 371.635176 274.935327 
L 372.720977 274.843509 
L 373.806778 274.608254 
L 375.97838 274.548168 
L 377.064182 274.787081 
L 379.235784 275.66068 
L 380.321585 275.602374 
L 381.407386 275.299714 
L 383.578988 275.091646 
L 384.66479 275.454927 
L 385.750591 275.237675 
L 386.836392 275.226201 
L 387.922193 275.360083 
L 389.007994 275.343471 
L 390.093795 274.850966 
L 391.179597 274.648378 
L 392.265398 274.642915 
L 392.265398 274.642915 
" clip-path="url(#pdea7747a2e)" style="fill: none; stroke: #ff7f0e; stroke-width: 1.5; stroke-linecap: square"/>
   </g>
   <g id="line2d_41">
    <path d="M 67.610852 105.911192 
L 68.696653 96.384549 
L 70.868256 68.605428 
L 71.954057 57.788937 
L 73.039858 51.128527 
L 74.125659 49.140741 
L 75.21146 47.916736 
L 77.383063 53.740148 
L 78.468864 56.23675 
L 79.554665 58.132292 
L 82.812068 62.988025 
L 83.89787 65.170021 
L 84.983671 69.049273 
L 87.155273 81.746837 
L 88.241074 87.268834 
L 90.412677 93.706623 
L 91.498478 95.300311 
L 92.584279 102.242662 
L 93.67008 110.334723 
L 94.755881 116.09593 
L 95.841682 120.250911 
L 96.927483 126.242891 
L 98.013285 130.436083 
L 99.099086 132.995533 
L 100.184887 140.392358 
L 101.270688 150.43419 
L 103.44229 168.08996 
L 104.528092 172.95773 
L 105.613893 184.321645 
L 106.699694 200.410843 
L 108.871296 238.787651 
L 109.957097 247.77038 
L 111.042898 254.673107 
L 112.1287 256.820322 
L 113.214501 255.503823 
L 114.300302 258.944282 
L 115.386103 260.615941 
L 116.471904 261.303526 
L 117.557705 261.576685 
L 118.643507 260.763228 
L 119.729308 261.04665 
L 120.815109 261.840038 
L 121.90091 263.257858 
L 122.986711 263.694457 
L 124.072512 262.455108 
L 125.158314 263.00556 
L 126.244115 264.318098 
L 128.415717 263.94486 
L 129.501518 265.294127 
L 130.587319 265.969808 
L 131.67312 265.099785 
L 132.758922 265.858334 
L 133.844723 265.053394 
L 134.930524 264.435357 
L 136.016325 263.649641 
L 137.102126 263.201529 
L 138.187927 264.048635 
L 139.273729 263.688685 
L 140.35953 261.780461 
L 141.445331 261.369701 
L 142.531132 265.546351 
L 143.616933 264.274611 
L 144.702734 262.416346 
L 145.788535 259.311718 
L 146.874337 259.274834 
L 147.960138 259.605545 
L 149.045939 263.016824 
L 150.13174 263.064323 
L 151.217541 264.685595 
L 152.303342 265.333976 
L 153.389144 264.262796 
L 154.474945 263.395417 
L 155.560746 265.799741 
L 156.646547 266.096474 
L 157.732348 266.95087 
L 158.818149 265.96415 
L 159.90395 266.520066 
L 160.989752 268.130948 
L 162.075553 268.588572 
L 164.247155 267.369466 
L 165.332956 267.143543 
L 166.418757 267.06566 
L 167.504559 267.226287 
L 168.59036 266.946535 
L 169.676161 268.866958 
L 170.761962 269.865754 
L 171.847763 269.706794 
L 172.933564 270.128031 
L 174.019365 270.128911 
L 175.105167 268.372681 
L 176.190968 267.15424 
L 177.276769 266.846089 
L 178.36257 267.586939 
L 179.448371 268.810464 
L 181.619974 270.51267 
L 183.791576 270.448157 
L 184.877377 271.071991 
L 185.963178 270.859967 
L 187.048979 271.902423 
L 188.134781 270.900896 
L 189.220582 270.219979 
L 191.392184 269.83539 
L 192.477985 269.228272 
L 193.563786 268.127455 
L 194.649587 268.215695 
L 195.735389 266.926861 
L 196.82119 266.136477 
L 197.906991 266.266413 
L 198.992792 268.849937 
L 201.164394 269.745541 
L 203.335997 271.851815 
L 204.421798 272.4963 
L 206.5934 273.270557 
L 207.679201 273.219979 
L 208.765002 272.742378 
L 209.850804 272.587841 
L 210.936605 272.659758 
L 212.022406 272.93959 
L 213.108207 272.988634 
L 214.194008 272.250126 
L 215.279809 271.889411 
L 216.365611 270.829777 
L 217.451412 270.534396 
L 218.537213 270.442275 
L 219.623014 270.873 
L 220.708815 270.934517 
L 221.794616 269.986487 
L 222.880417 269.768706 
L 223.966219 269.042467 
L 226.137821 269.048358 
L 227.223622 268.480831 
L 228.309423 269.395342 
L 229.395224 269.967524 
L 231.566827 271.719568 
L 232.652628 271.795136 
L 233.738429 272.194551 
L 234.82423 271.517141 
L 235.910031 271.396986 
L 236.995833 271.58088 
L 239.167435 272.818046 
L 241.339037 273.339957 
L 242.424838 273.223196 
L 243.510639 272.659462 
L 245.682242 272.584973 
L 246.768043 272.856513 
L 250.025446 272.26263 
L 251.111248 272.496746 
L 252.197049 272.996599 
L 253.28285 273.10816 
L 254.368651 273.556408 
L 256.540253 273.486653 
L 257.626054 273.612028 
L 258.711856 273.620259 
L 260.883458 273.224549 
L 261.969259 272.616041 
L 263.05506 272.622206 
L 264.140861 273.014268 
L 266.312464 274.394137 
L 267.398265 274.182686 
L 268.484066 273.463763 
L 269.569867 273.475886 
L 271.741469 274.239225 
L 272.827271 274.479772 
L 273.913072 274.428602 
L 274.998873 274.660345 
L 276.084674 274.585688 
L 278.256276 273.964292 
L 279.342078 273.707203 
L 280.427879 273.581779 
L 281.51368 273.670955 
L 282.599481 274.098426 
L 283.685282 274.062135 
L 285.856885 273.4793 
L 290.200089 273.401822 
L 291.28589 273.535552 
L 293.457493 274.746885 
L 294.543294 275.006372 
L 295.629095 274.89481 
L 296.714896 274.632829 
L 297.800697 274.800744 
L 298.886498 274.770677 
L 299.9723 274.579366 
L 301.058101 274.538611 
L 302.143902 274.646561 
L 303.229703 274.543291 
L 304.315504 274.131212 
L 306.487106 273.792972 
L 307.572908 273.956157 
L 309.74451 273.770514 
L 311.916112 273.968026 
L 313.001913 274.178474 
L 316.259317 274.266798 
L 317.345118 274.368335 
L 320.602521 275.575036 
L 322.774124 275.320614 
L 324.945726 275.184055 
L 326.031527 274.856587 
L 327.117328 274.766131 
L 330.374732 275.141985 
L 331.460533 275.09998 
L 332.546334 275.482868 
L 333.632135 275.740037 
L 334.717936 275.512854 
L 335.803738 275.16842 
L 336.889539 274.9414 
L 339.061141 275.095899 
L 344.490147 274.942363 
L 346.661749 275.23372 
L 347.74755 275.09448 
L 348.833352 275.21366 
L 358.605562 274.867019 
L 361.862965 275.292966 
L 365.120369 275.032086 
L 370.549375 275.436724 
L 372.720977 275.234558 
L 373.806778 274.976231 
L 375.97838 274.820599 
L 378.149983 274.871043 
L 380.321585 275.236668 
L 381.407386 275.31331 
L 384.66479 275.161715 
L 387.922193 275.096506 
L 390.093795 275.103107 
L 392.265398 274.874073 
L 392.265398 274.874073 
" clip-path="url(#pdea7747a2e)" style="fill: none; stroke: #2ca02c; stroke-width: 1.5; stroke-linecap: square"/>
   </g>
   <g id="patch_3">
    <path d="M 51.378125 288.430125 
L 51.378125 22.318125 
" style="fill: none; stroke: #000000; stroke-width: 0.8; stroke-linejoin: miter; stroke-linecap: square"/>
   </g>
   <g id="patch_4">
    <path d="M 408.498125 288.430125 
L 408.498125 22.318125 
" style="fill: none; stroke: #000000; stroke-width: 0.8; stroke-linejoin: miter; stroke-linecap: square"/>
   </g>
   <g id="patch_5">
    <path d="M 51.378125 288.430125 
L 408.498125 288.430125 
" style="fill: none; stroke: #000000; stroke-width: 0.8; stroke-linejoin: miter; stroke-linecap: square"/>
   </g>
   <g id="patch_6">
    <path d="M 51.378125 22.318125 
L 408.498125 22.318125 
" style="fill: none; stroke: #000000; stroke-width: 0.8; stroke-linejoin: miter; stroke-linecap: square"/>
   </g>
   <g id="text_14">
    <!-- Loss curves -->
    <g transform="translate(194.93375 16.318125) scale(0.12 -0.12)">
     <defs>
      <path id="DejaVuSans-4c" d="M 628 4666 
L 1259 4666 
L 1259 531 
L 3531 531 
L 3531 0 
L 628 0 
L 628 4666 
z
" transform="scale(0.015625)"/>
      <path id="DejaVuSans-75" d="M 544 1381 
L 544 3500 
L 1119 3500 
L 1119 1403 
Q 1119 906 1312 657 
Q 1506 409 1894 409 
Q 2359 409 2629 706 
Q 2900 1003 2900 1516 
L 2900 3500 
L 3475 3500 
L 3475 0 
L 2900 0 
L 2900 538 
Q 2691 219 2414 64 
Q 2138 -91 1772 -91 
Q 1169 -91 856 284 
Q 544 659 544 1381 
z
M 1991 3584 
L 1991 3584 
z
" transform="scale(0.015625)"/>
      <path id="DejaVuSans-76" d="M 191 3500 
L 800 3500 
L 1894 563 
L 2988 3500 
L 3597 3500 
L 2284 0 
L 1503 0 
L 191 3500 
z
" transform="scale(0.015625)"/>
     </defs>
     <use xlink:href="#DejaVuSans-4c"/>
     <use xlink:href="#DejaVuSans-6f" x="53.962891"/>
     <use xlink:href="#DejaVuSans-73" x="115.144531"/>
     <use xlink:href="#DejaVuSans-73" x="167.244141"/>
     <use xlink:href="#DejaVuSans-20" x="219.34375"/>
     <use xlink:href="#DejaVuSans-63" x="251.130859"/>
     <use xlink:href="#DejaVuSans-75" x="306.111328"/>
     <use xlink:href="#DejaVuSans-72" x="369.490234"/>
     <use xlink:href="#DejaVuSans-76" x="410.603516"/>
     <use xlink:href="#DejaVuSans-65" x="469.783203"/>
     <use xlink:href="#DejaVuSans-73" x="531.306641"/>
    </g>
   </g>
   <g id="legend_1">
    <g id="patch_7">
     <path d="M 264.021563 74.3525 
L 401.498125 74.3525 
Q 403.498125 74.3525 403.498125 72.3525 
L 403.498125 29.318125 
Q 403.498125 27.318125 401.498125 27.318125 
L 264.021563 27.318125 
Q 262.021563 27.318125 262.021563 29.318125 
L 262.021563 72.3525 
Q 262.021563 74.3525 264.021563 74.3525 
z
" style="fill: #ffffff; opacity: 0.8; stroke: #cccccc; stroke-linejoin: miter"/>
    </g>
    <g id="line2d_42">
     <path d="M 266.021563 35.416562 
L 276.021563 35.416562 
L 286.021563 35.416562 
" style="fill: none; stroke: #1f77b4; stroke-width: 1.5; stroke-linecap: square"/>
    </g>
    <g id="text_15">
     <!-- Average training loss -->
     <g transform="translate(294.021563 38.916562) scale(0.1 -0.1)">
      <defs>
       <path id="DejaVuSans-41" d="M 2188 4044 
L 1331 1722 
L 3047 1722 
L 2188 4044 
z
M 1831 4666 
L 2547 4666 
L 4325 0 
L 3669 0 
L 3244 1197 
L 1141 1197 
L 716 0 
L 50 0 
L 1831 4666 
z
" transform="scale(0.015625)"/>
       <path id="DejaVuSans-61" d="M 2194 1759 
Q 1497 1759 1228 1600 
Q 959 1441 959 1056 
Q 959 750 1161 570 
Q 1363 391 1709 391 
Q 2188 391 2477 730 
Q 2766 1069 2766 1631 
L 2766 1759 
L 2194 1759 
z
M 3341 1997 
L 3341 0 
L 2766 0 
L 2766 531 
Q 2569 213 2275 61 
Q 1981 -91 1556 -91 
Q 1019 -91 701 211 
Q 384 513 384 1019 
Q 384 1609 779 1909 
Q 1175 2209 1959 2209 
L 2766 2209 
L 2766 2266 
Q 2766 2663 2505 2880 
Q 2244 3097 1772 3097 
Q 1472 3097 1187 3025 
Q 903 2953 641 2809 
L 641 3341 
Q 956 3463 1253 3523 
Q 1550 3584 1831 3584 
Q 2591 3584 2966 3190 
Q 3341 2797 3341 1997 
z
" transform="scale(0.015625)"/>
       <path id="DejaVuSans-67" d="M 2906 1791 
Q 2906 2416 2648 2759 
Q 2391 3103 1925 3103 
Q 1463 3103 1205 2759 
Q 947 2416 947 1791 
Q 947 1169 1205 825 
Q 1463 481 1925 481 
Q 2391 481 2648 825 
Q 2906 1169 2906 1791 
z
M 3481 434 
Q 3481 -459 3084 -895 
Q 2688 -1331 1869 -1331 
Q 1566 -1331 1297 -1286 
Q 1028 -1241 775 -1147 
L 775 -588 
Q 1028 -725 1275 -790 
Q 1522 -856 1778 -856 
Q 2344 -856 2625 -561 
Q 2906 -266 2906 331 
L 2906 616 
Q 2728 306 2450 153 
Q 2172 0 1784 0 
Q 1141 0 747 490 
Q 353 981 353 1791 
Q 353 2603 747 3093 
Q 1141 3584 1784 3584 
Q 2172 3584 2450 3431 
Q 2728 3278 2906 2969 
L 2906 3500 
L 3481 3500 
L 3481 434 
z
" transform="scale(0.015625)"/>
       <path id="DejaVuSans-69" d="M 603 3500 
L 1178 3500 
L 1178 0 
L 603 0 
L 603 3500 
z
M 603 4863 
L 1178 4863 
L 1178 4134 
L 603 4134 
L 603 4863 
z
" transform="scale(0.015625)"/>
      </defs>
      <use xlink:href="#DejaVuSans-41"/>
      <use xlink:href="#DejaVuSans-76" x="62.533203"/>
      <use xlink:href="#DejaVuSans-65" x="121.712891"/>
      <use xlink:href="#DejaVuSans-72" x="183.236328"/>
      <use xlink:href="#DejaVuSans-61" x="224.349609"/>
      <use xlink:href="#DejaVuSans-67" x="285.628906"/>
      <use xlink:href="#DejaVuSans-65" x="349.105469"/>
      <use xlink:href="#DejaVuSans-20" x="410.628906"/>
      <use xlink:href="#DejaVuSans-74" x="442.416016"/>
      <use xlink:href="#DejaVuSans-72" x="481.625"/>
      <use xlink:href="#DejaVuSans-61" x="522.738281"/>
      <use xlink:href="#DejaVuSans-69" x="584.017578"/>
      <use xlink:href="#DejaVuSans-6e" x="611.800781"/>
      <use xlink:href="#DejaVuSans-69" x="675.179688"/>
      <use xlink:href="#DejaVuSans-6e" x="702.962891"/>
      <use xlink:href="#DejaVuSans-67" x="766.341797"/>
      <use xlink:href="#DejaVuSans-20" x="829.818359"/>
      <use xlink:href="#DejaVuSans-6c" x="861.605469"/>
      <use xlink:href="#DejaVuSans-6f" x="889.388672"/>
      <use xlink:href="#DejaVuSans-73" x="950.570312"/>
      <use xlink:href="#DejaVuSans-73" x="1002.669922"/>
     </g>
    </g>
    <g id="line2d_43">
     <path d="M 266.021563 50.094688 
L 276.021563 50.094688 
L 286.021563 50.094688 
" style="fill: none; stroke: #ff7f0e; stroke-width: 1.5; stroke-linecap: square"/>
    </g>
    <g id="text_16">
     <!-- Test loss -->
     <g transform="translate(294.021563 53.594688) scale(0.1 -0.1)">
      <defs>
       <path id="DejaVuSans-54" d="M -19 4666 
L 3928 4666 
L 3928 4134 
L 2272 4134 
L 2272 0 
L 1638 0 
L 1638 4134 
L -19 4134 
L -19 4666 
z
" transform="scale(0.015625)"/>
      </defs>
      <use xlink:href="#DejaVuSans-54"/>
      <use xlink:href="#DejaVuSans-65" x="44.083984"/>
      <use xlink:href="#DejaVuSans-73" x="105.607422"/>
      <use xlink:href="#DejaVuSans-74" x="157.707031"/>
      <use xlink:href="#DejaVuSans-20" x="196.916016"/>
      <use xlink:href="#DejaVuSans-6c" x="228.703125"/>
      <use xlink:href="#DejaVuSans-6f" x="256.486328"/>
      <use xlink:href="#DejaVuSans-73" x="317.667969"/>
      <use xlink:href="#DejaVuSans-73" x="369.767578"/>
     </g>
    </g>
    <g id="line2d_44">
     <path d="M 266.021563 64.772812 
L 276.021563 64.772812 
L 286.021563 64.772812 
" style="fill: none; stroke: #2ca02c; stroke-width: 1.5; stroke-linecap: square"/>
    </g>
    <g id="text_17">
     <!-- EMA test loss -->
     <g transform="translate(294.021563 68.272812) scale(0.1 -0.1)">
      <defs>
       <path id="DejaVuSans-4d" d="M 628 4666 
L 1569 4666 
L 2759 1491 
L 3956 4666 
L 4897 4666 
L 4897 0 
L 4281 0 
L 4281 4097 
L 3078 897 
L 2444 897 
L 1241 4097 
L 1241 0 
L 628 0 
L 628 4666 
z
" transform="scale(0.015625)"/>
      </defs>
      <use xlink:href="#DejaVuSans-45"/>
      <use xlink:href="#DejaVuSans-4d" x="63.183594"/>
      <use xlink:href="#DejaVuSans-41" x="149.462891"/>
      <use xlink:href="#DejaVuSans-20" x="217.871094"/>
      <use xlink:href="#DejaVuSans-74" x="249.658203"/>
      <use xlink:href="#DejaVuSans-65" x="288.867188"/>
      <use xlink:href="#DejaVuSans-73" x="350.390625"/>
      <use xlink:href="#DejaVuSans-74" x="402.490234"/>
      <use xlink:href="#DejaVuSans-20" x="441.699219"/>
      <use xlink:href="#DejaVuSans-6c" x="473.486328"/>
      <use xlink:href="#DejaVuSans-6f" x="501.269531"/>
      <use xlink:href="#DejaVuSans-73" x="562.451172"/>
      <use xlink:href="#DejaVuSans-73" x="614.550781"/>
     </g>
    </g>
   </g>
  </g>
 </g>
 <defs>
  <clipPath id="pdea7747a2e">
   <rect x="51.378125" y="22.318125" width="357.12" height="266.112"/>
  </clipPath>
 </defs>
</svg>
