<?xml version="1.0" encoding="utf-8" standalone="no"?>
<!DOCTYPE svg PUBLIC "-//W3C//DTD SVG 1.1//EN"
  "http://www.w3.org/Graphics/SVG/1.1/DTD/svg11.dtd">
<svg xmlns:xlink="http://www.w3.org/1999/xlink" width="415.698125pt" height="325.986375pt" viewBox="0 0 415.698125 325.986375" xmlns="http://www.w3.org/2000/svg" version="1.1">
 <metadata>
  <rdf:RDF xmlns:dc="http://purl.org/dc/elements/1.1/" xmlns:cc="http://creativecommons.org/ns#" xmlns:rdf="http://www.w3.org/1999/02/22-rdf-syntax-ns#">
   <cc:Work>
    <dc:type rdf:resource="http://purl.org/dc/dcmitype/StillImage"/>
    <dc:date>2024-06-16T09:06:14.987308</dc:date>
    <dc:format>image/svg+xml</dc:format>
    <dc:creator>
     <cc:Agent>
      <dc:title>Matplotlib v3.9.0, https://matplotlib.org/</dc:title>
     </cc:Agent>
    </dc:creator>
   </cc:Work>
  </rdf:RDF>
 </metadata>
 <defs>
  <style type="text/css">*{stroke-linejoin: round; stroke-linecap: butt}</style>
 </defs>
 <g id="figure_1">
  <g id="patch_1">
   <path d="M 0 325.986375 
L 415.698125 325.986375 
L 415.698125 0 
L 0 0 
z
" style="fill: #ffffff"/>
  </g>
  <g id="axes_1">
   <g id="patch_2">
    <path d="M 51.378125 288.430125 
L 408.498125 288.430125 
L 408.498125 22.318125 
L 51.378125 22.318125 
z
" style="fill: #ffffff"/>
   </g>
   <g id="matplotlib.axis_1">
    <g id="xtick_1">
     <g id="line2d_1">
      <defs>
       <path id="me4b5c2588e" d="M 0 0 
L 0 3.5 
" style="stroke: #000000; stroke-width: 0.8"/>
      </defs>
      <g>
       <use xlink:href="#me4b5c2588e" x="66.525051" y="288.430125" style="stroke: #000000; stroke-width: 0.8"/>
      </g>
     </g>
     <g id="text_1">
      <!-- 0 -->
      <g transform="translate(63.343801 303.028562) scale(0.1 -0.1)">
       <defs>
        <path id="DejaVuSans-30" d="M 2034 4250 
Q 1547 4250 1301 3770 
Q 1056 3291 1056 2328 
Q 1056 1369 1301 889 
Q 1547 409 2034 409 
Q 2525 409 2770 889 
Q 3016 1369 3016 2328 
Q 3016 3291 2770 3770 
Q 2525 4250 2034 4250 
z
M 2034 4750 
Q 2819 4750 3233 4129 
Q 3647 3509 3647 2328 
Q 3647 1150 3233 529 
Q 2819 -91 2034 -91 
Q 1250 -91 836 529 
Q 422 1150 422 2328 
Q 422 3509 836 4129 
Q 1250 4750 2034 4750 
z
" transform="scale(0.015625)"/>
       </defs>
       <use xlink:href="#DejaVuSans-30"/>
      </g>
     </g>
    </g>
    <g id="xtick_2">
     <g id="line2d_2">
      <g>
       <use xlink:href="#me4b5c2588e" x="120.815109" y="288.430125" style="stroke: #000000; stroke-width: 0.8"/>
      </g>
     </g>
     <g id="text_2">
      <!-- 50 -->
      <g transform="translate(114.452609 303.028562) scale(0.1 -0.1)">
       <defs>
        <path id="DejaVuSans-35" d="M 691 4666 
L 3169 4666 
L 3169 4134 
L 1269 4134 
L 1269 2991 
Q 1406 3038 1543 3061 
Q 1681 3084 1819 3084 
Q 2600 3084 3056 2656 
Q 3513 2228 3513 1497 
Q 3513 744 3044 326 
Q 2575 -91 1722 -91 
Q 1428 -91 1123 -41 
Q 819 9 494 109 
L 494 744 
Q 775 591 1075 516 
Q 1375 441 1709 441 
Q 2250 441 2565 725 
Q 2881 1009 2881 1497 
Q 2881 1984 2565 2268 
Q 2250 2553 1709 2553 
Q 1456 2553 1204 2497 
Q 953 2441 691 2322 
L 691 4666 
z
" transform="scale(0.015625)"/>
       </defs>
       <use xlink:href="#DejaVuSans-35"/>
       <use xlink:href="#DejaVuSans-30" x="63.623047"/>
      </g>
     </g>
    </g>
    <g id="xtick_3">
     <g id="line2d_3">
      <g>
       <use xlink:href="#me4b5c2588e" x="175.105167" y="288.430125" style="stroke: #000000; stroke-width: 0.8"/>
      </g>
     </g>
     <g id="text_3">
      <!-- 100 -->
      <g transform="translate(165.561417 303.028562) scale(0.1 -0.1)">
       <defs>
        <path id="DejaVuSans-31" d="M 794 531 
L 1825 531 
L 1825 4091 
L 703 3866 
L 703 4441 
L 1819 4666 
L 2450 4666 
L 2450 531 
L 3481 531 
L 3481 0 
L 794 0 
L 794 531 
z
" transform="scale(0.015625)"/>
       </defs>
       <use xlink:href="#DejaVuSans-31"/>
       <use xlink:href="#DejaVuSans-30" x="63.623047"/>
       <use xlink:href="#DejaVuSans-30" x="127.246094"/>
      </g>
     </g>
    </g>
    <g id="xtick_4">
     <g id="line2d_4">
      <g>
       <use xlink:href="#me4b5c2588e" x="229.395224" y="288.430125" style="stroke: #000000; stroke-width: 0.8"/>
      </g>
     </g>
     <g id="text_4">
      <!-- 150 -->
      <g transform="translate(219.851474 303.028562) scale(0.1 -0.1)">
       <use xlink:href="#DejaVuSans-31"/>
       <use xlink:href="#DejaVuSans-35" x="63.623047"/>
       <use xlink:href="#DejaVuSans-30" x="127.246094"/>
      </g>
     </g>
    </g>
    <g id="xtick_5">
     <g id="line2d_5">
      <g>
       <use xlink:href="#me4b5c2588e" x="283.685282" y="288.430125" style="stroke: #000000; stroke-width: 0.8"/>
      </g>
     </g>
     <g id="text_5">
      <!-- 200 -->
      <g transform="translate(274.141532 303.028562) scale(0.1 -0.1)">
       <defs>
        <path id="DejaVuSans-32" d="M 1228 531 
L 3431 531 
L 3431 0 
L 469 0 
L 469 531 
Q 828 903 1448 1529 
Q 2069 2156 2228 2338 
Q 2531 2678 2651 2914 
Q 2772 3150 2772 3378 
Q 2772 3750 2511 3984 
Q 2250 4219 1831 4219 
Q 1534 4219 1204 4116 
Q 875 4013 500 3803 
L 500 4441 
Q 881 4594 1212 4672 
Q 1544 4750 1819 4750 
Q 2544 4750 2975 4387 
Q 3406 4025 3406 3419 
Q 3406 3131 3298 2873 
Q 3191 2616 2906 2266 
Q 2828 2175 2409 1742 
Q 1991 1309 1228 531 
z
" transform="scale(0.015625)"/>
       </defs>
       <use xlink:href="#DejaVuSans-32"/>
       <use xlink:href="#DejaVuSans-30" x="63.623047"/>
       <use xlink:href="#DejaVuSans-30" x="127.246094"/>
      </g>
     </g>
    </g>
    <g id="xtick_6">
     <g id="line2d_6">
      <g>
       <use xlink:href="#me4b5c2588e" x="337.97534" y="288.430125" style="stroke: #000000; stroke-width: 0.8"/>
      </g>
     </g>
     <g id="text_6">
      <!-- 250 -->
      <g transform="translate(328.43159 303.028562) scale(0.1 -0.1)">
       <use xlink:href="#DejaVuSans-32"/>
       <use xlink:href="#DejaVuSans-35" x="63.623047"/>
       <use xlink:href="#DejaVuSans-30" x="127.246094"/>
      </g>
     </g>
    </g>
    <g id="xtick_7">
     <g id="line2d_7">
      <g>
       <use xlink:href="#me4b5c2588e" x="392.265398" y="288.430125" style="stroke: #000000; stroke-width: 0.8"/>
      </g>
     </g>
     <g id="text_7">
      <!-- 300 -->
      <g transform="translate(382.721648 303.028562) scale(0.1 -0.1)">
       <defs>
        <path id="DejaVuSans-33" d="M 2597 2516 
Q 3050 2419 3304 2112 
Q 3559 1806 3559 1356 
Q 3559 666 3084 287 
Q 2609 -91 1734 -91 
Q 1441 -91 1130 -33 
Q 819 25 488 141 
L 488 750 
Q 750 597 1062 519 
Q 1375 441 1716 441 
Q 2309 441 2620 675 
Q 2931 909 2931 1356 
Q 2931 1769 2642 2001 
Q 2353 2234 1838 2234 
L 1294 2234 
L 1294 2753 
L 1863 2753 
Q 2328 2753 2575 2939 
Q 2822 3125 2822 3475 
Q 2822 3834 2567 4026 
Q 2313 4219 1838 4219 
Q 1578 4219 1281 4162 
Q 984 4106 628 3988 
L 628 4550 
Q 988 4650 1302 4700 
Q 1616 4750 1894 4750 
Q 2613 4750 3031 4423 
Q 3450 4097 3450 3541 
Q 3450 3153 3228 2886 
Q 3006 2619 2597 2516 
z
" transform="scale(0.015625)"/>
       </defs>
       <use xlink:href="#DejaVuSans-33"/>
       <use xlink:href="#DejaVuSans-30" x="63.623047"/>
       <use xlink:href="#DejaVuSans-30" x="127.246094"/>
      </g>
     </g>
    </g>
    <g id="text_8">
     <!-- Epoch -->
     <g transform="translate(214.627188 316.706687) scale(0.1 -0.1)">
      <defs>
       <path id="DejaVuSans-45" d="M 628 4666 
L 3578 4666 
L 3578 4134 
L 1259 4134 
L 1259 2753 
L 3481 2753 
L 3481 2222 
L 1259 2222 
L 1259 531 
L 3634 531 
L 3634 0 
L 628 0 
L 628 4666 
z
" transform="scale(0.015625)"/>
       <path id="DejaVuSans-70" d="M 1159 525 
L 1159 -1331 
L 581 -1331 
L 581 3500 
L 1159 3500 
L 1159 2969 
Q 1341 3281 1617 3432 
Q 1894 3584 2278 3584 
Q 2916 3584 3314 3078 
Q 3713 2572 3713 1747 
Q 3713 922 3314 415 
Q 2916 -91 2278 -91 
Q 1894 -91 1617 61 
Q 1341 213 1159 525 
z
M 3116 1747 
Q 3116 2381 2855 2742 
Q 2594 3103 2138 3103 
Q 1681 3103 1420 2742 
Q 1159 2381 1159 1747 
Q 1159 1113 1420 752 
Q 1681 391 2138 391 
Q 2594 391 2855 752 
Q 3116 1113 3116 1747 
z
" transform="scale(0.015625)"/>
       <path id="DejaVuSans-6f" d="M 1959 3097 
Q 1497 3097 1228 2736 
Q 959 2375 959 1747 
Q 959 1119 1226 758 
Q 1494 397 1959 397 
Q 2419 397 2687 759 
Q 2956 1122 2956 1747 
Q 2956 2369 2687 2733 
Q 2419 3097 1959 3097 
z
M 1959 3584 
Q 2709 3584 3137 3096 
Q 3566 2609 3566 1747 
Q 3566 888 3137 398 
Q 2709 -91 1959 -91 
Q 1206 -91 779 398 
Q 353 888 353 1747 
Q 353 2609 779 3096 
Q 1206 3584 1959 3584 
z
" transform="scale(0.015625)"/>
       <path id="DejaVuSans-63" d="M 3122 3366 
L 3122 2828 
Q 2878 2963 2633 3030 
Q 2388 3097 2138 3097 
Q 1578 3097 1268 2742 
Q 959 2388 959 1747 
Q 959 1106 1268 751 
Q 1578 397 2138 397 
Q 2388 397 2633 464 
Q 2878 531 3122 666 
L 3122 134 
Q 2881 22 2623 -34 
Q 2366 -91 2075 -91 
Q 1284 -91 818 406 
Q 353 903 353 1747 
Q 353 2603 823 3093 
Q 1294 3584 2113 3584 
Q 2378 3584 2631 3529 
Q 2884 3475 3122 3366 
z
" transform="scale(0.015625)"/>
       <path id="DejaVuSans-68" d="M 3513 2113 
L 3513 0 
L 2938 0 
L 2938 2094 
Q 2938 2591 2744 2837 
Q 2550 3084 2163 3084 
Q 1697 3084 1428 2787 
Q 1159 2491 1159 1978 
L 1159 0 
L 581 0 
L 581 4863 
L 1159 4863 
L 1159 2956 
Q 1366 3272 1645 3428 
Q 1925 3584 2291 3584 
Q 2894 3584 3203 3211 
Q 3513 2838 3513 2113 
z
" transform="scale(0.015625)"/>
      </defs>
      <use xlink:href="#DejaVuSans-45"/>
      <use xlink:href="#DejaVuSans-70" x="63.183594"/>
      <use xlink:href="#DejaVuSans-6f" x="126.660156"/>
      <use xlink:href="#DejaVuSans-63" x="187.841797"/>
      <use xlink:href="#DejaVuSans-68" x="242.822266"/>
     </g>
    </g>
   </g>
   <g id="matplotlib.axis_2">
    <g id="ytick_1">
     <g id="line2d_8">
      <defs>
       <path id="m54ef4cb53d" d="M 0 0 
L -3.5 0 
" style="stroke: #000000; stroke-width: 0.8"/>
      </defs>
      <g>
       <use xlink:href="#m54ef4cb53d" x="51.378125" y="279.714032" style="stroke: #000000; stroke-width: 0.8"/>
      </g>
     </g>
     <g id="text_9">
      <!-- $\mathdefault{10^{-2}}$ -->
      <g transform="translate(20.878125 283.51325) scale(0.1 -0.1)">
       <defs>
        <path id="DejaVuSans-2212" d="M 678 2272 
L 4684 2272 
L 4684 1741 
L 678 1741 
L 678 2272 
z
" transform="scale(0.015625)"/>
       </defs>
       <use xlink:href="#DejaVuSans-31" transform="translate(0 0.765625)"/>
       <use xlink:href="#DejaVuSans-30" transform="translate(63.623047 0.765625)"/>
       <use xlink:href="#DejaVuSans-2212" transform="translate(128.203125 39.046875) scale(0.7)"/>
       <use xlink:href="#DejaVuSans-32" transform="translate(186.855469 39.046875) scale(0.7)"/>
      </g>
     </g>
    </g>
    <g id="ytick_2">
     <g id="line2d_9">
      <g>
       <use xlink:href="#m54ef4cb53d" x="51.378125" y="179.422966" style="stroke: #000000; stroke-width: 0.8"/>
      </g>
     </g>
     <g id="text_10">
      <!-- $\mathdefault{10^{-1}}$ -->
      <g transform="translate(20.878125 183.222185) scale(0.1 -0.1)">
       <use xlink:href="#DejaVuSans-31" transform="translate(0 0.684375)"/>
       <use xlink:href="#DejaVuSans-30" transform="translate(63.623047 0.684375)"/>
       <use xlink:href="#DejaVuSans-2212" transform="translate(128.203125 38.965625) scale(0.7)"/>
       <use xlink:href="#DejaVuSans-31" transform="translate(186.855469 38.965625) scale(0.7)"/>
      </g>
     </g>
    </g>
    <g id="ytick_3">
     <g id="line2d_10">
      <g>
       <use xlink:href="#m54ef4cb53d" x="51.378125" y="79.131901" style="stroke: #000000; stroke-width: 0.8"/>
      </g>
     </g>
     <g id="text_11">
      <!-- $\mathdefault{10^{0}}$ -->
      <g transform="translate(26.778125 82.931119) scale(0.1 -0.1)">
       <use xlink:href="#DejaVuSans-31" transform="translate(0 0.765625)"/>
       <use xlink:href="#DejaVuSans-30" transform="translate(63.623047 0.765625)"/>
       <use xlink:href="#DejaVuSans-30" transform="translate(128.203125 39.046875) scale(0.7)"/>
      </g>
     </g>
    </g>
    <g id="ytick_4">
     <g id="line2d_11">
      <defs>
       <path id="mc774ce67a3" d="M 0 0 
L -2 0 
" style="stroke: #000000; stroke-width: 0.6"/>
      </defs>
      <g>
       <use xlink:href="#mc774ce67a3" x="51.378125" y="284.303099" style="stroke: #000000; stroke-width: 0.6"/>
      </g>
     </g>
    </g>
    <g id="ytick_5">
     <g id="line2d_12">
      <g>
       <use xlink:href="#mc774ce67a3" x="51.378125" y="249.523413" style="stroke: #000000; stroke-width: 0.6"/>
      </g>
     </g>
    </g>
    <g id="ytick_6">
     <g id="line2d_13">
      <g>
       <use xlink:href="#mc774ce67a3" x="51.378125" y="231.863033" style="stroke: #000000; stroke-width: 0.6"/>
      </g>
     </g>
    </g>
    <g id="ytick_7">
     <g id="line2d_14">
      <g>
       <use xlink:href="#mc774ce67a3" x="51.378125" y="219.332794" style="stroke: #000000; stroke-width: 0.6"/>
      </g>
     </g>
    </g>
    <g id="ytick_8">
     <g id="line2d_15">
      <g>
       <use xlink:href="#mc774ce67a3" x="51.378125" y="209.613585" style="stroke: #000000; stroke-width: 0.6"/>
      </g>
     </g>
    </g>
    <g id="ytick_9">
     <g id="line2d_16">
      <g>
       <use xlink:href="#mc774ce67a3" x="51.378125" y="201.672414" style="stroke: #000000; stroke-width: 0.6"/>
      </g>
     </g>
    </g>
    <g id="ytick_10">
     <g id="line2d_17">
      <g>
       <use xlink:href="#mc774ce67a3" x="51.378125" y="194.958249" style="stroke: #000000; stroke-width: 0.6"/>
      </g>
     </g>
    </g>
    <g id="ytick_11">
     <g id="line2d_18">
      <g>
       <use xlink:href="#mc774ce67a3" x="51.378125" y="189.142174" style="stroke: #000000; stroke-width: 0.6"/>
      </g>
     </g>
    </g>
    <g id="ytick_12">
     <g id="line2d_19">
      <g>
       <use xlink:href="#mc774ce67a3" x="51.378125" y="184.012034" style="stroke: #000000; stroke-width: 0.6"/>
      </g>
     </g>
    </g>
    <g id="ytick_13">
     <g id="line2d_20">
      <g>
       <use xlink:href="#mc774ce67a3" x="51.378125" y="149.232347" style="stroke: #000000; stroke-width: 0.6"/>
      </g>
     </g>
    </g>
    <g id="ytick_14">
     <g id="line2d_21">
      <g>
       <use xlink:href="#mc774ce67a3" x="51.378125" y="131.571967" style="stroke: #000000; stroke-width: 0.6"/>
      </g>
     </g>
    </g>
    <g id="ytick_15">
     <g id="line2d_22">
      <g>
       <use xlink:href="#mc774ce67a3" x="51.378125" y="119.041728" style="stroke: #000000; stroke-width: 0.6"/>
      </g>
     </g>
    </g>
    <g id="ytick_16">
     <g id="line2d_23">
      <g>
       <use xlink:href="#mc774ce67a3" x="51.378125" y="109.32252" style="stroke: #000000; stroke-width: 0.6"/>
      </g>
     </g>
    </g>
    <g id="ytick_17">
     <g id="line2d_24">
      <g>
       <use xlink:href="#mc774ce67a3" x="51.378125" y="101.381348" style="stroke: #000000; stroke-width: 0.6"/>
      </g>
     </g>
    </g>
    <g id="ytick_18">
     <g id="line2d_25">
      <g>
       <use xlink:href="#mc774ce67a3" x="51.378125" y="94.667183" style="stroke: #000000; stroke-width: 0.6"/>
      </g>
     </g>
    </g>
    <g id="ytick_19">
     <g id="line2d_26">
      <g>
       <use xlink:href="#mc774ce67a3" x="51.378125" y="88.851109" style="stroke: #000000; stroke-width: 0.6"/>
      </g>
     </g>
    </g>
    <g id="ytick_20">
     <g id="line2d_27">
      <g>
       <use xlink:href="#mc774ce67a3" x="51.378125" y="83.720968" style="stroke: #000000; stroke-width: 0.6"/>
      </g>
     </g>
    </g>
    <g id="ytick_21">
     <g id="line2d_28">
      <g>
       <use xlink:href="#mc774ce67a3" x="51.378125" y="48.941282" style="stroke: #000000; stroke-width: 0.6"/>
      </g>
     </g>
    </g>
    <g id="ytick_22">
     <g id="line2d_29">
      <g>
       <use xlink:href="#mc774ce67a3" x="51.378125" y="31.280902" style="stroke: #000000; stroke-width: 0.6"/>
      </g>
     </g>
    </g>
    <g id="text_12">
     <!-- Cross-entropy loss -->
     <g transform="translate(14.798438 201.469437) rotate(-90) scale(0.1 -0.1)">
      <defs>
       <path id="DejaVuSans-43" d="M 4122 4306 
L 4122 3641 
Q 3803 3938 3442 4084 
Q 3081 4231 2675 4231 
Q 1875 4231 1450 3742 
Q 1025 3253 1025 2328 
Q 1025 1406 1450 917 
Q 1875 428 2675 428 
Q 3081 428 3442 575 
Q 3803 722 4122 1019 
L 4122 359 
Q 3791 134 3420 21 
Q 3050 -91 2638 -91 
Q 1578 -91 968 557 
Q 359 1206 359 2328 
Q 359 3453 968 4101 
Q 1578 4750 2638 4750 
Q 3056 4750 3426 4639 
Q 3797 4528 4122 4306 
z
" transform="scale(0.015625)"/>
       <path id="DejaVuSans-72" d="M 2631 2963 
Q 2534 3019 2420 3045 
Q 2306 3072 2169 3072 
Q 1681 3072 1420 2755 
Q 1159 2438 1159 1844 
L 1159 0 
L 581 0 
L 581 3500 
L 1159 3500 
L 1159 2956 
Q 1341 3275 1631 3429 
Q 1922 3584 2338 3584 
Q 2397 3584 2469 3576 
Q 2541 3569 2628 3553 
L 2631 2963 
z
" transform="scale(0.015625)"/>
       <path id="DejaVuSans-73" d="M 2834 3397 
L 2834 2853 
Q 2591 2978 2328 3040 
Q 2066 3103 1784 3103 
Q 1356 3103 1142 2972 
Q 928 2841 928 2578 
Q 928 2378 1081 2264 
Q 1234 2150 1697 2047 
L 1894 2003 
Q 2506 1872 2764 1633 
Q 3022 1394 3022 966 
Q 3022 478 2636 193 
Q 2250 -91 1575 -91 
Q 1294 -91 989 -36 
Q 684 19 347 128 
L 347 722 
Q 666 556 975 473 
Q 1284 391 1588 391 
Q 1994 391 2212 530 
Q 2431 669 2431 922 
Q 2431 1156 2273 1281 
Q 2116 1406 1581 1522 
L 1381 1569 
Q 847 1681 609 1914 
Q 372 2147 372 2553 
Q 372 3047 722 3315 
Q 1072 3584 1716 3584 
Q 2034 3584 2315 3537 
Q 2597 3491 2834 3397 
z
" transform="scale(0.015625)"/>
       <path id="DejaVuSans-2d" d="M 313 2009 
L 1997 2009 
L 1997 1497 
L 313 1497 
L 313 2009 
z
" transform="scale(0.015625)"/>
       <path id="DejaVuSans-65" d="M 3597 1894 
L 3597 1613 
L 953 1613 
Q 991 1019 1311 708 
Q 1631 397 2203 397 
Q 2534 397 2845 478 
Q 3156 559 3463 722 
L 3463 178 
Q 3153 47 2828 -22 
Q 2503 -91 2169 -91 
Q 1331 -91 842 396 
Q 353 884 353 1716 
Q 353 2575 817 3079 
Q 1281 3584 2069 3584 
Q 2775 3584 3186 3129 
Q 3597 2675 3597 1894 
z
M 3022 2063 
Q 3016 2534 2758 2815 
Q 2500 3097 2075 3097 
Q 1594 3097 1305 2825 
Q 1016 2553 972 2059 
L 3022 2063 
z
" transform="scale(0.015625)"/>
       <path id="DejaVuSans-6e" d="M 3513 2113 
L 3513 0 
L 2938 0 
L 2938 2094 
Q 2938 2591 2744 2837 
Q 2550 3084 2163 3084 
Q 1697 3084 1428 2787 
Q 1159 2491 1159 1978 
L 1159 0 
L 581 0 
L 581 3500 
L 1159 3500 
L 1159 2956 
Q 1366 3272 1645 3428 
Q 1925 3584 2291 3584 
Q 2894 3584 3203 3211 
Q 3513 2838 3513 2113 
z
" transform="scale(0.015625)"/>
       <path id="DejaVuSans-74" d="M 1172 4494 
L 1172 3500 
L 2356 3500 
L 2356 3053 
L 1172 3053 
L 1172 1153 
Q 1172 725 1289 603 
Q 1406 481 1766 481 
L 2356 481 
L 2356 0 
L 1766 0 
Q 1100 0 847 248 
Q 594 497 594 1153 
L 594 3053 
L 172 3053 
L 172 3500 
L 594 3500 
L 594 4494 
L 1172 4494 
z
" transform="scale(0.015625)"/>
       <path id="DejaVuSans-79" d="M 2059 -325 
Q 1816 -950 1584 -1140 
Q 1353 -1331 966 -1331 
L 506 -1331 
L 506 -850 
L 844 -850 
Q 1081 -850 1212 -737 
Q 1344 -625 1503 -206 
L 1606 56 
L 191 3500 
L 800 3500 
L 1894 763 
L 2988 3500 
L 3597 3500 
L 2059 -325 
z
" transform="scale(0.015625)"/>
       <path id="DejaVuSans-20" transform="scale(0.015625)"/>
       <path id="DejaVuSans-6c" d="M 603 4863 
L 1178 4863 
L 1178 0 
L 603 0 
L 603 4863 
z
" transform="scale(0.015625)"/>
      </defs>
      <use xlink:href="#DejaVuSans-43"/>
      <use xlink:href="#DejaVuSans-72" x="69.824219"/>
      <use xlink:href="#DejaVuSans-6f" x="108.6875"/>
      <use xlink:href="#DejaVuSans-73" x="169.869141"/>
      <use xlink:href="#DejaVuSans-73" x="221.96875"/>
      <use xlink:href="#DejaVuSans-2d" x="274.068359"/>
      <use xlink:href="#DejaVuSans-65" x="310.152344"/>
      <use xlink:href="#DejaVuSans-6e" x="371.675781"/>
      <use xlink:href="#DejaVuSans-74" x="435.054688"/>
      <use xlink:href="#DejaVuSans-72" x="474.263672"/>
      <use xlink:href="#DejaVuSans-6f" x="513.126953"/>
      <use xlink:href="#DejaVuSans-70" x="574.308594"/>
      <use xlink:href="#DejaVuSans-79" x="637.785156"/>
      <use xlink:href="#DejaVuSans-20" x="696.964844"/>
      <use xlink:href="#DejaVuSans-6c" x="728.751953"/>
      <use xlink:href="#DejaVuSans-6f" x="756.535156"/>
      <use xlink:href="#DejaVuSans-73" x="817.716797"/>
      <use xlink:href="#DejaVuSans-73" x="869.816406"/>
     </g>
    </g>
   </g>
   <g id="line2d_30">
    <path d="M 67.610852 34.414125 
L 68.696653 70.032713 
L 69.782455 84.479548 
L 70.868256 92.554845 
L 71.954057 98.262395 
L 74.125659 106.403442 
L 77.383063 114.426661 
L 78.468864 116.144092 
L 79.554665 118.409589 
L 80.640466 120.083673 
L 81.726267 122.701288 
L 82.812068 123.216298 
L 83.89787 125.032777 
L 84.983671 126.139758 
L 86.069472 128.745008 
L 87.155273 127.710086 
L 89.326875 131.61738 
L 90.412677 131.990725 
L 91.498478 132.72811 
L 92.584279 134.317383 
L 93.67008 135.375275 
L 94.755881 137.289391 
L 95.841682 137.295346 
L 98.013285 138.54362 
L 99.099086 139.454969 
L 100.184887 139.585467 
L 101.270688 140.288845 
L 102.356489 140.629109 
L 103.44229 142.137728 
L 104.528092 142.040829 
L 105.613893 144.76313 
L 106.699694 144.04678 
L 107.785495 144.042332 
L 108.871296 145.529533 
L 109.957097 145.096939 
L 111.042898 145.142329 
L 112.1287 146.848142 
L 114.300302 148.682044 
L 115.386103 147.847451 
L 116.471904 149.922885 
L 118.643507 149.392867 
L 119.729308 149.829187 
L 120.815109 151.03012 
L 121.90091 151.075511 
L 122.986711 149.560225 
L 124.072512 152.361027 
L 125.158314 150.584122 
L 126.244115 152.651372 
L 127.329916 150.835778 
L 128.415717 153.019114 
L 129.501518 152.124318 
L 130.587319 152.137235 
L 131.67312 153.56352 
L 132.758922 153.406478 
L 133.844723 154.01939 
L 134.930524 156.05266 
L 136.016325 154.389873 
L 137.102126 155.349771 
L 138.187927 155.208659 
L 139.273729 154.673756 
L 140.35953 156.541966 
L 141.445331 156.387797 
L 142.531132 155.301802 
L 143.616933 156.016543 
L 144.702734 156.586374 
L 145.788535 158.07443 
L 146.874337 157.893726 
L 147.960138 156.608887 
L 149.045939 158.026419 
L 150.13174 157.861098 
L 151.217541 157.445624 
L 152.303342 158.351683 
L 153.389144 157.746286 
L 154.474945 157.758488 
L 155.560746 159.432271 
L 156.646547 159.623756 
L 157.732348 159.426737 
L 158.818149 159.405619 
L 159.90395 158.888325 
L 162.075553 160.696128 
L 163.161354 159.137104 
L 164.247155 160.175225 
L 165.332956 159.791241 
L 166.418757 159.6645 
L 167.504559 160.936654 
L 168.59036 160.228245 
L 169.676161 160.246432 
L 170.761962 161.574341 
L 171.847763 160.43543 
L 172.933564 161.995958 
L 174.019365 161.55217 
L 175.105167 162.128395 
L 176.190968 160.68442 
L 177.276769 161.60449 
L 178.36257 163.1128 
L 179.448371 163.120259 
L 180.534172 160.86816 
L 181.619974 162.257547 
L 182.705775 162.504764 
L 183.791576 162.432885 
L 184.877377 162.622962 
L 185.963178 161.85597 
L 187.048979 163.847011 
L 188.134781 162.559835 
L 189.220582 162.53557 
L 190.306383 162.335627 
L 191.392184 163.118766 
L 192.477985 164.171916 
L 193.563786 162.608368 
L 194.649587 163.069625 
L 195.735389 162.510162 
L 196.82119 164.406973 
L 197.906991 163.376252 
L 198.992792 163.486759 
L 200.078593 163.218064 
L 201.164394 165.558593 
L 202.250196 163.944369 
L 203.335997 164.174088 
L 204.421798 165.315427 
L 205.507599 164.361546 
L 206.5934 164.182763 
L 207.679201 163.063541 
L 208.765002 164.541135 
L 209.850804 164.197085 
L 210.936605 165.018017 
L 212.022406 165.437193 
L 213.108207 164.184774 
L 214.194008 164.652068 
L 215.279809 165.26112 
L 216.365611 164.58655 
L 217.451412 164.278991 
L 218.537213 164.881244 
L 219.623014 164.687951 
L 220.708815 165.416321 
L 221.794616 165.080797 
L 223.966219 164.939921 
L 225.05202 166.019681 
L 226.137821 165.153454 
L 227.223622 164.505703 
L 228.309423 167.212095 
L 229.395224 166.2189 
L 230.481026 165.805699 
L 231.566827 165.655495 
L 232.652628 166.068149 
L 233.738429 165.696316 
L 234.82423 165.904218 
L 235.910031 165.787552 
L 236.995833 166.099129 
L 238.081634 166.008723 
L 239.167435 165.043345 
L 240.253236 165.795914 
L 241.339037 165.963665 
L 242.424838 165.964742 
L 243.510639 166.609709 
L 244.596441 166.909769 
L 245.682242 165.31004 
L 246.768043 166.646172 
L 247.853844 166.766748 
L 248.939645 165.514268 
L 250.025446 166.899819 
L 251.111248 166.309688 
L 252.197049 167.654398 
L 253.28285 167.530059 
L 254.368651 165.446342 
L 255.454452 166.61364 
L 256.540253 166.187652 
L 257.626054 166.991976 
L 259.797657 165.519864 
L 260.883458 166.347866 
L 261.969259 166.537108 
L 263.05506 167.780347 
L 264.140861 167.408502 
L 265.226663 166.890614 
L 266.312464 165.529417 
L 267.398265 166.632191 
L 268.484066 165.984918 
L 269.569867 167.178729 
L 270.655668 166.398518 
L 271.741469 167.817153 
L 272.827271 166.953322 
L 273.913072 167.661083 
L 274.998873 166.147847 
L 276.084674 166.533114 
L 277.170475 168.554961 
L 278.256276 167.494042 
L 279.342078 167.7527 
L 280.427879 166.366814 
L 281.51368 168.020531 
L 283.685282 168.313487 
L 284.771083 166.147268 
L 285.856885 167.236607 
L 286.942686 167.752819 
L 288.028487 166.875044 
L 289.114288 168.687424 
L 290.200089 167.111697 
L 291.28589 166.260164 
L 292.371691 168.344562 
L 293.457493 166.607625 
L 294.543294 167.740911 
L 295.629095 167.186651 
L 296.714896 167.66665 
L 297.800697 167.870436 
L 298.886498 169.000933 
L 299.9723 167.162488 
L 301.058101 167.4035 
L 302.143902 166.385552 
L 303.229703 168.225193 
L 304.315504 167.534402 
L 305.401305 167.77259 
L 306.487106 166.779298 
L 307.572908 166.765752 
L 308.658709 167.157378 
L 309.74451 167.00838 
L 310.830311 167.546622 
L 311.916112 167.089215 
L 313.001913 167.212816 
L 314.087715 168.488657 
L 315.173516 167.41514 
L 316.259317 168.396492 
L 317.345118 168.202957 
L 319.51672 167.550687 
L 320.602521 166.918163 
L 321.688323 166.944565 
L 322.774124 167.536996 
L 323.859925 167.599798 
L 324.945726 168.116874 
L 326.031527 168.181557 
L 327.117328 168.062693 
L 328.20313 167.495531 
L 329.288931 168.20638 
L 330.374732 167.783623 
L 331.460533 168.885291 
L 332.546334 168.895582 
L 333.632135 167.123384 
L 334.717936 167.378275 
L 335.803738 167.782735 
L 336.889539 167.769972 
L 337.97534 167.49611 
L 339.061141 168.786699 
L 340.146942 167.287714 
L 341.232743 167.524916 
L 342.318545 167.434645 
L 343.404346 168.726834 
L 344.490147 166.949801 
L 345.575948 168.45722 
L 346.661749 168.023568 
L 347.74755 167.205978 
L 348.833352 167.818626 
L 349.919153 168.062797 
L 351.004954 167.158157 
L 352.090755 168.099092 
L 353.176556 168.294384 
L 354.262357 168.114154 
L 355.348158 168.635611 
L 356.43396 168.326162 
L 357.519761 168.495346 
L 358.605562 168.437249 
L 359.691363 168.653248 
L 360.777164 166.929456 
L 361.862965 168.265593 
L 362.948767 167.782031 
L 364.034568 167.796849 
L 365.120369 168.184621 
L 366.20617 167.633514 
L 367.291971 166.839133 
L 368.377772 167.521401 
L 369.463573 167.205284 
L 370.549375 167.849947 
L 371.635176 168.109132 
L 372.720977 168.063735 
L 373.806778 167.485235 
L 374.892579 168.12374 
L 375.97838 168.015403 
L 378.149983 167.43688 
L 380.321585 168.292774 
L 381.407386 168.999171 
L 382.493187 167.728504 
L 383.578988 168.811521 
L 384.66479 167.489323 
L 385.750591 169.041203 
L 386.836392 168.170483 
L 387.922193 167.906818 
L 389.007994 169.112198 
L 390.093795 169.786548 
L 391.179597 167.86875 
L 392.265398 167.858219 
L 392.265398 167.858219 
" clip-path="url(#pda89bab86f)" style="fill: none; stroke: #1f77b4; stroke-width: 1.5; stroke-linecap: square"/>
   </g>
   <g id="line2d_31">
    <path d="M 67.610852 70.208256 
L 68.696653 115.154658 
L 69.782455 143.108266 
L 70.868256 147.264717 
L 71.954057 130.647763 
L 73.039858 169.473574 
L 74.125659 170.245457 
L 75.21146 163.908864 
L 76.297262 136.422318 
L 77.383063 149.880868 
L 78.468864 188.69618 
L 79.554665 202.840455 
L 80.640466 172.545822 
L 81.726267 191.865103 
L 82.812068 208.492264 
L 83.89787 211.307686 
L 84.983671 202.152789 
L 86.069472 201.073166 
L 87.155273 212.321524 
L 88.241074 221.510572 
L 89.326875 206.498429 
L 90.412677 221.734825 
L 91.498478 197.441118 
L 92.584279 212.136419 
L 93.67008 207.76601 
L 94.755881 229.331734 
L 95.841682 218.852522 
L 96.927483 219.996523 
L 98.013285 214.567 
L 99.099086 225.321596 
L 100.184887 230.45445 
L 101.270688 225.744929 
L 102.356489 240.574002 
L 103.44229 234.100136 
L 104.528092 214.857464 
L 105.613893 236.873775 
L 106.699694 230.383753 
L 107.785495 237.284733 
L 108.871296 212.173004 
L 109.957097 209.861341 
L 111.042898 229.753925 
L 112.1287 234.050014 
L 113.214501 245.586064 
L 114.300302 242.227201 
L 115.386103 246.924239 
L 116.471904 245.59522 
L 117.557705 241.459659 
L 118.643507 243.453086 
L 119.729308 236.353062 
L 120.815109 239.185726 
L 121.90091 244.000608 
L 122.986711 251.073693 
L 124.072512 242.081614 
L 125.158314 245.567403 
L 126.244115 251.209333 
L 127.329916 255.325862 
L 128.415717 242.546414 
L 129.501518 235.572893 
L 130.587319 249.69121 
L 131.67312 242.440619 
L 132.758922 255.432841 
L 133.844723 253.859469 
L 134.930524 246.379252 
L 136.016325 262.926809 
L 137.102126 240.599739 
L 138.187927 256.047877 
L 139.273729 259.411059 
L 140.35953 258.902221 
L 141.445331 248.929868 
L 142.531132 258.315175 
L 143.616933 255.956464 
L 144.702734 246.501724 
L 145.788535 259.592442 
L 146.874337 251.830038 
L 147.960138 260.533124 
L 149.045939 256.556109 
L 150.13174 257.180106 
L 151.217541 266.928456 
L 152.303342 269.249901 
L 153.389144 260.585599 
L 154.474945 260.59526 
L 155.560746 263.24467 
L 156.646547 254.463931 
L 157.732348 254.308137 
L 158.818149 258.101153 
L 159.90395 259.368261 
L 160.989752 263.536409 
L 162.075553 268.838247 
L 163.161354 265.400725 
L 164.247155 263.595113 
L 165.332956 265.331241 
L 166.418757 269.048609 
L 167.504559 262.847195 
L 168.59036 261.197995 
L 169.676161 260.104954 
L 170.761962 262.760085 
L 171.847763 259.829379 
L 172.933564 265.943974 
L 174.019365 263.226664 
L 175.105167 263.883059 
L 176.190968 266.508477 
L 177.276769 260.919928 
L 178.36257 272.673833 
L 179.448371 265.085648 
L 180.534172 267.711358 
L 181.619974 262.210841 
L 182.705775 268.727093 
L 183.791576 264.503229 
L 184.877377 263.456597 
L 185.963178 267.626613 
L 187.048979 266.72853 
L 188.134781 263.982814 
L 189.220582 266.155046 
L 190.306383 267.168263 
L 191.392184 268.36404 
L 192.477985 273.494122 
L 193.563786 271.924156 
L 194.649587 272.305081 
L 195.735389 276.050362 
L 196.82119 268.232347 
L 197.906991 266.805911 
L 198.992792 270.00922 
L 200.078593 272.107486 
L 201.164394 269.389065 
L 202.250196 272.20667 
L 203.335997 273.569282 
L 204.421798 271.842038 
L 205.507599 275.495713 
L 206.5934 273.158742 
L 207.679201 272.773393 
L 208.765002 272.820444 
L 209.850804 272.095807 
L 210.936605 274.559316 
L 212.022406 271.518787 
L 213.108207 270.294017 
L 214.194008 272.725211 
L 215.279809 271.674719 
L 216.365611 271.048249 
L 217.451412 270.836469 
L 218.537213 268.674698 
L 219.623014 271.788736 
L 220.708815 270.7894 
L 221.794616 271.236191 
L 222.880417 273.09541 
L 223.966219 272.509745 
L 225.05202 271.428047 
L 226.137821 271.679661 
L 227.223622 270.903733 
L 228.309423 273.450301 
L 229.395224 271.263622 
L 230.481026 275.802479 
L 231.566827 271.500266 
L 232.652628 271.160213 
L 233.738429 271.214228 
L 234.82423 274.085627 
L 235.910031 268.370552 
L 236.995833 270.167509 
L 238.081634 272.494827 
L 239.167435 271.05713 
L 240.253236 271.616848 
L 241.339037 272.603761 
L 242.424838 271.989692 
L 243.510639 273.306905 
L 244.596441 270.75749 
L 245.682242 272.401883 
L 246.768043 270.714357 
L 247.853844 271.787281 
L 248.939645 275.928887 
L 250.025446 273.544013 
L 251.111248 272.313821 
L 252.197049 272.652042 
L 253.28285 273.952077 
L 254.368651 273.497765 
L 255.454452 273.515409 
L 256.540253 273.156314 
L 257.626054 272.487304 
L 258.711856 272.203841 
L 259.797657 272.130457 
L 260.883458 273.501659 
L 263.05506 274.40242 
L 264.140861 271.907646 
L 265.226663 271.386729 
L 266.312464 274.478643 
L 267.398265 273.534863 
L 268.484066 272.057857 
L 269.569867 272.869014 
L 270.655668 272.158686 
L 271.741469 273.084228 
L 272.827271 271.663457 
L 273.913072 273.683665 
L 274.998873 274.643233 
L 276.084674 273.118076 
L 277.170475 274.411312 
L 278.256276 276.334125 
L 279.342078 273.082013 
L 280.427879 273.301663 
L 281.51368 271.834808 
L 282.599481 272.784167 
L 283.685282 272.976601 
L 284.771083 274.472881 
L 285.856885 275.740662 
L 286.942686 275.586389 
L 288.028487 274.533996 
L 290.200089 275.953961 
L 291.28589 275.502278 
L 292.371691 273.753064 
L 293.457493 273.723786 
L 294.543294 272.529061 
L 295.629095 274.908544 
L 296.714896 275.767679 
L 297.800697 273.880174 
L 298.886498 274.913881 
L 299.9723 274.48795 
L 301.058101 275.198071 
L 302.143902 274.539232 
L 303.229703 274.777671 
L 304.315504 275.510775 
L 305.401305 274.759592 
L 306.487106 274.243683 
L 307.572908 274.99629 
L 308.658709 273.812181 
L 309.74451 273.752917 
L 310.830311 274.962034 
L 311.916112 275.343062 
L 313.001913 274.161793 
L 314.087715 274.915581 
L 315.173516 274.071874 
L 316.259317 275.165503 
L 317.345118 274.504171 
L 318.430919 274.74376 
L 319.51672 274.605028 
L 320.602521 275.67823 
L 321.688323 275.125562 
L 322.774124 275.423184 
L 323.859925 275.397461 
L 324.945726 275.905366 
L 326.031527 275.224577 
L 327.117328 275.539502 
L 328.20313 275.219166 
L 329.288931 275.147971 
L 330.374732 273.889326 
L 331.460533 275.829467 
L 332.546334 275.425176 
L 333.632135 275.683442 
L 334.717936 275.253045 
L 335.803738 275.96205 
L 337.97534 275.085728 
L 339.061141 275.383977 
L 340.146942 275.416901 
L 341.232743 274.760119 
L 342.318545 273.778552 
L 343.404346 275.477971 
L 344.490147 274.484457 
L 345.575948 275.520418 
L 346.661749 273.391455 
L 347.74755 273.642757 
L 348.833352 275.118026 
L 349.919153 275.013588 
L 351.004954 275.161008 
L 352.090755 274.156265 
L 353.176556 275.234385 
L 354.262357 275.319991 
L 355.348158 274.750802 
L 356.43396 275.099658 
L 357.519761 274.215574 
L 358.605562 275.090185 
L 359.691363 275.52672 
L 360.777164 274.805341 
L 361.862965 274.335576 
L 364.034568 274.234325 
L 365.120369 273.789106 
L 366.20617 274.850597 
L 367.291971 273.792683 
L 368.377772 274.219487 
L 369.463573 273.953698 
L 370.549375 274.186662 
L 371.635176 275.167353 
L 372.720977 274.832425 
L 373.806778 274.223791 
L 374.892579 275.314272 
L 375.97838 274.274524 
L 377.064182 275.374674 
L 378.149983 275.871443 
L 379.235784 274.495346 
L 380.321585 275.207906 
L 381.407386 275.139414 
L 382.493187 275.190124 
L 383.578988 274.763939 
L 384.66479 275.913102 
L 385.750591 274.985429 
L 386.836392 275.2178 
L 387.922193 273.907731 
L 389.007994 274.904339 
L 390.093795 275.349707 
L 391.179597 276.055087 
L 392.265398 274.6835 
L 392.265398 274.6835 
" clip-path="url(#pda89bab86f)" style="fill: none; stroke: #ff7f0e; stroke-width: 1.5; stroke-linecap: square"/>
   </g>
   <g id="patch_3">
    <path d="M 51.378125 288.430125 
L 51.378125 22.318125 
" style="fill: none; stroke: #000000; stroke-width: 0.8; stroke-linejoin: miter; stroke-linecap: square"/>
   </g>
   <g id="patch_4">
    <path d="M 408.498125 288.430125 
L 408.498125 22.318125 
" style="fill: none; stroke: #000000; stroke-width: 0.8; stroke-linejoin: miter; stroke-linecap: square"/>
   </g>
   <g id="patch_5">
    <path d="M 51.378125 288.430125 
L 408.498125 288.430125 
" style="fill: none; stroke: #000000; stroke-width: 0.8; stroke-linejoin: miter; stroke-linecap: square"/>
   </g>
   <g id="patch_6">
    <path d="M 51.378125 22.318125 
L 408.498125 22.318125 
" style="fill: none; stroke: #000000; stroke-width: 0.8; stroke-linejoin: miter; stroke-linecap: square"/>
   </g>
   <g id="text_13">
    <!-- Loss curves -->
    <g transform="translate(194.93375 16.318125) scale(0.12 -0.12)">
     <defs>
      <path id="DejaVuSans-4c" d="M 628 4666 
L 1259 4666 
L 1259 531 
L 3531 531 
L 3531 0 
L 628 0 
L 628 4666 
z
" transform="scale(0.015625)"/>
      <path id="DejaVuSans-75" d="M 544 1381 
L 544 3500 
L 1119 3500 
L 1119 1403 
Q 1119 906 1312 657 
Q 1506 409 1894 409 
Q 2359 409 2629 706 
Q 2900 1003 2900 1516 
L 2900 3500 
L 3475 3500 
L 3475 0 
L 2900 0 
L 2900 538 
Q 2691 219 2414 64 
Q 2138 -91 1772 -91 
Q 1169 -91 856 284 
Q 544 659 544 1381 
z
M 1991 3584 
L 1991 3584 
z
" transform="scale(0.015625)"/>
      <path id="DejaVuSans-76" d="M 191 3500 
L 800 3500 
L 1894 563 
L 2988 3500 
L 3597 3500 
L 2284 0 
L 1503 0 
L 191 3500 
z
" transform="scale(0.015625)"/>
     </defs>
     <use xlink:href="#DejaVuSans-4c"/>
     <use xlink:href="#DejaVuSans-6f" x="53.962891"/>
     <use xlink:href="#DejaVuSans-73" x="115.144531"/>
     <use xlink:href="#DejaVuSans-73" x="167.244141"/>
     <use xlink:href="#DejaVuSans-20" x="219.34375"/>
     <use xlink:href="#DejaVuSans-63" x="251.130859"/>
     <use xlink:href="#DejaVuSans-75" x="306.111328"/>
     <use xlink:href="#DejaVuSans-72" x="369.490234"/>
     <use xlink:href="#DejaVuSans-76" x="410.603516"/>
     <use xlink:href="#DejaVuSans-65" x="469.783203"/>
     <use xlink:href="#DejaVuSans-73" x="531.306641"/>
    </g>
   </g>
   <g id="legend_1">
    <g id="patch_7">
     <path d="M 264.021563 59.674375 
L 401.498125 59.674375 
Q 403.498125 59.674375 403.498125 57.674375 
L 403.498125 29.318125 
Q 403.498125 27.318125 401.498125 27.318125 
L 264.021563 27.318125 
Q 262.021563 27.318125 262.021563 29.318125 
L 262.021563 57.674375 
Q 262.021563 59.674375 264.021563 59.674375 
z
" style="fill: #ffffff; opacity: 0.8; stroke: #cccccc; stroke-linejoin: miter"/>
    </g>
    <g id="line2d_32">
     <path d="M 266.021563 35.416562 
L 276.021563 35.416562 
L 286.021563 35.416562 
" style="fill: none; stroke: #1f77b4; stroke-width: 1.5; stroke-linecap: square"/>
    </g>
    <g id="text_14">
     <!-- Average training loss -->
     <g transform="translate(294.021563 38.916562) scale(0.1 -0.1)">
      <defs>
       <path id="DejaVuSans-41" d="M 2188 4044 
L 1331 1722 
L 3047 1722 
L 2188 4044 
z
M 1831 4666 
L 2547 4666 
L 4325 0 
L 3669 0 
L 3244 1197 
L 1141 1197 
L 716 0 
L 50 0 
L 1831 4666 
z
" transform="scale(0.015625)"/>
       <path id="DejaVuSans-61" d="M 2194 1759 
Q 1497 1759 1228 1600 
Q 959 1441 959 1056 
Q 959 750 1161 570 
Q 1363 391 1709 391 
Q 2188 391 2477 730 
Q 2766 1069 2766 1631 
L 2766 1759 
L 2194 1759 
z
M 3341 1997 
L 3341 0 
L 2766 0 
L 2766 531 
Q 2569 213 2275 61 
Q 1981 -91 1556 -91 
Q 1019 -91 701 211 
Q 384 513 384 1019 
Q 384 1609 779 1909 
Q 1175 2209 1959 2209 
L 2766 2209 
L 2766 2266 
Q 2766 2663 2505 2880 
Q 2244 3097 1772 3097 
Q 1472 3097 1187 3025 
Q 903 2953 641 2809 
L 641 3341 
Q 956 3463 1253 3523 
Q 1550 3584 1831 3584 
Q 2591 3584 2966 3190 
Q 3341 2797 3341 1997 
z
" transform="scale(0.015625)"/>
       <path id="DejaVuSans-67" d="M 2906 1791 
Q 2906 2416 2648 2759 
Q 2391 3103 1925 3103 
Q 1463 3103 1205 2759 
Q 947 2416 947 1791 
Q 947 1169 1205 825 
Q 1463 481 1925 481 
Q 2391 481 2648 825 
Q 2906 1169 2906 1791 
z
M 3481 434 
Q 3481 -459 3084 -895 
Q 2688 -1331 1869 -1331 
Q 1566 -1331 1297 -1286 
Q 1028 -1241 775 -1147 
L 775 -588 
Q 1028 -725 1275 -790 
Q 1522 -856 1778 -856 
Q 2344 -856 2625 -561 
Q 2906 -266 2906 331 
L 2906 616 
Q 2728 306 2450 153 
Q 2172 0 1784 0 
Q 1141 0 747 490 
Q 353 981 353 1791 
Q 353 2603 747 3093 
Q 1141 3584 1784 3584 
Q 2172 3584 2450 3431 
Q 2728 3278 2906 2969 
L 2906 3500 
L 3481 3500 
L 3481 434 
z
" transform="scale(0.015625)"/>
       <path id="DejaVuSans-69" d="M 603 3500 
L 1178 3500 
L 1178 0 
L 603 0 
L 603 3500 
z
M 603 4863 
L 1178 4863 
L 1178 4134 
L 603 4134 
L 603 4863 
z
" transform="scale(0.015625)"/>
      </defs>
      <use xlink:href="#DejaVuSans-41"/>
      <use xlink:href="#DejaVuSans-76" x="62.533203"/>
      <use xlink:href="#DejaVuSans-65" x="121.712891"/>
      <use xlink:href="#DejaVuSans-72" x="183.236328"/>
      <use xlink:href="#DejaVuSans-61" x="224.349609"/>
      <use xlink:href="#DejaVuSans-67" x="285.628906"/>
      <use xlink:href="#DejaVuSans-65" x="349.105469"/>
      <use xlink:href="#DejaVuSans-20" x="410.628906"/>
      <use xlink:href="#DejaVuSans-74" x="442.416016"/>
      <use xlink:href="#DejaVuSans-72" x="481.625"/>
      <use xlink:href="#DejaVuSans-61" x="522.738281"/>
      <use xlink:href="#DejaVuSans-69" x="584.017578"/>
      <use xlink:href="#DejaVuSans-6e" x="611.800781"/>
      <use xlink:href="#DejaVuSans-69" x="675.179688"/>
      <use xlink:href="#DejaVuSans-6e" x="702.962891"/>
      <use xlink:href="#DejaVuSans-67" x="766.341797"/>
      <use xlink:href="#DejaVuSans-20" x="829.818359"/>
      <use xlink:href="#DejaVuSans-6c" x="861.605469"/>
      <use xlink:href="#DejaVuSans-6f" x="889.388672"/>
      <use xlink:href="#DejaVuSans-73" x="950.570312"/>
      <use xlink:href="#DejaVuSans-73" x="1002.669922"/>
     </g>
    </g>
    <g id="line2d_33">
     <path d="M 266.021563 50.094687 
L 276.021563 50.094687 
L 286.021563 50.094687 
" style="fill: none; stroke: #ff7f0e; stroke-width: 1.5; stroke-linecap: square"/>
    </g>
    <g id="text_15">
     <!-- Test loss -->
     <g transform="translate(294.021563 53.594687) scale(0.1 -0.1)">
      <defs>
       <path id="DejaVuSans-54" d="M -19 4666 
L 3928 4666 
L 3928 4134 
L 2272 4134 
L 2272 0 
L 1638 0 
L 1638 4134 
L -19 4134 
L -19 4666 
z
" transform="scale(0.015625)"/>
      </defs>
      <use xlink:href="#DejaVuSans-54"/>
      <use xlink:href="#DejaVuSans-65" x="44.083984"/>
      <use xlink:href="#DejaVuSans-73" x="105.607422"/>
      <use xlink:href="#DejaVuSans-74" x="157.707031"/>
      <use xlink:href="#DejaVuSans-20" x="196.916016"/>
      <use xlink:href="#DejaVuSans-6c" x="228.703125"/>
      <use xlink:href="#DejaVuSans-6f" x="256.486328"/>
      <use xlink:href="#DejaVuSans-73" x="317.667969"/>
      <use xlink:href="#DejaVuSans-73" x="369.767578"/>
     </g>
    </g>
   </g>
  </g>
 </g>
 <defs>
  <clipPath id="pda89bab86f">
   <rect x="51.378125" y="22.318125" width="357.12" height="266.112"/>
  </clipPath>
 </defs>
</svg>
