<?xml version="1.0" encoding="utf-8" standalone="no"?>
<!DOCTYPE svg PUBLIC "-//W3C//DTD SVG 1.1//EN"
  "http://www.w3.org/Graphics/SVG/1.1/DTD/svg11.dtd">
<svg xmlns:xlink="http://www.w3.org/1999/xlink" width="415.698125pt" height="325.986375pt" viewBox="0 0 415.698125 325.986375" xmlns="http://www.w3.org/2000/svg" version="1.1">
 <metadata>
  <rdf:RDF xmlns:dc="http://purl.org/dc/elements/1.1/" xmlns:cc="http://creativecommons.org/ns#" xmlns:rdf="http://www.w3.org/1999/02/22-rdf-syntax-ns#">
   <cc:Work>
    <dc:type rdf:resource="http://purl.org/dc/dcmitype/StillImage"/>
    <dc:date>2024-06-13T14:41:19.530694</dc:date>
    <dc:format>image/svg+xml</dc:format>
    <dc:creator>
     <cc:Agent>
      <dc:title>Matplotlib v3.9.0, https://matplotlib.org/</dc:title>
     </cc:Agent>
    </dc:creator>
   </cc:Work>
  </rdf:RDF>
 </metadata>
 <defs>
  <style type="text/css">*{stroke-linejoin: round; stroke-linecap: butt}</style>
 </defs>
 <g id="figure_1">
  <g id="patch_1">
   <path d="M 0 325.986375 
L 415.698125 325.986375 
L 415.698125 0 
L 0 0 
z
" style="fill: #ffffff"/>
  </g>
  <g id="axes_1">
   <g id="patch_2">
    <path d="M 51.378125 288.430125 
L 408.498125 288.430125 
L 408.498125 22.318125 
L 51.378125 22.318125 
z
" style="fill: #ffffff"/>
   </g>
   <g id="matplotlib.axis_1">
    <g id="xtick_1">
     <g id="line2d_1">
      <defs>
       <path id="mfba07fce8a" d="M 0 0 
L 0 3.5 
" style="stroke: #000000; stroke-width: 0.8"/>
      </defs>
      <g>
       <use xlink:href="#mfba07fce8a" x="66.525051" y="288.430125" style="stroke: #000000; stroke-width: 0.8"/>
      </g>
     </g>
     <g id="text_1">
      <!-- 0 -->
      <g transform="translate(63.343801 303.028562) scale(0.1 -0.1)">
       <defs>
        <path id="DejaVuSans-30" d="M 2034 4250 
Q 1547 4250 1301 3770 
Q 1056 3291 1056 2328 
Q 1056 1369 1301 889 
Q 1547 409 2034 409 
Q 2525 409 2770 889 
Q 3016 1369 3016 2328 
Q 3016 3291 2770 3770 
Q 2525 4250 2034 4250 
z
M 2034 4750 
Q 2819 4750 3233 4129 
Q 3647 3509 3647 2328 
Q 3647 1150 3233 529 
Q 2819 -91 2034 -91 
Q 1250 -91 836 529 
Q 422 1150 422 2328 
Q 422 3509 836 4129 
Q 1250 4750 2034 4750 
z
" transform="scale(0.015625)"/>
       </defs>
       <use xlink:href="#DejaVuSans-30"/>
      </g>
     </g>
    </g>
    <g id="xtick_2">
     <g id="line2d_2">
      <g>
       <use xlink:href="#mfba07fce8a" x="120.815109" y="288.430125" style="stroke: #000000; stroke-width: 0.8"/>
      </g>
     </g>
     <g id="text_2">
      <!-- 50 -->
      <g transform="translate(114.452609 303.028562) scale(0.1 -0.1)">
       <defs>
        <path id="DejaVuSans-35" d="M 691 4666 
L 3169 4666 
L 3169 4134 
L 1269 4134 
L 1269 2991 
Q 1406 3038 1543 3061 
Q 1681 3084 1819 3084 
Q 2600 3084 3056 2656 
Q 3513 2228 3513 1497 
Q 3513 744 3044 326 
Q 2575 -91 1722 -91 
Q 1428 -91 1123 -41 
Q 819 9 494 109 
L 494 744 
Q 775 591 1075 516 
Q 1375 441 1709 441 
Q 2250 441 2565 725 
Q 2881 1009 2881 1497 
Q 2881 1984 2565 2268 
Q 2250 2553 1709 2553 
Q 1456 2553 1204 2497 
Q 953 2441 691 2322 
L 691 4666 
z
" transform="scale(0.015625)"/>
       </defs>
       <use xlink:href="#DejaVuSans-35"/>
       <use xlink:href="#DejaVuSans-30" x="63.623047"/>
      </g>
     </g>
    </g>
    <g id="xtick_3">
     <g id="line2d_3">
      <g>
       <use xlink:href="#mfba07fce8a" x="175.105167" y="288.430125" style="stroke: #000000; stroke-width: 0.8"/>
      </g>
     </g>
     <g id="text_3">
      <!-- 100 -->
      <g transform="translate(165.561417 303.028562) scale(0.1 -0.1)">
       <defs>
        <path id="DejaVuSans-31" d="M 794 531 
L 1825 531 
L 1825 4091 
L 703 3866 
L 703 4441 
L 1819 4666 
L 2450 4666 
L 2450 531 
L 3481 531 
L 3481 0 
L 794 0 
L 794 531 
z
" transform="scale(0.015625)"/>
       </defs>
       <use xlink:href="#DejaVuSans-31"/>
       <use xlink:href="#DejaVuSans-30" x="63.623047"/>
       <use xlink:href="#DejaVuSans-30" x="127.246094"/>
      </g>
     </g>
    </g>
    <g id="xtick_4">
     <g id="line2d_4">
      <g>
       <use xlink:href="#mfba07fce8a" x="229.395224" y="288.430125" style="stroke: #000000; stroke-width: 0.8"/>
      </g>
     </g>
     <g id="text_4">
      <!-- 150 -->
      <g transform="translate(219.851474 303.028562) scale(0.1 -0.1)">
       <use xlink:href="#DejaVuSans-31"/>
       <use xlink:href="#DejaVuSans-35" x="63.623047"/>
       <use xlink:href="#DejaVuSans-30" x="127.246094"/>
      </g>
     </g>
    </g>
    <g id="xtick_5">
     <g id="line2d_5">
      <g>
       <use xlink:href="#mfba07fce8a" x="283.685282" y="288.430125" style="stroke: #000000; stroke-width: 0.8"/>
      </g>
     </g>
     <g id="text_5">
      <!-- 200 -->
      <g transform="translate(274.141532 303.028562) scale(0.1 -0.1)">
       <defs>
        <path id="DejaVuSans-32" d="M 1228 531 
L 3431 531 
L 3431 0 
L 469 0 
L 469 531 
Q 828 903 1448 1529 
Q 2069 2156 2228 2338 
Q 2531 2678 2651 2914 
Q 2772 3150 2772 3378 
Q 2772 3750 2511 3984 
Q 2250 4219 1831 4219 
Q 1534 4219 1204 4116 
Q 875 4013 500 3803 
L 500 4441 
Q 881 4594 1212 4672 
Q 1544 4750 1819 4750 
Q 2544 4750 2975 4387 
Q 3406 4025 3406 3419 
Q 3406 3131 3298 2873 
Q 3191 2616 2906 2266 
Q 2828 2175 2409 1742 
Q 1991 1309 1228 531 
z
" transform="scale(0.015625)"/>
       </defs>
       <use xlink:href="#DejaVuSans-32"/>
       <use xlink:href="#DejaVuSans-30" x="63.623047"/>
       <use xlink:href="#DejaVuSans-30" x="127.246094"/>
      </g>
     </g>
    </g>
    <g id="xtick_6">
     <g id="line2d_6">
      <g>
       <use xlink:href="#mfba07fce8a" x="337.97534" y="288.430125" style="stroke: #000000; stroke-width: 0.8"/>
      </g>
     </g>
     <g id="text_6">
      <!-- 250 -->
      <g transform="translate(328.43159 303.028562) scale(0.1 -0.1)">
       <use xlink:href="#DejaVuSans-32"/>
       <use xlink:href="#DejaVuSans-35" x="63.623047"/>
       <use xlink:href="#DejaVuSans-30" x="127.246094"/>
      </g>
     </g>
    </g>
    <g id="xtick_7">
     <g id="line2d_7">
      <g>
       <use xlink:href="#mfba07fce8a" x="392.265398" y="288.430125" style="stroke: #000000; stroke-width: 0.8"/>
      </g>
     </g>
     <g id="text_7">
      <!-- 300 -->
      <g transform="translate(382.721648 303.028562) scale(0.1 -0.1)">
       <defs>
        <path id="DejaVuSans-33" d="M 2597 2516 
Q 3050 2419 3304 2112 
Q 3559 1806 3559 1356 
Q 3559 666 3084 287 
Q 2609 -91 1734 -91 
Q 1441 -91 1130 -33 
Q 819 25 488 141 
L 488 750 
Q 750 597 1062 519 
Q 1375 441 1716 441 
Q 2309 441 2620 675 
Q 2931 909 2931 1356 
Q 2931 1769 2642 2001 
Q 2353 2234 1838 2234 
L 1294 2234 
L 1294 2753 
L 1863 2753 
Q 2328 2753 2575 2939 
Q 2822 3125 2822 3475 
Q 2822 3834 2567 4026 
Q 2313 4219 1838 4219 
Q 1578 4219 1281 4162 
Q 984 4106 628 3988 
L 628 4550 
Q 988 4650 1302 4700 
Q 1616 4750 1894 4750 
Q 2613 4750 3031 4423 
Q 3450 4097 3450 3541 
Q 3450 3153 3228 2886 
Q 3006 2619 2597 2516 
z
" transform="scale(0.015625)"/>
       </defs>
       <use xlink:href="#DejaVuSans-33"/>
       <use xlink:href="#DejaVuSans-30" x="63.623047"/>
       <use xlink:href="#DejaVuSans-30" x="127.246094"/>
      </g>
     </g>
    </g>
    <g id="text_8">
     <!-- Epoch -->
     <g transform="translate(214.627188 316.706687) scale(0.1 -0.1)">
      <defs>
       <path id="DejaVuSans-45" d="M 628 4666 
L 3578 4666 
L 3578 4134 
L 1259 4134 
L 1259 2753 
L 3481 2753 
L 3481 2222 
L 1259 2222 
L 1259 531 
L 3634 531 
L 3634 0 
L 628 0 
L 628 4666 
z
" transform="scale(0.015625)"/>
       <path id="DejaVuSans-70" d="M 1159 525 
L 1159 -1331 
L 581 -1331 
L 581 3500 
L 1159 3500 
L 1159 2969 
Q 1341 3281 1617 3432 
Q 1894 3584 2278 3584 
Q 2916 3584 3314 3078 
Q 3713 2572 3713 1747 
Q 3713 922 3314 415 
Q 2916 -91 2278 -91 
Q 1894 -91 1617 61 
Q 1341 213 1159 525 
z
M 3116 1747 
Q 3116 2381 2855 2742 
Q 2594 3103 2138 3103 
Q 1681 3103 1420 2742 
Q 1159 2381 1159 1747 
Q 1159 1113 1420 752 
Q 1681 391 2138 391 
Q 2594 391 2855 752 
Q 3116 1113 3116 1747 
z
" transform="scale(0.015625)"/>
       <path id="DejaVuSans-6f" d="M 1959 3097 
Q 1497 3097 1228 2736 
Q 959 2375 959 1747 
Q 959 1119 1226 758 
Q 1494 397 1959 397 
Q 2419 397 2687 759 
Q 2956 1122 2956 1747 
Q 2956 2369 2687 2733 
Q 2419 3097 1959 3097 
z
M 1959 3584 
Q 2709 3584 3137 3096 
Q 3566 2609 3566 1747 
Q 3566 888 3137 398 
Q 2709 -91 1959 -91 
Q 1206 -91 779 398 
Q 353 888 353 1747 
Q 353 2609 779 3096 
Q 1206 3584 1959 3584 
z
" transform="scale(0.015625)"/>
       <path id="DejaVuSans-63" d="M 3122 3366 
L 3122 2828 
Q 2878 2963 2633 3030 
Q 2388 3097 2138 3097 
Q 1578 3097 1268 2742 
Q 959 2388 959 1747 
Q 959 1106 1268 751 
Q 1578 397 2138 397 
Q 2388 397 2633 464 
Q 2878 531 3122 666 
L 3122 134 
Q 2881 22 2623 -34 
Q 2366 -91 2075 -91 
Q 1284 -91 818 406 
Q 353 903 353 1747 
Q 353 2603 823 3093 
Q 1294 3584 2113 3584 
Q 2378 3584 2631 3529 
Q 2884 3475 3122 3366 
z
" transform="scale(0.015625)"/>
       <path id="DejaVuSans-68" d="M 3513 2113 
L 3513 0 
L 2938 0 
L 2938 2094 
Q 2938 2591 2744 2837 
Q 2550 3084 2163 3084 
Q 1697 3084 1428 2787 
Q 1159 2491 1159 1978 
L 1159 0 
L 581 0 
L 581 4863 
L 1159 4863 
L 1159 2956 
Q 1366 3272 1645 3428 
Q 1925 3584 2291 3584 
Q 2894 3584 3203 3211 
Q 3513 2838 3513 2113 
z
" transform="scale(0.015625)"/>
      </defs>
      <use xlink:href="#DejaVuSans-45"/>
      <use xlink:href="#DejaVuSans-70" x="63.183594"/>
      <use xlink:href="#DejaVuSans-6f" x="126.660156"/>
      <use xlink:href="#DejaVuSans-63" x="187.841797"/>
      <use xlink:href="#DejaVuSans-68" x="242.822266"/>
     </g>
    </g>
   </g>
   <g id="matplotlib.axis_2">
    <g id="ytick_1">
     <g id="line2d_8">
      <defs>
       <path id="me954c70fba" d="M 0 0 
L -3.5 0 
" style="stroke: #000000; stroke-width: 0.8"/>
      </defs>
      <g>
       <use xlink:href="#me954c70fba" x="51.378125" y="278.748078" style="stroke: #000000; stroke-width: 0.8"/>
      </g>
     </g>
     <g id="text_9">
      <!-- $\mathdefault{10^{-2}}$ -->
      <g transform="translate(20.878125 282.547297) scale(0.1 -0.1)">
       <defs>
        <path id="DejaVuSans-2212" d="M 678 2272 
L 4684 2272 
L 4684 1741 
L 678 1741 
L 678 2272 
z
" transform="scale(0.015625)"/>
       </defs>
       <use xlink:href="#DejaVuSans-31" transform="translate(0 0.765625)"/>
       <use xlink:href="#DejaVuSans-30" transform="translate(63.623047 0.765625)"/>
       <use xlink:href="#DejaVuSans-2212" transform="translate(128.203125 39.046875) scale(0.7)"/>
       <use xlink:href="#DejaVuSans-32" transform="translate(186.855469 39.046875) scale(0.7)"/>
      </g>
     </g>
    </g>
    <g id="ytick_2">
     <g id="line2d_9">
      <g>
       <use xlink:href="#me954c70fba" x="51.378125" y="181.576133" style="stroke: #000000; stroke-width: 0.8"/>
      </g>
     </g>
     <g id="text_10">
      <!-- $\mathdefault{10^{-1}}$ -->
      <g transform="translate(20.878125 185.375352) scale(0.1 -0.1)">
       <use xlink:href="#DejaVuSans-31" transform="translate(0 0.684375)"/>
       <use xlink:href="#DejaVuSans-30" transform="translate(63.623047 0.684375)"/>
       <use xlink:href="#DejaVuSans-2212" transform="translate(128.203125 38.965625) scale(0.7)"/>
       <use xlink:href="#DejaVuSans-31" transform="translate(186.855469 38.965625) scale(0.7)"/>
      </g>
     </g>
    </g>
    <g id="ytick_3">
     <g id="line2d_10">
      <g>
       <use xlink:href="#me954c70fba" x="51.378125" y="84.404188" style="stroke: #000000; stroke-width: 0.8"/>
      </g>
     </g>
     <g id="text_11">
      <!-- $\mathdefault{10^{0}}$ -->
      <g transform="translate(26.778125 88.203407) scale(0.1 -0.1)">
       <use xlink:href="#DejaVuSans-31" transform="translate(0 0.765625)"/>
       <use xlink:href="#DejaVuSans-30" transform="translate(63.623047 0.765625)"/>
       <use xlink:href="#DejaVuSans-30" transform="translate(128.203125 39.046875) scale(0.7)"/>
      </g>
     </g>
    </g>
    <g id="ytick_4">
     <g id="line2d_11">
      <defs>
       <path id="ma9e1dde890" d="M 0 0 
L -2 0 
" style="stroke: #000000; stroke-width: 0.6"/>
      </defs>
      <g>
       <use xlink:href="#ma9e1dde890" x="51.378125" y="288.165012" style="stroke: #000000; stroke-width: 0.6"/>
      </g>
     </g>
    </g>
    <g id="ytick_5">
     <g id="line2d_12">
      <g>
       <use xlink:href="#ma9e1dde890" x="51.378125" y="283.194422" style="stroke: #000000; stroke-width: 0.6"/>
      </g>
     </g>
    </g>
    <g id="ytick_6">
     <g id="line2d_13">
      <g>
       <use xlink:href="#ma9e1dde890" x="51.378125" y="249.496408" style="stroke: #000000; stroke-width: 0.6"/>
      </g>
     </g>
    </g>
    <g id="ytick_7">
     <g id="line2d_14">
      <g>
       <use xlink:href="#ma9e1dde890" x="51.378125" y="232.385278" style="stroke: #000000; stroke-width: 0.6"/>
      </g>
     </g>
    </g>
    <g id="ytick_8">
     <g id="line2d_15">
      <g>
       <use xlink:href="#ma9e1dde890" x="51.378125" y="220.244738" style="stroke: #000000; stroke-width: 0.6"/>
      </g>
     </g>
    </g>
    <g id="ytick_9">
     <g id="line2d_16">
      <g>
       <use xlink:href="#ma9e1dde890" x="51.378125" y="210.827803" style="stroke: #000000; stroke-width: 0.6"/>
      </g>
     </g>
    </g>
    <g id="ytick_10">
     <g id="line2d_17">
      <g>
       <use xlink:href="#ma9e1dde890" x="51.378125" y="203.133607" style="stroke: #000000; stroke-width: 0.6"/>
      </g>
     </g>
    </g>
    <g id="ytick_11">
     <g id="line2d_18">
      <g>
       <use xlink:href="#ma9e1dde890" x="51.378125" y="196.628258" style="stroke: #000000; stroke-width: 0.6"/>
      </g>
     </g>
    </g>
    <g id="ytick_12">
     <g id="line2d_19">
      <g>
       <use xlink:href="#ma9e1dde890" x="51.378125" y="190.993067" style="stroke: #000000; stroke-width: 0.6"/>
      </g>
     </g>
    </g>
    <g id="ytick_13">
     <g id="line2d_20">
      <g>
       <use xlink:href="#ma9e1dde890" x="51.378125" y="186.022477" style="stroke: #000000; stroke-width: 0.6"/>
      </g>
     </g>
    </g>
    <g id="ytick_14">
     <g id="line2d_21">
      <g>
       <use xlink:href="#ma9e1dde890" x="51.378125" y="152.324463" style="stroke: #000000; stroke-width: 0.6"/>
      </g>
     </g>
    </g>
    <g id="ytick_15">
     <g id="line2d_22">
      <g>
       <use xlink:href="#ma9e1dde890" x="51.378125" y="135.213333" style="stroke: #000000; stroke-width: 0.6"/>
      </g>
     </g>
    </g>
    <g id="ytick_16">
     <g id="line2d_23">
      <g>
       <use xlink:href="#ma9e1dde890" x="51.378125" y="123.072793" style="stroke: #000000; stroke-width: 0.6"/>
      </g>
     </g>
    </g>
    <g id="ytick_17">
     <g id="line2d_24">
      <g>
       <use xlink:href="#ma9e1dde890" x="51.378125" y="113.655858" style="stroke: #000000; stroke-width: 0.6"/>
      </g>
     </g>
    </g>
    <g id="ytick_18">
     <g id="line2d_25">
      <g>
       <use xlink:href="#ma9e1dde890" x="51.378125" y="105.961662" style="stroke: #000000; stroke-width: 0.6"/>
      </g>
     </g>
    </g>
    <g id="ytick_19">
     <g id="line2d_26">
      <g>
       <use xlink:href="#ma9e1dde890" x="51.378125" y="99.456313" style="stroke: #000000; stroke-width: 0.6"/>
      </g>
     </g>
    </g>
    <g id="ytick_20">
     <g id="line2d_27">
      <g>
       <use xlink:href="#ma9e1dde890" x="51.378125" y="93.821122" style="stroke: #000000; stroke-width: 0.6"/>
      </g>
     </g>
    </g>
    <g id="ytick_21">
     <g id="line2d_28">
      <g>
       <use xlink:href="#ma9e1dde890" x="51.378125" y="88.850532" style="stroke: #000000; stroke-width: 0.6"/>
      </g>
     </g>
    </g>
    <g id="ytick_22">
     <g id="line2d_29">
      <g>
       <use xlink:href="#ma9e1dde890" x="51.378125" y="55.152518" style="stroke: #000000; stroke-width: 0.6"/>
      </g>
     </g>
    </g>
    <g id="ytick_23">
     <g id="line2d_30">
      <g>
       <use xlink:href="#ma9e1dde890" x="51.378125" y="38.041388" style="stroke: #000000; stroke-width: 0.6"/>
      </g>
     </g>
    </g>
    <g id="ytick_24">
     <g id="line2d_31">
      <g>
       <use xlink:href="#ma9e1dde890" x="51.378125" y="25.900848" style="stroke: #000000; stroke-width: 0.6"/>
      </g>
     </g>
    </g>
    <g id="text_12">
     <!-- Cross-entropy loss -->
     <g transform="translate(14.798438 201.469437) rotate(-90) scale(0.1 -0.1)">
      <defs>
       <path id="DejaVuSans-43" d="M 4122 4306 
L 4122 3641 
Q 3803 3938 3442 4084 
Q 3081 4231 2675 4231 
Q 1875 4231 1450 3742 
Q 1025 3253 1025 2328 
Q 1025 1406 1450 917 
Q 1875 428 2675 428 
Q 3081 428 3442 575 
Q 3803 722 4122 1019 
L 4122 359 
Q 3791 134 3420 21 
Q 3050 -91 2638 -91 
Q 1578 -91 968 557 
Q 359 1206 359 2328 
Q 359 3453 968 4101 
Q 1578 4750 2638 4750 
Q 3056 4750 3426 4639 
Q 3797 4528 4122 4306 
z
" transform="scale(0.015625)"/>
       <path id="DejaVuSans-72" d="M 2631 2963 
Q 2534 3019 2420 3045 
Q 2306 3072 2169 3072 
Q 1681 3072 1420 2755 
Q 1159 2438 1159 1844 
L 1159 0 
L 581 0 
L 581 3500 
L 1159 3500 
L 1159 2956 
Q 1341 3275 1631 3429 
Q 1922 3584 2338 3584 
Q 2397 3584 2469 3576 
Q 2541 3569 2628 3553 
L 2631 2963 
z
" transform="scale(0.015625)"/>
       <path id="DejaVuSans-73" d="M 2834 3397 
L 2834 2853 
Q 2591 2978 2328 3040 
Q 2066 3103 1784 3103 
Q 1356 3103 1142 2972 
Q 928 2841 928 2578 
Q 928 2378 1081 2264 
Q 1234 2150 1697 2047 
L 1894 2003 
Q 2506 1872 2764 1633 
Q 3022 1394 3022 966 
Q 3022 478 2636 193 
Q 2250 -91 1575 -91 
Q 1294 -91 989 -36 
Q 684 19 347 128 
L 347 722 
Q 666 556 975 473 
Q 1284 391 1588 391 
Q 1994 391 2212 530 
Q 2431 669 2431 922 
Q 2431 1156 2273 1281 
Q 2116 1406 1581 1522 
L 1381 1569 
Q 847 1681 609 1914 
Q 372 2147 372 2553 
Q 372 3047 722 3315 
Q 1072 3584 1716 3584 
Q 2034 3584 2315 3537 
Q 2597 3491 2834 3397 
z
" transform="scale(0.015625)"/>
       <path id="DejaVuSans-2d" d="M 313 2009 
L 1997 2009 
L 1997 1497 
L 313 1497 
L 313 2009 
z
" transform="scale(0.015625)"/>
       <path id="DejaVuSans-65" d="M 3597 1894 
L 3597 1613 
L 953 1613 
Q 991 1019 1311 708 
Q 1631 397 2203 397 
Q 2534 397 2845 478 
Q 3156 559 3463 722 
L 3463 178 
Q 3153 47 2828 -22 
Q 2503 -91 2169 -91 
Q 1331 -91 842 396 
Q 353 884 353 1716 
Q 353 2575 817 3079 
Q 1281 3584 2069 3584 
Q 2775 3584 3186 3129 
Q 3597 2675 3597 1894 
z
M 3022 2063 
Q 3016 2534 2758 2815 
Q 2500 3097 2075 3097 
Q 1594 3097 1305 2825 
Q 1016 2553 972 2059 
L 3022 2063 
z
" transform="scale(0.015625)"/>
       <path id="DejaVuSans-6e" d="M 3513 2113 
L 3513 0 
L 2938 0 
L 2938 2094 
Q 2938 2591 2744 2837 
Q 2550 3084 2163 3084 
Q 1697 3084 1428 2787 
Q 1159 2491 1159 1978 
L 1159 0 
L 581 0 
L 581 3500 
L 1159 3500 
L 1159 2956 
Q 1366 3272 1645 3428 
Q 1925 3584 2291 3584 
Q 2894 3584 3203 3211 
Q 3513 2838 3513 2113 
z
" transform="scale(0.015625)"/>
       <path id="DejaVuSans-74" d="M 1172 4494 
L 1172 3500 
L 2356 3500 
L 2356 3053 
L 1172 3053 
L 1172 1153 
Q 1172 725 1289 603 
Q 1406 481 1766 481 
L 2356 481 
L 2356 0 
L 1766 0 
Q 1100 0 847 248 
Q 594 497 594 1153 
L 594 3053 
L 172 3053 
L 172 3500 
L 594 3500 
L 594 4494 
L 1172 4494 
z
" transform="scale(0.015625)"/>
       <path id="DejaVuSans-79" d="M 2059 -325 
Q 1816 -950 1584 -1140 
Q 1353 -1331 966 -1331 
L 506 -1331 
L 506 -850 
L 844 -850 
Q 1081 -850 1212 -737 
Q 1344 -625 1503 -206 
L 1606 56 
L 191 3500 
L 800 3500 
L 1894 763 
L 2988 3500 
L 3597 3500 
L 2059 -325 
z
" transform="scale(0.015625)"/>
       <path id="DejaVuSans-20" transform="scale(0.015625)"/>
       <path id="DejaVuSans-6c" d="M 603 4863 
L 1178 4863 
L 1178 0 
L 603 0 
L 603 4863 
z
" transform="scale(0.015625)"/>
      </defs>
      <use xlink:href="#DejaVuSans-43"/>
      <use xlink:href="#DejaVuSans-72" x="69.824219"/>
      <use xlink:href="#DejaVuSans-6f" x="108.6875"/>
      <use xlink:href="#DejaVuSans-73" x="169.869141"/>
      <use xlink:href="#DejaVuSans-73" x="221.96875"/>
      <use xlink:href="#DejaVuSans-2d" x="274.068359"/>
      <use xlink:href="#DejaVuSans-65" x="310.152344"/>
      <use xlink:href="#DejaVuSans-6e" x="371.675781"/>
      <use xlink:href="#DejaVuSans-74" x="435.054688"/>
      <use xlink:href="#DejaVuSans-72" x="474.263672"/>
      <use xlink:href="#DejaVuSans-6f" x="513.126953"/>
      <use xlink:href="#DejaVuSans-70" x="574.308594"/>
      <use xlink:href="#DejaVuSans-79" x="637.785156"/>
      <use xlink:href="#DejaVuSans-20" x="696.964844"/>
      <use xlink:href="#DejaVuSans-6c" x="728.751953"/>
      <use xlink:href="#DejaVuSans-6f" x="756.535156"/>
      <use xlink:href="#DejaVuSans-73" x="817.716797"/>
      <use xlink:href="#DejaVuSans-73" x="869.816406"/>
     </g>
    </g>
   </g>
   <g id="line2d_32">
    <path d="M 67.610852 34.414125 
L 68.696653 87.562793 
L 69.782455 99.046165 
L 70.868256 106.070294 
L 71.954057 111.222351 
L 73.039858 115.275334 
L 74.125659 118.137108 
L 75.21146 122.689625 
L 76.297262 125.426253 
L 77.383063 126.866945 
L 80.640466 132.666319 
L 81.726267 133.502495 
L 82.812068 135.290363 
L 83.89787 136.092317 
L 84.983671 137.800642 
L 86.069472 138.321921 
L 88.241074 140.586418 
L 89.326875 141.560203 
L 90.412677 141.604274 
L 92.584279 144.73376 
L 93.67008 144.387889 
L 94.755881 145.811502 
L 95.841682 145.835383 
L 96.927483 146.544925 
L 98.013285 146.304091 
L 99.099086 147.992827 
L 100.184887 147.541213 
L 101.270688 149.70059 
L 102.356489 148.956928 
L 103.44229 149.463648 
L 104.528092 150.6897 
L 105.613893 150.630559 
L 106.699694 151.721326 
L 107.785495 152.522151 
L 108.871296 151.984218 
L 109.957097 152.922036 
L 111.042898 152.984686 
L 112.1287 152.802362 
L 113.214501 153.847383 
L 114.300302 153.539325 
L 115.386103 154.306264 
L 116.471904 154.285607 
L 117.557705 156.378655 
L 118.643507 155.057667 
L 120.815109 156.375876 
L 121.90091 156.201926 
L 122.986711 155.815817 
L 124.072512 156.562069 
L 125.158314 158.058809 
L 126.244115 158.153617 
L 127.329916 157.797529 
L 128.415717 157.317729 
L 129.501518 158.367797 
L 130.587319 158.822988 
L 131.67312 158.232415 
L 132.758922 159.002812 
L 133.844723 159.526411 
L 134.930524 160.230307 
L 136.016325 160.484427 
L 137.102126 159.399296 
L 138.187927 160.197127 
L 139.273729 159.929211 
L 140.35953 160.803054 
L 141.445331 161.262561 
L 142.531132 160.737085 
L 143.616933 161.430767 
L 144.702734 162.366575 
L 145.788535 161.637455 
L 146.874337 162.335604 
L 147.960138 161.678067 
L 149.045939 161.588862 
L 150.13174 162.147973 
L 151.217541 162.570755 
L 152.303342 162.527591 
L 153.389144 163.776871 
L 154.474945 162.671541 
L 155.560746 162.253958 
L 156.646547 163.522763 
L 157.732348 163.406364 
L 158.818149 164.761731 
L 159.90395 164.489492 
L 160.989752 163.896761 
L 163.161354 165.504144 
L 165.332956 165.519096 
L 166.418757 164.488983 
L 167.504559 164.319826 
L 168.59036 166.316663 
L 169.676161 165.721092 
L 170.761962 165.338838 
L 171.847763 165.917158 
L 172.933564 164.985971 
L 174.019365 165.194432 
L 175.105167 166.634415 
L 176.190968 166.559116 
L 179.448371 165.783535 
L 180.534172 166.96272 
L 181.619974 166.546036 
L 182.705775 165.929812 
L 183.791576 165.500815 
L 184.877377 166.975145 
L 187.048979 166.66912 
L 188.134781 166.765604 
L 189.220582 167.477296 
L 190.306383 167.638028 
L 191.392184 168.627679 
L 192.477985 168.071861 
L 193.563786 168.377255 
L 194.649587 167.744813 
L 195.735389 167.418754 
L 196.82119 168.46624 
L 197.906991 168.796837 
L 198.992792 166.868344 
L 200.078593 168.052384 
L 202.250196 168.456597 
L 203.335997 169.283176 
L 204.421798 168.363479 
L 205.507599 169.476074 
L 206.5934 168.446021 
L 207.679201 168.354299 
L 208.765002 168.833857 
L 209.850804 167.749844 
L 210.936605 169.675667 
L 212.022406 169.318284 
L 213.108207 168.656596 
L 214.194008 169.149393 
L 215.279809 169.220379 
L 216.365611 169.120573 
L 217.451412 169.341204 
L 218.537213 169.240653 
L 219.623014 169.299672 
L 220.708815 169.475834 
L 221.794616 168.878759 
L 222.880417 169.901373 
L 223.966219 169.522124 
L 225.05202 168.88566 
L 226.137821 170.923269 
L 227.223622 168.021212 
L 228.309423 169.417649 
L 229.395224 169.868985 
L 230.481026 170.193177 
L 231.566827 168.054346 
L 232.652628 170.549408 
L 233.738429 171.087851 
L 234.82423 171.204134 
L 235.910031 171.529334 
L 238.081634 169.921756 
L 239.167435 170.333003 
L 240.253236 169.903975 
L 242.424838 170.718269 
L 243.510639 170.548717 
L 244.596441 170.105565 
L 245.682242 170.960321 
L 246.768043 170.277112 
L 247.853844 169.877697 
L 250.025446 171.497261 
L 251.111248 170.916915 
L 253.28285 170.407542 
L 254.368651 170.823868 
L 256.540253 169.61371 
L 257.626054 171.420194 
L 258.711856 171.2145 
L 259.797657 171.333935 
L 261.969259 170.874181 
L 263.05506 171.288829 
L 264.140861 172.091624 
L 265.226663 172.117754 
L 266.312464 171.487237 
L 267.398265 169.580844 
L 268.484066 170.524244 
L 269.569867 170.134305 
L 270.655668 170.571183 
L 271.741469 171.744252 
L 272.827271 170.917954 
L 273.913072 170.716612 
L 274.998873 171.29848 
L 277.170475 170.671174 
L 278.256276 171.895026 
L 279.342078 170.825369 
L 280.427879 172.093391 
L 281.51368 171.104119 
L 282.599481 171.019523 
L 284.771083 172.158495 
L 285.856885 172.183236 
L 286.942686 171.280954 
L 288.028487 170.855947 
L 290.200089 171.936583 
L 291.28589 171.694995 
L 292.371691 172.45252 
L 293.457493 170.875756 
L 294.543294 171.324136 
L 295.629095 171.895144 
L 296.714896 171.232021 
L 297.800697 172.127561 
L 298.886498 170.880534 
L 299.9723 172.658877 
L 301.058101 171.82744 
L 302.143902 172.438847 
L 303.229703 171.12123 
L 304.315504 172.143588 
L 305.401305 171.443691 
L 306.487106 172.728768 
L 307.572908 171.651343 
L 308.658709 171.053001 
L 309.74451 172.043947 
L 310.830311 171.069316 
L 311.916112 172.163689 
L 313.001913 171.269923 
L 314.087715 172.401514 
L 315.173516 172.057007 
L 316.259317 171.556454 
L 317.345118 171.499095 
L 318.430919 171.129386 
L 319.51672 171.265333 
L 320.602521 172.038624 
L 321.688323 171.678051 
L 322.774124 171.737761 
L 323.859925 171.468088 
L 324.945726 172.191599 
L 326.031527 171.449988 
L 327.117328 172.10096 
L 328.20313 173.70354 
L 329.288931 172.887732 
L 330.374732 171.883031 
L 331.460533 172.054666 
L 332.546334 172.980082 
L 333.632135 172.095106 
L 334.717936 173.016775 
L 335.803738 173.026369 
L 336.889539 171.844759 
L 337.97534 171.820637 
L 339.061141 172.098415 
L 340.146942 172.895658 
L 341.232743 171.260517 
L 342.318545 173.006961 
L 343.404346 171.497918 
L 344.490147 172.315486 
L 345.575948 171.382092 
L 346.661749 173.346076 
L 347.74755 172.000696 
L 348.833352 171.673078 
L 349.919153 172.894672 
L 351.004954 172.737564 
L 352.090755 172.781972 
L 353.176556 171.810275 
L 354.262357 172.106404 
L 355.348158 170.768163 
L 356.43396 172.940486 
L 357.519761 172.443172 
L 358.605562 172.327638 
L 359.691363 172.661792 
L 360.777164 172.797828 
L 361.862965 171.819717 
L 362.948767 172.976684 
L 364.034568 172.060358 
L 365.120369 173.276263 
L 366.20617 171.805977 
L 367.291971 172.93118 
L 368.377772 172.531927 
L 369.463573 172.48649 
L 370.549375 171.67482 
L 371.635176 171.72081 
L 372.720977 172.005049 
L 373.806778 171.621496 
L 374.892579 172.715249 
L 375.97838 172.328202 
L 377.064182 171.504294 
L 378.149983 172.580526 
L 380.321585 172.105552 
L 381.407386 172.705087 
L 382.493187 171.881268 
L 383.578988 172.33015 
L 384.66479 172.012849 
L 385.750591 171.177653 
L 386.836392 171.944176 
L 389.007994 172.789199 
L 390.093795 171.91916 
L 391.179597 172.457729 
L 392.265398 172.234306 
L 392.265398 172.234306 
" clip-path="url(#p8fa086fe43)" style="fill: none; stroke: #1f77b4; stroke-width: 1.5; stroke-linecap: square"/>
   </g>
   <g id="line2d_33">
    <path d="M 67.610852 89.682307 
L 68.696653 148.572506 
L 69.782455 169.808425 
L 70.868256 175.610695 
L 71.954057 197.824372 
L 73.039858 192.592394 
L 74.125659 208.40852 
L 75.21146 211.224415 
L 76.297262 209.059551 
L 77.383063 213.759735 
L 78.468864 225.437775 
L 79.554665 223.471207 
L 80.640466 232.964844 
L 81.726267 230.65687 
L 82.812068 227.067693 
L 83.89787 233.127131 
L 84.983671 241.152477 
L 86.069472 235.590693 
L 87.155273 245.781902 
L 88.241074 245.609971 
L 89.326875 242.1597 
L 90.412677 242.474542 
L 91.498478 244.778168 
L 92.584279 243.74771 
L 93.67008 248.510221 
L 94.755881 251.566125 
L 95.841682 250.411961 
L 96.927483 251.135625 
L 98.013285 249.001735 
L 99.099086 248.934401 
L 100.184887 256.864198 
L 101.270688 249.733514 
L 102.356489 257.005548 
L 103.44229 245.598206 
L 104.528092 259.863583 
L 105.613893 254.178803 
L 106.699694 259.435983 
L 107.785495 259.637338 
L 108.871296 256.372287 
L 109.957097 260.655446 
L 111.042898 261.121186 
L 112.1287 256.988928 
L 113.214501 260.869146 
L 114.300302 255.061739 
L 115.386103 255.189911 
L 116.471904 258.921465 
L 117.557705 263.678932 
L 118.643507 261.957152 
L 119.729308 258.552475 
L 120.815109 263.18325 
L 121.90091 264.245535 
L 122.986711 267.819406 
L 124.072512 260.809765 
L 125.158314 263.126333 
L 126.244115 259.255706 
L 127.329916 266.149967 
L 128.415717 264.155066 
L 129.501518 265.920803 
L 130.587319 264.599348 
L 131.67312 264.309597 
L 132.758922 269.39312 
L 133.844723 271.40127 
L 134.930524 264.184079 
L 136.016325 263.91959 
L 137.102126 266.169286 
L 138.187927 265.57534 
L 139.273729 272.899822 
L 140.35953 264.806943 
L 141.445331 261.472851 
L 142.531132 266.98784 
L 143.616933 265.689981 
L 144.702734 266.827289 
L 145.788535 271.322662 
L 146.874337 264.9703 
L 147.960138 269.514599 
L 149.045939 266.767115 
L 150.13174 272.594801 
L 151.217541 266.311026 
L 152.303342 265.139856 
L 153.389144 266.354281 
L 154.474945 269.91738 
L 155.560746 264.588966 
L 156.646547 267.844029 
L 157.732348 268.438617 
L 158.818149 272.747682 
L 159.90395 270.013962 
L 160.989752 270.385022 
L 162.075553 269.200001 
L 164.247155 272.338017 
L 165.332956 271.32662 
L 166.418757 271.13683 
L 167.504559 268.760461 
L 168.59036 270.169259 
L 169.676161 270.137185 
L 170.761962 270.351861 
L 171.847763 268.665625 
L 172.933564 272.953564 
L 174.019365 272.429239 
L 175.105167 272.422189 
L 176.190968 270.084526 
L 177.276769 272.076551 
L 178.36257 272.503698 
L 179.448371 269.770212 
L 180.534172 269.888915 
L 181.619974 272.934447 
L 182.705775 273.348732 
L 183.791576 273.144759 
L 184.877377 272.631335 
L 185.963178 272.635899 
L 187.048979 276.334125 
L 188.134781 275.475459 
L 189.220582 273.194246 
L 190.306383 269.268582 
L 191.392184 273.408294 
L 192.477985 274.253393 
L 193.563786 276.238057 
L 194.649587 270.275 
L 195.735389 272.667528 
L 196.82119 268.405905 
L 197.906991 273.394102 
L 198.992792 270.958055 
L 200.078593 269.510113 
L 201.164394 275.849247 
L 202.250196 272.478443 
L 203.335997 273.118369 
L 204.421798 271.636136 
L 205.507599 271.618625 
L 206.5934 272.221427 
L 207.679201 272.126456 
L 208.765002 270.962142 
L 209.850804 274.481051 
L 210.936605 273.680996 
L 212.022406 270.54883 
L 213.108207 268.802125 
L 214.194008 271.068014 
L 215.279809 272.947228 
L 216.365611 274.322175 
L 217.451412 274.689677 
L 218.537213 270.928378 
L 219.623014 270.602723 
L 220.708815 272.654039 
L 221.794616 273.754041 
L 222.880417 275.106359 
L 223.966219 272.324712 
L 225.05202 273.623678 
L 226.137821 274.488416 
L 227.223622 271.995644 
L 228.309423 270.194889 
L 229.395224 271.579678 
L 230.481026 272.374906 
L 231.566827 271.785279 
L 232.652628 273.561539 
L 233.738429 270.690581 
L 234.82423 272.082642 
L 235.910031 274.053873 
L 236.995833 276.309297 
L 238.081634 274.817672 
L 239.167435 273.520703 
L 240.253236 274.568962 
L 241.339037 273.487207 
L 242.424838 271.637392 
L 243.510639 274.519724 
L 244.596441 272.747672 
L 245.682242 272.361694 
L 246.768043 272.642585 
L 247.853844 274.110892 
L 248.939645 273.949349 
L 250.025446 274.723245 
L 251.111248 273.798774 
L 252.197049 274.194806 
L 253.28285 273.160948 
L 254.368651 271.396351 
L 255.454452 272.858036 
L 256.540253 271.922941 
L 257.626054 274.432335 
L 258.711856 273.193899 
L 259.797657 275.444658 
L 260.883458 274.666808 
L 261.969259 274.479162 
L 263.05506 274.017564 
L 264.140861 274.318659 
L 265.226663 275.675148 
L 266.312464 273.594247 
L 267.398265 274.329453 
L 268.484066 274.038669 
L 269.569867 274.131146 
L 270.655668 272.504241 
L 271.741469 274.90718 
L 272.827271 274.345654 
L 273.913072 274.370005 
L 274.998873 273.568387 
L 276.084674 274.098335 
L 278.256276 272.872345 
L 279.342078 273.887851 
L 281.51368 272.520222 
L 282.599481 273.748152 
L 283.685282 272.950477 
L 284.771083 274.121124 
L 285.856885 274.126391 
L 286.942686 272.611462 
L 288.028487 272.934164 
L 289.114288 272.669918 
L 290.200089 273.061377 
L 291.28589 273.907725 
L 292.371691 272.90899 
L 294.543294 273.098889 
L 295.629095 273.89786 
L 296.714896 272.394898 
L 297.800697 273.009987 
L 298.886498 273.042809 
L 299.9723 274.103036 
L 301.058101 273.1821 
L 302.143902 273.358212 
L 303.229703 273.696401 
L 304.315504 274.725427 
L 305.401305 273.377899 
L 306.487106 274.072983 
L 307.572908 273.541994 
L 308.658709 273.199728 
L 309.74451 274.05766 
L 310.830311 272.819701 
L 311.916112 273.464469 
L 313.001913 273.705355 
L 314.087715 274.535899 
L 315.173516 272.690871 
L 316.259317 274.183392 
L 317.345118 274.370643 
L 318.430919 274.318061 
L 319.51672 273.849688 
L 320.602521 273.250033 
L 321.688323 273.390803 
L 322.774124 272.875137 
L 323.859925 274.284502 
L 324.945726 274.170689 
L 326.031527 273.669586 
L 327.117328 273.893022 
L 328.20313 273.258879 
L 329.288931 273.43165 
L 330.374732 274.514754 
L 331.460533 273.551183 
L 332.546334 273.325589 
L 333.632135 273.259789 
L 334.717936 273.3291 
L 335.803738 274.841501 
L 336.889539 274.261697 
L 337.97534 274.320783 
L 339.061141 273.783019 
L 340.146942 273.032719 
L 341.232743 274.194167 
L 342.318545 273.589348 
L 343.404346 272.853701 
L 344.490147 274.25202 
L 345.575948 273.326638 
L 346.661749 273.340257 
L 347.74755 273.072092 
L 348.833352 274.27063 
L 349.919153 273.293924 
L 351.004954 273.771448 
L 352.090755 273.728184 
L 353.176556 273.493038 
L 354.262357 273.061425 
L 355.348158 273.696919 
L 356.43396 274.729767 
L 357.519761 274.297892 
L 358.605562 273.377061 
L 359.691363 273.181167 
L 360.777164 274.072245 
L 361.862965 273.009846 
L 362.948767 274.72866 
L 364.034568 273.829509 
L 365.120369 274.013701 
L 367.291971 274.782767 
L 368.377772 274.176036 
L 369.463573 274.164881 
L 370.549375 274.412238 
L 371.635176 274.156175 
L 372.720977 274.145718 
L 373.806778 275.299051 
L 374.892579 273.966404 
L 375.97838 273.90937 
L 377.064182 274.090411 
L 378.149983 274.601505 
L 379.235784 274.819918 
L 380.321585 274.429166 
L 381.407386 273.428411 
L 382.493187 274.760507 
L 383.578988 273.465308 
L 384.66479 273.831862 
L 385.750591 274.421554 
L 386.836392 273.494999 
L 387.922193 274.698679 
L 389.007994 274.332286 
L 390.093795 275.402478 
L 391.179597 274.087697 
L 392.265398 274.260434 
L 392.265398 274.260434 
" clip-path="url(#p8fa086fe43)" style="fill: none; stroke: #ff7f0e; stroke-width: 1.5; stroke-linecap: square"/>
   </g>
   <g id="patch_3">
    <path d="M 51.378125 288.430125 
L 51.378125 22.318125 
" style="fill: none; stroke: #000000; stroke-width: 0.8; stroke-linejoin: miter; stroke-linecap: square"/>
   </g>
   <g id="patch_4">
    <path d="M 408.498125 288.430125 
L 408.498125 22.318125 
" style="fill: none; stroke: #000000; stroke-width: 0.8; stroke-linejoin: miter; stroke-linecap: square"/>
   </g>
   <g id="patch_5">
    <path d="M 51.378125 288.430125 
L 408.498125 288.430125 
" style="fill: none; stroke: #000000; stroke-width: 0.8; stroke-linejoin: miter; stroke-linecap: square"/>
   </g>
   <g id="patch_6">
    <path d="M 51.378125 22.318125 
L 408.498125 22.318125 
" style="fill: none; stroke: #000000; stroke-width: 0.8; stroke-linejoin: miter; stroke-linecap: square"/>
   </g>
   <g id="text_13">
    <!-- Loss curves -->
    <g transform="translate(194.93375 16.318125) scale(0.12 -0.12)">
     <defs>
      <path id="DejaVuSans-4c" d="M 628 4666 
L 1259 4666 
L 1259 531 
L 3531 531 
L 3531 0 
L 628 0 
L 628 4666 
z
" transform="scale(0.015625)"/>
      <path id="DejaVuSans-75" d="M 544 1381 
L 544 3500 
L 1119 3500 
L 1119 1403 
Q 1119 906 1312 657 
Q 1506 409 1894 409 
Q 2359 409 2629 706 
Q 2900 1003 2900 1516 
L 2900 3500 
L 3475 3500 
L 3475 0 
L 2900 0 
L 2900 538 
Q 2691 219 2414 64 
Q 2138 -91 1772 -91 
Q 1169 -91 856 284 
Q 544 659 544 1381 
z
M 1991 3584 
L 1991 3584 
z
" transform="scale(0.015625)"/>
      <path id="DejaVuSans-76" d="M 191 3500 
L 800 3500 
L 1894 563 
L 2988 3500 
L 3597 3500 
L 2284 0 
L 1503 0 
L 191 3500 
z
" transform="scale(0.015625)"/>
     </defs>
     <use xlink:href="#DejaVuSans-4c"/>
     <use xlink:href="#DejaVuSans-6f" x="53.962891"/>
     <use xlink:href="#DejaVuSans-73" x="115.144531"/>
     <use xlink:href="#DejaVuSans-73" x="167.244141"/>
     <use xlink:href="#DejaVuSans-20" x="219.34375"/>
     <use xlink:href="#DejaVuSans-63" x="251.130859"/>
     <use xlink:href="#DejaVuSans-75" x="306.111328"/>
     <use xlink:href="#DejaVuSans-72" x="369.490234"/>
     <use xlink:href="#DejaVuSans-76" x="410.603516"/>
     <use xlink:href="#DejaVuSans-65" x="469.783203"/>
     <use xlink:href="#DejaVuSans-73" x="531.306641"/>
    </g>
   </g>
   <g id="legend_1">
    <g id="patch_7">
     <path d="M 264.021563 59.674375 
L 401.498125 59.674375 
Q 403.498125 59.674375 403.498125 57.674375 
L 403.498125 29.318125 
Q 403.498125 27.318125 401.498125 27.318125 
L 264.021563 27.318125 
Q 262.021563 27.318125 262.021563 29.318125 
L 262.021563 57.674375 
Q 262.021563 59.674375 264.021563 59.674375 
z
" style="fill: #ffffff; opacity: 0.8; stroke: #cccccc; stroke-linejoin: miter"/>
    </g>
    <g id="line2d_34">
     <path d="M 266.021563 35.416562 
L 276.021563 35.416562 
L 286.021563 35.416562 
" style="fill: none; stroke: #1f77b4; stroke-width: 1.5; stroke-linecap: square"/>
    </g>
    <g id="text_14">
     <!-- Average training loss -->
     <g transform="translate(294.021563 38.916562) scale(0.1 -0.1)">
      <defs>
       <path id="DejaVuSans-41" d="M 2188 4044 
L 1331 1722 
L 3047 1722 
L 2188 4044 
z
M 1831 4666 
L 2547 4666 
L 4325 0 
L 3669 0 
L 3244 1197 
L 1141 1197 
L 716 0 
L 50 0 
L 1831 4666 
z
" transform="scale(0.015625)"/>
       <path id="DejaVuSans-61" d="M 2194 1759 
Q 1497 1759 1228 1600 
Q 959 1441 959 1056 
Q 959 750 1161 570 
Q 1363 391 1709 391 
Q 2188 391 2477 730 
Q 2766 1069 2766 1631 
L 2766 1759 
L 2194 1759 
z
M 3341 1997 
L 3341 0 
L 2766 0 
L 2766 531 
Q 2569 213 2275 61 
Q 1981 -91 1556 -91 
Q 1019 -91 701 211 
Q 384 513 384 1019 
Q 384 1609 779 1909 
Q 1175 2209 1959 2209 
L 2766 2209 
L 2766 2266 
Q 2766 2663 2505 2880 
Q 2244 3097 1772 3097 
Q 1472 3097 1187 3025 
Q 903 2953 641 2809 
L 641 3341 
Q 956 3463 1253 3523 
Q 1550 3584 1831 3584 
Q 2591 3584 2966 3190 
Q 3341 2797 3341 1997 
z
" transform="scale(0.015625)"/>
       <path id="DejaVuSans-67" d="M 2906 1791 
Q 2906 2416 2648 2759 
Q 2391 3103 1925 3103 
Q 1463 3103 1205 2759 
Q 947 2416 947 1791 
Q 947 1169 1205 825 
Q 1463 481 1925 481 
Q 2391 481 2648 825 
Q 2906 1169 2906 1791 
z
M 3481 434 
Q 3481 -459 3084 -895 
Q 2688 -1331 1869 -1331 
Q 1566 -1331 1297 -1286 
Q 1028 -1241 775 -1147 
L 775 -588 
Q 1028 -725 1275 -790 
Q 1522 -856 1778 -856 
Q 2344 -856 2625 -561 
Q 2906 -266 2906 331 
L 2906 616 
Q 2728 306 2450 153 
Q 2172 0 1784 0 
Q 1141 0 747 490 
Q 353 981 353 1791 
Q 353 2603 747 3093 
Q 1141 3584 1784 3584 
Q 2172 3584 2450 3431 
Q 2728 3278 2906 2969 
L 2906 3500 
L 3481 3500 
L 3481 434 
z
" transform="scale(0.015625)"/>
       <path id="DejaVuSans-69" d="M 603 3500 
L 1178 3500 
L 1178 0 
L 603 0 
L 603 3500 
z
M 603 4863 
L 1178 4863 
L 1178 4134 
L 603 4134 
L 603 4863 
z
" transform="scale(0.015625)"/>
      </defs>
      <use xlink:href="#DejaVuSans-41"/>
      <use xlink:href="#DejaVuSans-76" x="62.533203"/>
      <use xlink:href="#DejaVuSans-65" x="121.712891"/>
      <use xlink:href="#DejaVuSans-72" x="183.236328"/>
      <use xlink:href="#DejaVuSans-61" x="224.349609"/>
      <use xlink:href="#DejaVuSans-67" x="285.628906"/>
      <use xlink:href="#DejaVuSans-65" x="349.105469"/>
      <use xlink:href="#DejaVuSans-20" x="410.628906"/>
      <use xlink:href="#DejaVuSans-74" x="442.416016"/>
      <use xlink:href="#DejaVuSans-72" x="481.625"/>
      <use xlink:href="#DejaVuSans-61" x="522.738281"/>
      <use xlink:href="#DejaVuSans-69" x="584.017578"/>
      <use xlink:href="#DejaVuSans-6e" x="611.800781"/>
      <use xlink:href="#DejaVuSans-69" x="675.179688"/>
      <use xlink:href="#DejaVuSans-6e" x="702.962891"/>
      <use xlink:href="#DejaVuSans-67" x="766.341797"/>
      <use xlink:href="#DejaVuSans-20" x="829.818359"/>
      <use xlink:href="#DejaVuSans-6c" x="861.605469"/>
      <use xlink:href="#DejaVuSans-6f" x="889.388672"/>
      <use xlink:href="#DejaVuSans-73" x="950.570312"/>
      <use xlink:href="#DejaVuSans-73" x="1002.669922"/>
     </g>
    </g>
    <g id="line2d_35">
     <path d="M 266.021563 50.094687 
L 276.021563 50.094687 
L 286.021563 50.094687 
" style="fill: none; stroke: #ff7f0e; stroke-width: 1.5; stroke-linecap: square"/>
    </g>
    <g id="text_15">
     <!-- Test loss -->
     <g transform="translate(294.021563 53.594687) scale(0.1 -0.1)">
      <defs>
       <path id="DejaVuSans-54" d="M -19 4666 
L 3928 4666 
L 3928 4134 
L 2272 4134 
L 2272 0 
L 1638 0 
L 1638 4134 
L -19 4134 
L -19 4666 
z
" transform="scale(0.015625)"/>
      </defs>
      <use xlink:href="#DejaVuSans-54"/>
      <use xlink:href="#DejaVuSans-65" x="44.083984"/>
      <use xlink:href="#DejaVuSans-73" x="105.607422"/>
      <use xlink:href="#DejaVuSans-74" x="157.707031"/>
      <use xlink:href="#DejaVuSans-20" x="196.916016"/>
      <use xlink:href="#DejaVuSans-6c" x="228.703125"/>
      <use xlink:href="#DejaVuSans-6f" x="256.486328"/>
      <use xlink:href="#DejaVuSans-73" x="317.667969"/>
      <use xlink:href="#DejaVuSans-73" x="369.767578"/>
     </g>
    </g>
   </g>
  </g>
 </g>
 <defs>
  <clipPath id="p8fa086fe43">
   <rect x="51.378125" y="22.318125" width="357.12" height="266.112"/>
  </clipPath>
 </defs>
</svg>
