<?xml version="1.0" encoding="utf-8" standalone="no"?>
<!DOCTYPE svg PUBLIC "-//W3C//DTD SVG 1.1//EN"
  "http://www.w3.org/Graphics/SVG/1.1/DTD/svg11.dtd">
<svg xmlns:xlink="http://www.w3.org/1999/xlink" width="415.698125pt" height="325.986375pt" viewBox="0 0 415.698125 325.986375" xmlns="http://www.w3.org/2000/svg" version="1.1">
 <metadata>
  <rdf:RDF xmlns:dc="http://purl.org/dc/elements/1.1/" xmlns:cc="http://creativecommons.org/ns#" xmlns:rdf="http://www.w3.org/1999/02/22-rdf-syntax-ns#">
   <cc:Work>
    <dc:type rdf:resource="http://purl.org/dc/dcmitype/StillImage"/>
    <dc:date>2024-06-16T21:34:37.020140</dc:date>
    <dc:format>image/svg+xml</dc:format>
    <dc:creator>
     <cc:Agent>
      <dc:title>Matplotlib v3.9.0, https://matplotlib.org/</dc:title>
     </cc:Agent>
    </dc:creator>
   </cc:Work>
  </rdf:RDF>
 </metadata>
 <defs>
  <style type="text/css">*{stroke-linejoin: round; stroke-linecap: butt}</style>
 </defs>
 <g id="figure_1">
  <g id="patch_1">
   <path d="M 0 325.986375 
L 415.698125 325.986375 
L 415.698125 0 
L 0 0 
z
" style="fill: #ffffff"/>
  </g>
  <g id="axes_1">
   <g id="patch_2">
    <path d="M 51.378125 288.430125 
L 408.498125 288.430125 
L 408.498125 22.318125 
L 51.378125 22.318125 
z
" style="fill: #ffffff"/>
   </g>
   <g id="matplotlib.axis_1">
    <g id="xtick_1">
     <g id="line2d_1">
      <defs>
       <path id="mc59b2a3807" d="M 0 0 
L 0 3.5 
" style="stroke: #000000; stroke-width: 0.8"/>
      </defs>
      <g>
       <use xlink:href="#mc59b2a3807" x="66.525051" y="288.430125" style="stroke: #000000; stroke-width: 0.8"/>
      </g>
     </g>
     <g id="text_1">
      <!-- 0 -->
      <g transform="translate(63.343801 303.028562) scale(0.1 -0.1)">
       <defs>
        <path id="DejaVuSans-30" d="M 2034 4250 
Q 1547 4250 1301 3770 
Q 1056 3291 1056 2328 
Q 1056 1369 1301 889 
Q 1547 409 2034 409 
Q 2525 409 2770 889 
Q 3016 1369 3016 2328 
Q 3016 3291 2770 3770 
Q 2525 4250 2034 4250 
z
M 2034 4750 
Q 2819 4750 3233 4129 
Q 3647 3509 3647 2328 
Q 3647 1150 3233 529 
Q 2819 -91 2034 -91 
Q 1250 -91 836 529 
Q 422 1150 422 2328 
Q 422 3509 836 4129 
Q 1250 4750 2034 4750 
z
" transform="scale(0.015625)"/>
       </defs>
       <use xlink:href="#DejaVuSans-30"/>
      </g>
     </g>
    </g>
    <g id="xtick_2">
     <g id="line2d_2">
      <g>
       <use xlink:href="#mc59b2a3807" x="120.815109" y="288.430125" style="stroke: #000000; stroke-width: 0.8"/>
      </g>
     </g>
     <g id="text_2">
      <!-- 50 -->
      <g transform="translate(114.452609 303.028562) scale(0.1 -0.1)">
       <defs>
        <path id="DejaVuSans-35" d="M 691 4666 
L 3169 4666 
L 3169 4134 
L 1269 4134 
L 1269 2991 
Q 1406 3038 1543 3061 
Q 1681 3084 1819 3084 
Q 2600 3084 3056 2656 
Q 3513 2228 3513 1497 
Q 3513 744 3044 326 
Q 2575 -91 1722 -91 
Q 1428 -91 1123 -41 
Q 819 9 494 109 
L 494 744 
Q 775 591 1075 516 
Q 1375 441 1709 441 
Q 2250 441 2565 725 
Q 2881 1009 2881 1497 
Q 2881 1984 2565 2268 
Q 2250 2553 1709 2553 
Q 1456 2553 1204 2497 
Q 953 2441 691 2322 
L 691 4666 
z
" transform="scale(0.015625)"/>
       </defs>
       <use xlink:href="#DejaVuSans-35"/>
       <use xlink:href="#DejaVuSans-30" x="63.623047"/>
      </g>
     </g>
    </g>
    <g id="xtick_3">
     <g id="line2d_3">
      <g>
       <use xlink:href="#mc59b2a3807" x="175.105167" y="288.430125" style="stroke: #000000; stroke-width: 0.8"/>
      </g>
     </g>
     <g id="text_3">
      <!-- 100 -->
      <g transform="translate(165.561417 303.028562) scale(0.1 -0.1)">
       <defs>
        <path id="DejaVuSans-31" d="M 794 531 
L 1825 531 
L 1825 4091 
L 703 3866 
L 703 4441 
L 1819 4666 
L 2450 4666 
L 2450 531 
L 3481 531 
L 3481 0 
L 794 0 
L 794 531 
z
" transform="scale(0.015625)"/>
       </defs>
       <use xlink:href="#DejaVuSans-31"/>
       <use xlink:href="#DejaVuSans-30" x="63.623047"/>
       <use xlink:href="#DejaVuSans-30" x="127.246094"/>
      </g>
     </g>
    </g>
    <g id="xtick_4">
     <g id="line2d_4">
      <g>
       <use xlink:href="#mc59b2a3807" x="229.395224" y="288.430125" style="stroke: #000000; stroke-width: 0.8"/>
      </g>
     </g>
     <g id="text_4">
      <!-- 150 -->
      <g transform="translate(219.851474 303.028562) scale(0.1 -0.1)">
       <use xlink:href="#DejaVuSans-31"/>
       <use xlink:href="#DejaVuSans-35" x="63.623047"/>
       <use xlink:href="#DejaVuSans-30" x="127.246094"/>
      </g>
     </g>
    </g>
    <g id="xtick_5">
     <g id="line2d_5">
      <g>
       <use xlink:href="#mc59b2a3807" x="283.685282" y="288.430125" style="stroke: #000000; stroke-width: 0.8"/>
      </g>
     </g>
     <g id="text_5">
      <!-- 200 -->
      <g transform="translate(274.141532 303.028562) scale(0.1 -0.1)">
       <defs>
        <path id="DejaVuSans-32" d="M 1228 531 
L 3431 531 
L 3431 0 
L 469 0 
L 469 531 
Q 828 903 1448 1529 
Q 2069 2156 2228 2338 
Q 2531 2678 2651 2914 
Q 2772 3150 2772 3378 
Q 2772 3750 2511 3984 
Q 2250 4219 1831 4219 
Q 1534 4219 1204 4116 
Q 875 4013 500 3803 
L 500 4441 
Q 881 4594 1212 4672 
Q 1544 4750 1819 4750 
Q 2544 4750 2975 4387 
Q 3406 4025 3406 3419 
Q 3406 3131 3298 2873 
Q 3191 2616 2906 2266 
Q 2828 2175 2409 1742 
Q 1991 1309 1228 531 
z
" transform="scale(0.015625)"/>
       </defs>
       <use xlink:href="#DejaVuSans-32"/>
       <use xlink:href="#DejaVuSans-30" x="63.623047"/>
       <use xlink:href="#DejaVuSans-30" x="127.246094"/>
      </g>
     </g>
    </g>
    <g id="xtick_6">
     <g id="line2d_6">
      <g>
       <use xlink:href="#mc59b2a3807" x="337.97534" y="288.430125" style="stroke: #000000; stroke-width: 0.8"/>
      </g>
     </g>
     <g id="text_6">
      <!-- 250 -->
      <g transform="translate(328.43159 303.028562) scale(0.1 -0.1)">
       <use xlink:href="#DejaVuSans-32"/>
       <use xlink:href="#DejaVuSans-35" x="63.623047"/>
       <use xlink:href="#DejaVuSans-30" x="127.246094"/>
      </g>
     </g>
    </g>
    <g id="xtick_7">
     <g id="line2d_7">
      <g>
       <use xlink:href="#mc59b2a3807" x="392.265398" y="288.430125" style="stroke: #000000; stroke-width: 0.8"/>
      </g>
     </g>
     <g id="text_7">
      <!-- 300 -->
      <g transform="translate(382.721648 303.028562) scale(0.1 -0.1)">
       <defs>
        <path id="DejaVuSans-33" d="M 2597 2516 
Q 3050 2419 3304 2112 
Q 3559 1806 3559 1356 
Q 3559 666 3084 287 
Q 2609 -91 1734 -91 
Q 1441 -91 1130 -33 
Q 819 25 488 141 
L 488 750 
Q 750 597 1062 519 
Q 1375 441 1716 441 
Q 2309 441 2620 675 
Q 2931 909 2931 1356 
Q 2931 1769 2642 2001 
Q 2353 2234 1838 2234 
L 1294 2234 
L 1294 2753 
L 1863 2753 
Q 2328 2753 2575 2939 
Q 2822 3125 2822 3475 
Q 2822 3834 2567 4026 
Q 2313 4219 1838 4219 
Q 1578 4219 1281 4162 
Q 984 4106 628 3988 
L 628 4550 
Q 988 4650 1302 4700 
Q 1616 4750 1894 4750 
Q 2613 4750 3031 4423 
Q 3450 4097 3450 3541 
Q 3450 3153 3228 2886 
Q 3006 2619 2597 2516 
z
" transform="scale(0.015625)"/>
       </defs>
       <use xlink:href="#DejaVuSans-33"/>
       <use xlink:href="#DejaVuSans-30" x="63.623047"/>
       <use xlink:href="#DejaVuSans-30" x="127.246094"/>
      </g>
     </g>
    </g>
    <g id="text_8">
     <!-- Epoch -->
     <g transform="translate(214.627188 316.706687) scale(0.1 -0.1)">
      <defs>
       <path id="DejaVuSans-45" d="M 628 4666 
L 3578 4666 
L 3578 4134 
L 1259 4134 
L 1259 2753 
L 3481 2753 
L 3481 2222 
L 1259 2222 
L 1259 531 
L 3634 531 
L 3634 0 
L 628 0 
L 628 4666 
z
" transform="scale(0.015625)"/>
       <path id="DejaVuSans-70" d="M 1159 525 
L 1159 -1331 
L 581 -1331 
L 581 3500 
L 1159 3500 
L 1159 2969 
Q 1341 3281 1617 3432 
Q 1894 3584 2278 3584 
Q 2916 3584 3314 3078 
Q 3713 2572 3713 1747 
Q 3713 922 3314 415 
Q 2916 -91 2278 -91 
Q 1894 -91 1617 61 
Q 1341 213 1159 525 
z
M 3116 1747 
Q 3116 2381 2855 2742 
Q 2594 3103 2138 3103 
Q 1681 3103 1420 2742 
Q 1159 2381 1159 1747 
Q 1159 1113 1420 752 
Q 1681 391 2138 391 
Q 2594 391 2855 752 
Q 3116 1113 3116 1747 
z
" transform="scale(0.015625)"/>
       <path id="DejaVuSans-6f" d="M 1959 3097 
Q 1497 3097 1228 2736 
Q 959 2375 959 1747 
Q 959 1119 1226 758 
Q 1494 397 1959 397 
Q 2419 397 2687 759 
Q 2956 1122 2956 1747 
Q 2956 2369 2687 2733 
Q 2419 3097 1959 3097 
z
M 1959 3584 
Q 2709 3584 3137 3096 
Q 3566 2609 3566 1747 
Q 3566 888 3137 398 
Q 2709 -91 1959 -91 
Q 1206 -91 779 398 
Q 353 888 353 1747 
Q 353 2609 779 3096 
Q 1206 3584 1959 3584 
z
" transform="scale(0.015625)"/>
       <path id="DejaVuSans-63" d="M 3122 3366 
L 3122 2828 
Q 2878 2963 2633 3030 
Q 2388 3097 2138 3097 
Q 1578 3097 1268 2742 
Q 959 2388 959 1747 
Q 959 1106 1268 751 
Q 1578 397 2138 397 
Q 2388 397 2633 464 
Q 2878 531 3122 666 
L 3122 134 
Q 2881 22 2623 -34 
Q 2366 -91 2075 -91 
Q 1284 -91 818 406 
Q 353 903 353 1747 
Q 353 2603 823 3093 
Q 1294 3584 2113 3584 
Q 2378 3584 2631 3529 
Q 2884 3475 3122 3366 
z
" transform="scale(0.015625)"/>
       <path id="DejaVuSans-68" d="M 3513 2113 
L 3513 0 
L 2938 0 
L 2938 2094 
Q 2938 2591 2744 2837 
Q 2550 3084 2163 3084 
Q 1697 3084 1428 2787 
Q 1159 2491 1159 1978 
L 1159 0 
L 581 0 
L 581 4863 
L 1159 4863 
L 1159 2956 
Q 1366 3272 1645 3428 
Q 1925 3584 2291 3584 
Q 2894 3584 3203 3211 
Q 3513 2838 3513 2113 
z
" transform="scale(0.015625)"/>
      </defs>
      <use xlink:href="#DejaVuSans-45"/>
      <use xlink:href="#DejaVuSans-70" x="63.183594"/>
      <use xlink:href="#DejaVuSans-6f" x="126.660156"/>
      <use xlink:href="#DejaVuSans-63" x="187.841797"/>
      <use xlink:href="#DejaVuSans-68" x="242.822266"/>
     </g>
    </g>
   </g>
   <g id="matplotlib.axis_2">
    <g id="ytick_1">
     <g id="line2d_8">
      <defs>
       <path id="mdd8d76042a" d="M 0 0 
L -3.5 0 
" style="stroke: #000000; stroke-width: 0.8"/>
      </defs>
      <g>
       <use xlink:href="#mdd8d76042a" x="51.378125" y="280.007836" style="stroke: #000000; stroke-width: 0.8"/>
      </g>
     </g>
     <g id="text_9">
      <!-- $\mathdefault{10^{-2}}$ -->
      <g transform="translate(20.878125 283.807055) scale(0.1 -0.1)">
       <defs>
        <path id="DejaVuSans-2212" d="M 678 2272 
L 4684 2272 
L 4684 1741 
L 678 1741 
L 678 2272 
z
" transform="scale(0.015625)"/>
       </defs>
       <use xlink:href="#DejaVuSans-31" transform="translate(0 0.765625)"/>
       <use xlink:href="#DejaVuSans-30" transform="translate(63.623047 0.765625)"/>
       <use xlink:href="#DejaVuSans-2212" transform="translate(128.203125 39.046875) scale(0.7)"/>
       <use xlink:href="#DejaVuSans-32" transform="translate(186.855469 39.046875) scale(0.7)"/>
      </g>
     </g>
    </g>
    <g id="ytick_2">
     <g id="line2d_9">
      <g>
       <use xlink:href="#mdd8d76042a" x="51.378125" y="203.647979" style="stroke: #000000; stroke-width: 0.8"/>
      </g>
     </g>
     <g id="text_10">
      <!-- $\mathdefault{10^{-1}}$ -->
      <g transform="translate(20.878125 207.447198) scale(0.1 -0.1)">
       <use xlink:href="#DejaVuSans-31" transform="translate(0 0.684375)"/>
       <use xlink:href="#DejaVuSans-30" transform="translate(63.623047 0.684375)"/>
       <use xlink:href="#DejaVuSans-2212" transform="translate(128.203125 38.965625) scale(0.7)"/>
       <use xlink:href="#DejaVuSans-31" transform="translate(186.855469 38.965625) scale(0.7)"/>
      </g>
     </g>
    </g>
    <g id="ytick_3">
     <g id="line2d_10">
      <g>
       <use xlink:href="#mdd8d76042a" x="51.378125" y="127.288122" style="stroke: #000000; stroke-width: 0.8"/>
      </g>
     </g>
     <g id="text_11">
      <!-- $\mathdefault{10^{0}}$ -->
      <g transform="translate(26.778125 131.087341) scale(0.1 -0.1)">
       <use xlink:href="#DejaVuSans-31" transform="translate(0 0.765625)"/>
       <use xlink:href="#DejaVuSans-30" transform="translate(63.623047 0.765625)"/>
       <use xlink:href="#DejaVuSans-30" transform="translate(128.203125 39.046875) scale(0.7)"/>
      </g>
     </g>
    </g>
    <g id="ytick_4">
     <g id="line2d_11">
      <g>
       <use xlink:href="#mdd8d76042a" x="51.378125" y="50.928265" style="stroke: #000000; stroke-width: 0.8"/>
      </g>
     </g>
     <g id="text_12">
      <!-- $\mathdefault{10^{1}}$ -->
      <g transform="translate(26.778125 54.727484) scale(0.1 -0.1)">
       <use xlink:href="#DejaVuSans-31" transform="translate(0 0.684375)"/>
       <use xlink:href="#DejaVuSans-30" transform="translate(63.623047 0.684375)"/>
       <use xlink:href="#DejaVuSans-31" transform="translate(128.203125 38.965625) scale(0.7)"/>
      </g>
     </g>
    </g>
    <g id="ytick_5">
     <g id="line2d_12">
      <defs>
       <path id="m518bfcc458" d="M 0 0 
L -2 0 
" style="stroke: #000000; stroke-width: 0.6"/>
      </defs>
      <g>
       <use xlink:href="#m518bfcc458" x="51.378125" y="287.407871" style="stroke: #000000; stroke-width: 0.6"/>
      </g>
     </g>
    </g>
    <g id="ytick_6">
     <g id="line2d_13">
      <g>
       <use xlink:href="#m518bfcc458" x="51.378125" y="283.501872" style="stroke: #000000; stroke-width: 0.6"/>
      </g>
     </g>
    </g>
    <g id="ytick_7">
     <g id="line2d_14">
      <g>
       <use xlink:href="#m518bfcc458" x="51.378125" y="257.021229" style="stroke: #000000; stroke-width: 0.6"/>
      </g>
     </g>
    </g>
    <g id="ytick_8">
     <g id="line2d_15">
      <g>
       <use xlink:href="#m518bfcc458" x="51.378125" y="243.574925" style="stroke: #000000; stroke-width: 0.6"/>
      </g>
     </g>
    </g>
    <g id="ytick_9">
     <g id="line2d_16">
      <g>
       <use xlink:href="#m518bfcc458" x="51.378125" y="234.034621" style="stroke: #000000; stroke-width: 0.6"/>
      </g>
     </g>
    </g>
    <g id="ytick_10">
     <g id="line2d_17">
      <g>
       <use xlink:href="#m518bfcc458" x="51.378125" y="226.634587" style="stroke: #000000; stroke-width: 0.6"/>
      </g>
     </g>
    </g>
    <g id="ytick_11">
     <g id="line2d_18">
      <g>
       <use xlink:href="#m518bfcc458" x="51.378125" y="220.588318" style="stroke: #000000; stroke-width: 0.6"/>
      </g>
     </g>
    </g>
    <g id="ytick_12">
     <g id="line2d_19">
      <g>
       <use xlink:href="#m518bfcc458" x="51.378125" y="215.476271" style="stroke: #000000; stroke-width: 0.6"/>
      </g>
     </g>
    </g>
    <g id="ytick_13">
     <g id="line2d_20">
      <g>
       <use xlink:href="#m518bfcc458" x="51.378125" y="211.048014" style="stroke: #000000; stroke-width: 0.6"/>
      </g>
     </g>
    </g>
    <g id="ytick_14">
     <g id="line2d_21">
      <g>
       <use xlink:href="#m518bfcc458" x="51.378125" y="207.142015" style="stroke: #000000; stroke-width: 0.6"/>
      </g>
     </g>
    </g>
    <g id="ytick_15">
     <g id="line2d_22">
      <g>
       <use xlink:href="#m518bfcc458" x="51.378125" y="180.661372" style="stroke: #000000; stroke-width: 0.6"/>
      </g>
     </g>
    </g>
    <g id="ytick_16">
     <g id="line2d_23">
      <g>
       <use xlink:href="#m518bfcc458" x="51.378125" y="167.215068" style="stroke: #000000; stroke-width: 0.6"/>
      </g>
     </g>
    </g>
    <g id="ytick_17">
     <g id="line2d_24">
      <g>
       <use xlink:href="#m518bfcc458" x="51.378125" y="157.674764" style="stroke: #000000; stroke-width: 0.6"/>
      </g>
     </g>
    </g>
    <g id="ytick_18">
     <g id="line2d_25">
      <g>
       <use xlink:href="#m518bfcc458" x="51.378125" y="150.274729" style="stroke: #000000; stroke-width: 0.6"/>
      </g>
     </g>
    </g>
    <g id="ytick_19">
     <g id="line2d_26">
      <g>
       <use xlink:href="#m518bfcc458" x="51.378125" y="144.228461" style="stroke: #000000; stroke-width: 0.6"/>
      </g>
     </g>
    </g>
    <g id="ytick_20">
     <g id="line2d_27">
      <g>
       <use xlink:href="#m518bfcc458" x="51.378125" y="139.116414" style="stroke: #000000; stroke-width: 0.6"/>
      </g>
     </g>
    </g>
    <g id="ytick_21">
     <g id="line2d_28">
      <g>
       <use xlink:href="#m518bfcc458" x="51.378125" y="134.688157" style="stroke: #000000; stroke-width: 0.6"/>
      </g>
     </g>
    </g>
    <g id="ytick_22">
     <g id="line2d_29">
      <g>
       <use xlink:href="#m518bfcc458" x="51.378125" y="130.782157" style="stroke: #000000; stroke-width: 0.6"/>
      </g>
     </g>
    </g>
    <g id="ytick_23">
     <g id="line2d_30">
      <g>
       <use xlink:href="#m518bfcc458" x="51.378125" y="104.301515" style="stroke: #000000; stroke-width: 0.6"/>
      </g>
     </g>
    </g>
    <g id="ytick_24">
     <g id="line2d_31">
      <g>
       <use xlink:href="#m518bfcc458" x="51.378125" y="90.855211" style="stroke: #000000; stroke-width: 0.6"/>
      </g>
     </g>
    </g>
    <g id="ytick_25">
     <g id="line2d_32">
      <g>
       <use xlink:href="#m518bfcc458" x="51.378125" y="81.314907" style="stroke: #000000; stroke-width: 0.6"/>
      </g>
     </g>
    </g>
    <g id="ytick_26">
     <g id="line2d_33">
      <g>
       <use xlink:href="#m518bfcc458" x="51.378125" y="73.914872" style="stroke: #000000; stroke-width: 0.6"/>
      </g>
     </g>
    </g>
    <g id="ytick_27">
     <g id="line2d_34">
      <g>
       <use xlink:href="#m518bfcc458" x="51.378125" y="67.868604" style="stroke: #000000; stroke-width: 0.6"/>
      </g>
     </g>
    </g>
    <g id="ytick_28">
     <g id="line2d_35">
      <g>
       <use xlink:href="#m518bfcc458" x="51.378125" y="62.756556" style="stroke: #000000; stroke-width: 0.6"/>
      </g>
     </g>
    </g>
    <g id="ytick_29">
     <g id="line2d_36">
      <g>
       <use xlink:href="#m518bfcc458" x="51.378125" y="58.3283" style="stroke: #000000; stroke-width: 0.6"/>
      </g>
     </g>
    </g>
    <g id="ytick_30">
     <g id="line2d_37">
      <g>
       <use xlink:href="#m518bfcc458" x="51.378125" y="54.4223" style="stroke: #000000; stroke-width: 0.6"/>
      </g>
     </g>
    </g>
    <g id="ytick_31">
     <g id="line2d_38">
      <g>
       <use xlink:href="#m518bfcc458" x="51.378125" y="27.941657" style="stroke: #000000; stroke-width: 0.6"/>
      </g>
     </g>
    </g>
    <g id="text_13">
     <!-- Cross-entropy loss -->
     <g transform="translate(14.798438 201.469437) rotate(-90) scale(0.1 -0.1)">
      <defs>
       <path id="DejaVuSans-43" d="M 4122 4306 
L 4122 3641 
Q 3803 3938 3442 4084 
Q 3081 4231 2675 4231 
Q 1875 4231 1450 3742 
Q 1025 3253 1025 2328 
Q 1025 1406 1450 917 
Q 1875 428 2675 428 
Q 3081 428 3442 575 
Q 3803 722 4122 1019 
L 4122 359 
Q 3791 134 3420 21 
Q 3050 -91 2638 -91 
Q 1578 -91 968 557 
Q 359 1206 359 2328 
Q 359 3453 968 4101 
Q 1578 4750 2638 4750 
Q 3056 4750 3426 4639 
Q 3797 4528 4122 4306 
z
" transform="scale(0.015625)"/>
       <path id="DejaVuSans-72" d="M 2631 2963 
Q 2534 3019 2420 3045 
Q 2306 3072 2169 3072 
Q 1681 3072 1420 2755 
Q 1159 2438 1159 1844 
L 1159 0 
L 581 0 
L 581 3500 
L 1159 3500 
L 1159 2956 
Q 1341 3275 1631 3429 
Q 1922 3584 2338 3584 
Q 2397 3584 2469 3576 
Q 2541 3569 2628 3553 
L 2631 2963 
z
" transform="scale(0.015625)"/>
       <path id="DejaVuSans-73" d="M 2834 3397 
L 2834 2853 
Q 2591 2978 2328 3040 
Q 2066 3103 1784 3103 
Q 1356 3103 1142 2972 
Q 928 2841 928 2578 
Q 928 2378 1081 2264 
Q 1234 2150 1697 2047 
L 1894 2003 
Q 2506 1872 2764 1633 
Q 3022 1394 3022 966 
Q 3022 478 2636 193 
Q 2250 -91 1575 -91 
Q 1294 -91 989 -36 
Q 684 19 347 128 
L 347 722 
Q 666 556 975 473 
Q 1284 391 1588 391 
Q 1994 391 2212 530 
Q 2431 669 2431 922 
Q 2431 1156 2273 1281 
Q 2116 1406 1581 1522 
L 1381 1569 
Q 847 1681 609 1914 
Q 372 2147 372 2553 
Q 372 3047 722 3315 
Q 1072 3584 1716 3584 
Q 2034 3584 2315 3537 
Q 2597 3491 2834 3397 
z
" transform="scale(0.015625)"/>
       <path id="DejaVuSans-2d" d="M 313 2009 
L 1997 2009 
L 1997 1497 
L 313 1497 
L 313 2009 
z
" transform="scale(0.015625)"/>
       <path id="DejaVuSans-65" d="M 3597 1894 
L 3597 1613 
L 953 1613 
Q 991 1019 1311 708 
Q 1631 397 2203 397 
Q 2534 397 2845 478 
Q 3156 559 3463 722 
L 3463 178 
Q 3153 47 2828 -22 
Q 2503 -91 2169 -91 
Q 1331 -91 842 396 
Q 353 884 353 1716 
Q 353 2575 817 3079 
Q 1281 3584 2069 3584 
Q 2775 3584 3186 3129 
Q 3597 2675 3597 1894 
z
M 3022 2063 
Q 3016 2534 2758 2815 
Q 2500 3097 2075 3097 
Q 1594 3097 1305 2825 
Q 1016 2553 972 2059 
L 3022 2063 
z
" transform="scale(0.015625)"/>
       <path id="DejaVuSans-6e" d="M 3513 2113 
L 3513 0 
L 2938 0 
L 2938 2094 
Q 2938 2591 2744 2837 
Q 2550 3084 2163 3084 
Q 1697 3084 1428 2787 
Q 1159 2491 1159 1978 
L 1159 0 
L 581 0 
L 581 3500 
L 1159 3500 
L 1159 2956 
Q 1366 3272 1645 3428 
Q 1925 3584 2291 3584 
Q 2894 3584 3203 3211 
Q 3513 2838 3513 2113 
z
" transform="scale(0.015625)"/>
       <path id="DejaVuSans-74" d="M 1172 4494 
L 1172 3500 
L 2356 3500 
L 2356 3053 
L 1172 3053 
L 1172 1153 
Q 1172 725 1289 603 
Q 1406 481 1766 481 
L 2356 481 
L 2356 0 
L 1766 0 
Q 1100 0 847 248 
Q 594 497 594 1153 
L 594 3053 
L 172 3053 
L 172 3500 
L 594 3500 
L 594 4494 
L 1172 4494 
z
" transform="scale(0.015625)"/>
       <path id="DejaVuSans-79" d="M 2059 -325 
Q 1816 -950 1584 -1140 
Q 1353 -1331 966 -1331 
L 506 -1331 
L 506 -850 
L 844 -850 
Q 1081 -850 1212 -737 
Q 1344 -625 1503 -206 
L 1606 56 
L 191 3500 
L 800 3500 
L 1894 763 
L 2988 3500 
L 3597 3500 
L 2059 -325 
z
" transform="scale(0.015625)"/>
       <path id="DejaVuSans-20" transform="scale(0.015625)"/>
       <path id="DejaVuSans-6c" d="M 603 4863 
L 1178 4863 
L 1178 0 
L 603 0 
L 603 4863 
z
" transform="scale(0.015625)"/>
      </defs>
      <use xlink:href="#DejaVuSans-43"/>
      <use xlink:href="#DejaVuSans-72" x="69.824219"/>
      <use xlink:href="#DejaVuSans-6f" x="108.6875"/>
      <use xlink:href="#DejaVuSans-73" x="169.869141"/>
      <use xlink:href="#DejaVuSans-73" x="221.96875"/>
      <use xlink:href="#DejaVuSans-2d" x="274.068359"/>
      <use xlink:href="#DejaVuSans-65" x="310.152344"/>
      <use xlink:href="#DejaVuSans-6e" x="371.675781"/>
      <use xlink:href="#DejaVuSans-74" x="435.054688"/>
      <use xlink:href="#DejaVuSans-72" x="474.263672"/>
      <use xlink:href="#DejaVuSans-6f" x="513.126953"/>
      <use xlink:href="#DejaVuSans-70" x="574.308594"/>
      <use xlink:href="#DejaVuSans-79" x="637.785156"/>
      <use xlink:href="#DejaVuSans-20" x="696.964844"/>
      <use xlink:href="#DejaVuSans-6c" x="728.751953"/>
      <use xlink:href="#DejaVuSans-6f" x="756.535156"/>
      <use xlink:href="#DejaVuSans-73" x="817.716797"/>
      <use xlink:href="#DejaVuSans-73" x="869.816406"/>
     </g>
    </g>
   </g>
   <g id="line2d_39">
    <path d="M 67.610852 93.530999 
L 68.696653 119.370109 
L 69.782455 131.113163 
L 70.868256 136.798129 
L 71.954057 141.147685 
L 73.039858 144.461511 
L 74.125659 148.34527 
L 75.21146 149.528152 
L 76.297262 152.040504 
L 77.383063 154.906013 
L 78.468864 154.991938 
L 79.554665 157.267895 
L 80.640466 158.402511 
L 81.726267 159.838901 
L 82.812068 160.714254 
L 83.89787 161.850541 
L 84.983671 162.739413 
L 86.069472 165.106798 
L 87.155273 165.103798 
L 88.241074 166.29491 
L 89.326875 167.22814 
L 90.412677 167.252566 
L 91.498478 168.696505 
L 92.584279 169.221557 
L 94.755881 172.229044 
L 95.841682 171.544138 
L 96.927483 172.78047 
L 98.013285 173.062422 
L 99.099086 173.214892 
L 100.184887 174.551859 
L 101.270688 174.124082 
L 102.356489 175.152191 
L 103.44229 175.822176 
L 104.528092 175.770732 
L 105.613893 177.619248 
L 106.699694 176.912121 
L 107.785495 177.622538 
L 108.871296 177.752556 
L 109.957097 178.095662 
L 111.042898 178.017593 
L 112.1287 179.160988 
L 113.214501 179.551567 
L 114.300302 180.693783 
L 115.386103 180.539217 
L 116.471904 181.221973 
L 117.557705 180.829651 
L 118.643507 180.99149 
L 119.729308 182.446209 
L 120.815109 181.954076 
L 121.90091 182.065427 
L 122.986711 181.139727 
L 124.072512 182.642151 
L 125.158314 182.433684 
L 126.244115 183.462684 
L 127.329916 183.071074 
L 128.415717 183.60207 
L 130.587319 183.476381 
L 131.67312 184.042224 
L 133.844723 184.719307 
L 134.930524 186.38942 
L 136.016325 185.126316 
L 137.102126 186.016569 
L 138.187927 185.333504 
L 139.273729 185.217692 
L 140.35953 185.604781 
L 141.445331 186.511105 
L 142.531132 185.437769 
L 143.616933 185.714207 
L 145.788535 187.535018 
L 146.874337 187.855517 
L 147.960138 186.780225 
L 149.045939 187.804326 
L 150.13174 187.525835 
L 151.217541 187.014254 
L 152.303342 187.855362 
L 153.389144 188.206091 
L 154.474945 187.78495 
L 155.560746 188.510912 
L 157.732348 189.092007 
L 158.818149 188.372825 
L 159.90395 187.957877 
L 160.989752 189.149557 
L 162.075553 189.284971 
L 163.161354 188.567152 
L 164.247155 189.628433 
L 165.332956 189.755226 
L 166.418757 189.009884 
L 167.504559 189.869618 
L 168.59036 189.29592 
L 170.761962 190.342963 
L 171.847763 189.481753 
L 172.933564 190.80873 
L 174.019365 190.454329 
L 175.105167 190.346733 
L 176.190968 189.351264 
L 177.276769 190.305531 
L 178.36257 191.773288 
L 179.448371 191.211609 
L 180.534172 190.010925 
L 181.619974 190.429184 
L 182.705775 191.900042 
L 183.791576 191.374477 
L 185.963178 190.656348 
L 187.048979 191.967648 
L 188.134781 190.89755 
L 190.306383 191.008793 
L 191.392184 191.75644 
L 192.477985 192.665551 
L 193.563786 191.261306 
L 194.649587 191.822077 
L 195.735389 191.072546 
L 196.82119 192.707322 
L 197.906991 191.571212 
L 198.992792 191.566748 
L 200.078593 191.89986 
L 201.164394 193.30789 
L 202.250196 192.052698 
L 203.335997 192.134412 
L 204.421798 192.719098 
L 205.507599 192.520068 
L 206.5934 192.987564 
L 207.679201 191.317234 
L 208.765002 192.701779 
L 209.850804 192.227423 
L 210.936605 192.788239 
L 212.022406 193.033233 
L 213.108207 192.438442 
L 214.194008 192.90272 
L 215.279809 192.809568 
L 216.365611 192.877948 
L 217.451412 192.376505 
L 218.537213 192.602965 
L 219.623014 192.58895 
L 220.708815 193.253795 
L 221.794616 193.390558 
L 222.880417 193.091644 
L 223.966219 193.038698 
L 225.05202 193.978497 
L 227.223622 192.462369 
L 228.309423 194.601886 
L 229.395224 194.147218 
L 230.481026 193.301592 
L 231.566827 193.143097 
L 232.652628 193.829975 
L 233.738429 193.617706 
L 234.82423 193.916378 
L 235.910031 193.397591 
L 236.995833 194.372636 
L 238.081634 193.626612 
L 240.253236 193.451334 
L 241.339037 193.059067 
L 242.424838 193.402047 
L 243.510639 194.094647 
L 244.596441 194.41999 
L 245.682242 193.769938 
L 246.768043 194.139649 
L 247.853844 194.043078 
L 248.939645 193.67238 
L 250.025446 194.497076 
L 251.111248 194.137248 
L 252.197049 194.620753 
L 253.28285 195.533082 
L 254.368651 193.480906 
L 255.454452 194.204986 
L 256.540253 194.599329 
L 257.626054 194.575861 
L 258.711856 193.918713 
L 260.883458 194.243307 
L 263.05506 195.048472 
L 266.312464 193.636927 
L 267.398265 194.625896 
L 268.484066 193.913081 
L 269.569867 194.377485 
L 270.655668 194.075781 
L 271.741469 195.004699 
L 272.827271 194.054161 
L 273.913072 194.4187 
L 274.998873 193.960975 
L 276.084674 195.194464 
L 277.170475 195.576649 
L 278.256276 195.052712 
L 279.342078 194.864587 
L 280.427879 193.993478 
L 281.51368 195.416838 
L 282.599481 195.565024 
L 283.685282 195.287357 
L 284.771083 194.090079 
L 285.856885 194.356279 
L 286.942686 194.95045 
L 288.028487 194.711764 
L 289.114288 195.295858 
L 290.200089 195.181681 
L 291.28589 194.253563 
L 292.371691 194.624916 
L 293.457493 194.177767 
L 294.543294 194.507647 
L 295.629095 194.333356 
L 296.714896 194.926398 
L 297.800697 194.906459 
L 298.886498 195.672088 
L 299.9723 194.577227 
L 301.058101 194.718576 
L 302.143902 194.014567 
L 303.229703 195.167736 
L 304.315504 195.693985 
L 305.401305 195.501244 
L 306.487106 194.865569 
L 307.572908 194.9216 
L 309.74451 194.320002 
L 310.830311 195.092741 
L 311.916112 194.243469 
L 313.001913 195.294063 
L 314.087715 195.601138 
L 315.173516 194.99453 
L 316.259317 196.007057 
L 317.345118 195.701456 
L 318.430919 194.583546 
L 319.51672 195.209322 
L 320.602521 194.331192 
L 321.688323 194.331682 
L 322.774124 195.180723 
L 323.859925 194.529794 
L 324.945726 195.30356 
L 326.031527 195.582144 
L 327.117328 195.599729 
L 328.20313 195.052029 
L 329.288931 194.933782 
L 330.374732 195.322142 
L 331.460533 195.851741 
L 332.546334 195.820185 
L 333.632135 194.31331 
L 334.717936 195.258022 
L 336.889539 195.728249 
L 337.97534 194.979377 
L 339.061141 195.777659 
L 340.146942 194.67478 
L 342.318545 194.691465 
L 343.404346 195.719984 
L 344.490147 194.567073 
L 345.575948 195.349552 
L 346.661749 195.241453 
L 347.74755 194.511384 
L 348.833352 195.269995 
L 349.919153 195.146758 
L 351.004954 193.912117 
L 352.090755 195.212559 
L 353.176556 195.514776 
L 354.262357 195.530827 
L 355.348158 195.818699 
L 356.43396 195.457594 
L 357.519761 195.313988 
L 358.605562 195.774854 
L 359.691363 195.505063 
L 360.777164 194.630185 
L 361.862965 195.583969 
L 362.948767 195.18914 
L 365.120369 195.790351 
L 366.20617 194.825726 
L 367.291971 194.497659 
L 368.377772 194.88875 
L 369.463573 195.125312 
L 370.549375 195.067256 
L 371.635176 195.159718 
L 373.806778 195.58794 
L 374.892579 195.683092 
L 375.97838 195.461072 
L 377.064182 194.914137 
L 378.149983 195.2489 
L 379.235784 194.919458 
L 381.407386 195.794186 
L 382.493187 195.122643 
L 383.578988 195.870229 
L 384.66479 195.227071 
L 385.750591 196.369864 
L 386.836392 195.320044 
L 389.007994 196.106468 
L 390.093795 195.882916 
L 391.179597 195.841384 
L 392.265398 195.25239 
L 392.265398 195.25239 
" clip-path="url(#p9c76227a59)" style="fill: none; stroke: #1f77b4; stroke-width: 1.5; stroke-linecap: square"/>
   </g>
   <g id="line2d_40">
    <path d="M 67.610852 113.594007 
L 68.696653 119.864028 
L 69.782455 128.172058 
L 70.868256 121.977907 
L 71.954057 87.162347 
L 73.039858 106.549883 
L 74.125659 76.02995 
L 75.21146 86.883156 
L 76.297262 62.836764 
L 77.383063 95.746499 
L 78.468864 106.82272 
L 79.554665 58.096409 
L 80.640466 99.384886 
L 81.726267 114.97906 
L 82.812068 73.075589 
L 83.89787 129.167651 
L 84.983671 95.300959 
L 86.069472 132.540143 
L 87.155273 112.886874 
L 88.241074 131.265296 
L 89.326875 145.698154 
L 90.412677 34.414125 
L 91.498478 116.530335 
L 92.584279 126.566354 
L 93.67008 156.069901 
L 94.755881 146.137184 
L 95.841682 107.289834 
L 96.927483 167.147599 
L 98.013285 154.289593 
L 99.099086 146.575275 
L 100.184887 166.505456 
L 101.270688 123.759154 
L 102.356489 126.232879 
L 104.528092 191.621105 
L 105.613893 187.808508 
L 107.785495 230.798217 
L 108.871296 194.396001 
L 109.957097 225.051898 
L 111.042898 229.991995 
L 112.1287 177.508053 
L 113.214501 234.677164 
L 114.300302 216.489124 
L 115.386103 240.257551 
L 116.471904 230.795349 
L 117.557705 226.730661 
L 118.643507 232.892177 
L 119.729308 230.973957 
L 120.815109 243.264823 
L 121.90091 239.207374 
L 122.986711 251.393902 
L 124.072512 249.255724 
L 125.158314 255.184315 
L 126.244115 257.011441 
L 127.329916 249.242875 
L 128.415717 242.919316 
L 129.501518 252.39598 
L 130.587319 234.852234 
L 131.67312 226.139981 
L 132.758922 234.431041 
L 133.844723 251.742932 
L 134.930524 258.684462 
L 136.016325 259.172498 
L 137.102126 256.59151 
L 138.187927 242.697174 
L 139.273729 253.950826 
L 140.35953 236.122434 
L 141.445331 232.951018 
L 142.531132 240.744564 
L 143.616933 257.134717 
L 144.702734 248.62424 
L 145.788535 250.093657 
L 146.874337 257.533746 
L 147.960138 254.066216 
L 149.045939 257.9951 
L 150.13174 254.82455 
L 151.217541 260.121525 
L 152.303342 256.152854 
L 153.389144 254.253579 
L 154.474945 256.38695 
L 155.560746 267.512989 
L 156.646547 256.265961 
L 157.732348 260.092114 
L 158.818149 258.71689 
L 159.90395 266.106114 
L 160.989752 267.313456 
L 162.075553 265.619611 
L 163.161354 266.145313 
L 164.247155 264.030204 
L 165.332956 260.781449 
L 166.418757 269.665079 
L 167.504559 263.643947 
L 168.59036 260.255936 
L 169.676161 260.204566 
L 170.761962 264.832514 
L 171.847763 263.42228 
L 172.933564 267.839067 
L 174.019365 267.694652 
L 175.105167 271.07751 
L 176.190968 270.027547 
L 178.36257 264.387882 
L 179.448371 268.074042 
L 181.619974 267.620309 
L 182.705775 263.945507 
L 183.791576 266.263893 
L 184.877377 269.325822 
L 185.963178 269.064357 
L 187.048979 270.040798 
L 188.134781 263.49793 
L 189.220582 267.131636 
L 190.306383 267.298767 
L 191.392184 269.233512 
L 192.477985 267.431176 
L 193.563786 266.734484 
L 194.649587 264.828836 
L 195.735389 262.482546 
L 196.82119 269.210947 
L 197.906991 264.588008 
L 198.992792 262.28503 
L 200.078593 269.283471 
L 201.164394 267.001909 
L 202.250196 266.555903 
L 203.335997 270.634355 
L 204.421798 269.30015 
L 205.507599 268.867934 
L 206.5934 268.623206 
L 207.679201 269.008065 
L 208.765002 273.611959 
L 209.850804 268.792632 
L 210.936605 268.673072 
L 212.022406 270.950722 
L 213.108207 270.119011 
L 214.194008 268.103216 
L 215.279809 268.628929 
L 216.365611 268.877671 
L 217.451412 266.583981 
L 218.537213 266.153782 
L 219.623014 267.884114 
L 220.708815 272.55908 
L 221.794616 272.339201 
L 222.880417 272.87584 
L 223.966219 273.061221 
L 225.05202 273.706135 
L 226.137821 272.989879 
L 227.223622 272.024635 
L 228.309423 272.358624 
L 229.395224 273.655732 
L 230.481026 271.086891 
L 231.566827 271.85621 
L 232.652628 272.281175 
L 233.738429 272.017915 
L 234.82423 269.58202 
L 235.910031 269.855296 
L 236.995833 270.880311 
L 238.081634 270.667247 
L 239.167435 270.181376 
L 241.339037 268.763853 
L 242.424838 268.927456 
L 243.510639 268.706214 
L 244.596441 270.655608 
L 245.682242 271.889965 
L 246.768043 270.099083 
L 247.853844 269.664972 
L 248.939645 273.80072 
L 250.025446 273.290094 
L 251.111248 270.638958 
L 252.197049 272.310665 
L 254.368651 273.212424 
L 255.454452 270.765721 
L 256.540253 272.973738 
L 257.626054 273.189853 
L 258.711856 272.464976 
L 259.797657 272.20017 
L 260.883458 274.016495 
L 261.969259 273.223772 
L 263.05506 274.727955 
L 264.140861 274.999492 
L 265.226663 275.412109 
L 266.312464 275.329196 
L 267.398265 274.449195 
L 268.484066 274.089012 
L 269.569867 274.551478 
L 270.655668 274.270388 
L 271.741469 272.789453 
L 272.827271 272.869577 
L 273.913072 273.389701 
L 274.998873 273.71236 
L 276.084674 272.178141 
L 277.170475 272.374366 
L 278.256276 271.755411 
L 279.342078 271.372827 
L 280.427879 271.972622 
L 281.51368 272.179949 
L 282.599481 271.69265 
L 283.685282 271.826315 
L 284.771083 272.220868 
L 285.856885 272.95529 
L 286.942686 271.443188 
L 288.028487 272.362814 
L 289.114288 271.161991 
L 290.200089 271.796939 
L 291.28589 272.692776 
L 293.457493 273.276831 
L 294.543294 273.744469 
L 295.629095 274.824938 
L 298.886498 276.005287 
L 299.9723 274.672465 
L 301.058101 273.558201 
L 303.229703 273.419079 
L 304.315504 273.826106 
L 305.401305 273.500484 
L 306.487106 273.021801 
L 307.572908 273.171969 
L 308.658709 273.579192 
L 309.74451 273.519779 
L 311.916112 274.008758 
L 313.001913 274.268171 
L 314.087715 274.073481 
L 315.173516 274.014216 
L 316.259317 274.577734 
L 317.345118 274.322713 
L 318.430919 274.359757 
L 320.602521 274.247754 
L 321.688323 274.671715 
L 322.774124 274.263238 
L 323.859925 275.504032 
L 324.945726 275.177758 
L 326.031527 274.592316 
L 327.117328 274.829059 
L 328.20313 274.949839 
L 329.288931 274.586407 
L 330.374732 274.347116 
L 331.460533 274.732183 
L 332.546334 274.473516 
L 333.632135 274.723738 
L 334.717936 275.156214 
L 335.803738 275.108986 
L 336.889539 275.187989 
L 337.97534 275.944435 
L 339.061141 276.334125 
L 341.232743 276.283292 
L 342.318545 275.863319 
L 343.404346 275.941302 
L 344.490147 275.703766 
L 345.575948 275.243001 
L 346.661749 275.025582 
L 347.74755 275.372963 
L 349.919153 274.896993 
L 351.004954 275.118159 
L 352.090755 275.000412 
L 353.176556 274.997551 
L 354.262357 275.301055 
L 355.348158 275.060009 
L 356.43396 275.4246 
L 357.519761 275.621553 
L 358.605562 275.503168 
L 359.691363 275.757357 
L 360.777164 275.533775 
L 362.948767 275.422234 
L 364.034568 275.76875 
L 365.120369 275.553155 
L 366.20617 275.616352 
L 367.291971 275.161611 
L 368.377772 275.368875 
L 370.549375 275.012669 
L 371.635176 275.164586 
L 372.720977 274.829127 
L 373.806778 275.123465 
L 374.892579 275.225667 
L 381.407386 274.672407 
L 382.493187 274.94595 
L 385.750591 275.048699 
L 387.922193 274.499246 
L 389.007994 274.554275 
L 390.093795 274.894839 
L 391.179597 274.692684 
L 392.265398 274.866735 
L 392.265398 274.866735 
" clip-path="url(#p9c76227a59)" style="fill: none; stroke: #ff7f0e; stroke-width: 1.5; stroke-linecap: square"/>
   </g>
   <g id="patch_3">
    <path d="M 51.378125 288.430125 
L 51.378125 22.318125 
" style="fill: none; stroke: #000000; stroke-width: 0.8; stroke-linejoin: miter; stroke-linecap: square"/>
   </g>
   <g id="patch_4">
    <path d="M 408.498125 288.430125 
L 408.498125 22.318125 
" style="fill: none; stroke: #000000; stroke-width: 0.8; stroke-linejoin: miter; stroke-linecap: square"/>
   </g>
   <g id="patch_5">
    <path d="M 51.378125 288.430125 
L 408.498125 288.430125 
" style="fill: none; stroke: #000000; stroke-width: 0.8; stroke-linejoin: miter; stroke-linecap: square"/>
   </g>
   <g id="patch_6">
    <path d="M 51.378125 22.318125 
L 408.498125 22.318125 
" style="fill: none; stroke: #000000; stroke-width: 0.8; stroke-linejoin: miter; stroke-linecap: square"/>
   </g>
   <g id="text_14">
    <!-- Loss curves -->
    <g transform="translate(194.93375 16.318125) scale(0.12 -0.12)">
     <defs>
      <path id="DejaVuSans-4c" d="M 628 4666 
L 1259 4666 
L 1259 531 
L 3531 531 
L 3531 0 
L 628 0 
L 628 4666 
z
" transform="scale(0.015625)"/>
      <path id="DejaVuSans-75" d="M 544 1381 
L 544 3500 
L 1119 3500 
L 1119 1403 
Q 1119 906 1312 657 
Q 1506 409 1894 409 
Q 2359 409 2629 706 
Q 2900 1003 2900 1516 
L 2900 3500 
L 3475 3500 
L 3475 0 
L 2900 0 
L 2900 538 
Q 2691 219 2414 64 
Q 2138 -91 1772 -91 
Q 1169 -91 856 284 
Q 544 659 544 1381 
z
M 1991 3584 
L 1991 3584 
z
" transform="scale(0.015625)"/>
      <path id="DejaVuSans-76" d="M 191 3500 
L 800 3500 
L 1894 563 
L 2988 3500 
L 3597 3500 
L 2284 0 
L 1503 0 
L 191 3500 
z
" transform="scale(0.015625)"/>
     </defs>
     <use xlink:href="#DejaVuSans-4c"/>
     <use xlink:href="#DejaVuSans-6f" x="53.962891"/>
     <use xlink:href="#DejaVuSans-73" x="115.144531"/>
     <use xlink:href="#DejaVuSans-73" x="167.244141"/>
     <use xlink:href="#DejaVuSans-20" x="219.34375"/>
     <use xlink:href="#DejaVuSans-63" x="251.130859"/>
     <use xlink:href="#DejaVuSans-75" x="306.111328"/>
     <use xlink:href="#DejaVuSans-72" x="369.490234"/>
     <use xlink:href="#DejaVuSans-76" x="410.603516"/>
     <use xlink:href="#DejaVuSans-65" x="469.783203"/>
     <use xlink:href="#DejaVuSans-73" x="531.306641"/>
    </g>
   </g>
   <g id="legend_1">
    <g id="patch_7">
     <path d="M 264.021563 59.674375 
L 401.498125 59.674375 
Q 403.498125 59.674375 403.498125 57.674375 
L 403.498125 29.318125 
Q 403.498125 27.318125 401.498125 27.318125 
L 264.021563 27.318125 
Q 262.021563 27.318125 262.021563 29.318125 
L 262.021563 57.674375 
Q 262.021563 59.674375 264.021563 59.674375 
z
" style="fill: #ffffff; opacity: 0.8; stroke: #cccccc; stroke-linejoin: miter"/>
    </g>
    <g id="line2d_41">
     <path d="M 266.021563 35.416562 
L 276.021563 35.416562 
L 286.021563 35.416562 
" style="fill: none; stroke: #1f77b4; stroke-width: 1.5; stroke-linecap: square"/>
    </g>
    <g id="text_15">
     <!-- Average training loss -->
     <g transform="translate(294.021563 38.916562) scale(0.1 -0.1)">
      <defs>
       <path id="DejaVuSans-41" d="M 2188 4044 
L 1331 1722 
L 3047 1722 
L 2188 4044 
z
M 1831 4666 
L 2547 4666 
L 4325 0 
L 3669 0 
L 3244 1197 
L 1141 1197 
L 716 0 
L 50 0 
L 1831 4666 
z
" transform="scale(0.015625)"/>
       <path id="DejaVuSans-61" d="M 2194 1759 
Q 1497 1759 1228 1600 
Q 959 1441 959 1056 
Q 959 750 1161 570 
Q 1363 391 1709 391 
Q 2188 391 2477 730 
Q 2766 1069 2766 1631 
L 2766 1759 
L 2194 1759 
z
M 3341 1997 
L 3341 0 
L 2766 0 
L 2766 531 
Q 2569 213 2275 61 
Q 1981 -91 1556 -91 
Q 1019 -91 701 211 
Q 384 513 384 1019 
Q 384 1609 779 1909 
Q 1175 2209 1959 2209 
L 2766 2209 
L 2766 2266 
Q 2766 2663 2505 2880 
Q 2244 3097 1772 3097 
Q 1472 3097 1187 3025 
Q 903 2953 641 2809 
L 641 3341 
Q 956 3463 1253 3523 
Q 1550 3584 1831 3584 
Q 2591 3584 2966 3190 
Q 3341 2797 3341 1997 
z
" transform="scale(0.015625)"/>
       <path id="DejaVuSans-67" d="M 2906 1791 
Q 2906 2416 2648 2759 
Q 2391 3103 1925 3103 
Q 1463 3103 1205 2759 
Q 947 2416 947 1791 
Q 947 1169 1205 825 
Q 1463 481 1925 481 
Q 2391 481 2648 825 
Q 2906 1169 2906 1791 
z
M 3481 434 
Q 3481 -459 3084 -895 
Q 2688 -1331 1869 -1331 
Q 1566 -1331 1297 -1286 
Q 1028 -1241 775 -1147 
L 775 -588 
Q 1028 -725 1275 -790 
Q 1522 -856 1778 -856 
Q 2344 -856 2625 -561 
Q 2906 -266 2906 331 
L 2906 616 
Q 2728 306 2450 153 
Q 2172 0 1784 0 
Q 1141 0 747 490 
Q 353 981 353 1791 
Q 353 2603 747 3093 
Q 1141 3584 1784 3584 
Q 2172 3584 2450 3431 
Q 2728 3278 2906 2969 
L 2906 3500 
L 3481 3500 
L 3481 434 
z
" transform="scale(0.015625)"/>
       <path id="DejaVuSans-69" d="M 603 3500 
L 1178 3500 
L 1178 0 
L 603 0 
L 603 3500 
z
M 603 4863 
L 1178 4863 
L 1178 4134 
L 603 4134 
L 603 4863 
z
" transform="scale(0.015625)"/>
      </defs>
      <use xlink:href="#DejaVuSans-41"/>
      <use xlink:href="#DejaVuSans-76" x="62.533203"/>
      <use xlink:href="#DejaVuSans-65" x="121.712891"/>
      <use xlink:href="#DejaVuSans-72" x="183.236328"/>
      <use xlink:href="#DejaVuSans-61" x="224.349609"/>
      <use xlink:href="#DejaVuSans-67" x="285.628906"/>
      <use xlink:href="#DejaVuSans-65" x="349.105469"/>
      <use xlink:href="#DejaVuSans-20" x="410.628906"/>
      <use xlink:href="#DejaVuSans-74" x="442.416016"/>
      <use xlink:href="#DejaVuSans-72" x="481.625"/>
      <use xlink:href="#DejaVuSans-61" x="522.738281"/>
      <use xlink:href="#DejaVuSans-69" x="584.017578"/>
      <use xlink:href="#DejaVuSans-6e" x="611.800781"/>
      <use xlink:href="#DejaVuSans-69" x="675.179688"/>
      <use xlink:href="#DejaVuSans-6e" x="702.962891"/>
      <use xlink:href="#DejaVuSans-67" x="766.341797"/>
      <use xlink:href="#DejaVuSans-20" x="829.818359"/>
      <use xlink:href="#DejaVuSans-6c" x="861.605469"/>
      <use xlink:href="#DejaVuSans-6f" x="889.388672"/>
      <use xlink:href="#DejaVuSans-73" x="950.570312"/>
      <use xlink:href="#DejaVuSans-73" x="1002.669922"/>
     </g>
    </g>
    <g id="line2d_42">
     <path d="M 266.021563 50.094687 
L 276.021563 50.094687 
L 286.021563 50.094687 
" style="fill: none; stroke: #ff7f0e; stroke-width: 1.5; stroke-linecap: square"/>
    </g>
    <g id="text_16">
     <!-- Test loss -->
     <g transform="translate(294.021563 53.594687) scale(0.1 -0.1)">
      <defs>
       <path id="DejaVuSans-54" d="M -19 4666 
L 3928 4666 
L 3928 4134 
L 2272 4134 
L 2272 0 
L 1638 0 
L 1638 4134 
L -19 4134 
L -19 4666 
z
" transform="scale(0.015625)"/>
      </defs>
      <use xlink:href="#DejaVuSans-54"/>
      <use xlink:href="#DejaVuSans-65" x="44.083984"/>
      <use xlink:href="#DejaVuSans-73" x="105.607422"/>
      <use xlink:href="#DejaVuSans-74" x="157.707031"/>
      <use xlink:href="#DejaVuSans-20" x="196.916016"/>
      <use xlink:href="#DejaVuSans-6c" x="228.703125"/>
      <use xlink:href="#DejaVuSans-6f" x="256.486328"/>
      <use xlink:href="#DejaVuSans-73" x="317.667969"/>
      <use xlink:href="#DejaVuSans-73" x="369.767578"/>
     </g>
    </g>
   </g>
  </g>
 </g>
 <defs>
  <clipPath id="p9c76227a59">
   <rect x="51.378125" y="22.318125" width="357.12" height="266.112"/>
  </clipPath>
 </defs>
</svg>
