<?xml version="1.0" encoding="utf-8" standalone="no"?>
<!DOCTYPE svg PUBLIC "-//W3C//DTD SVG 1.1//EN"
  "http://www.w3.org/Graphics/SVG/1.1/DTD/svg11.dtd">
<svg xmlns:xlink="http://www.w3.org/1999/xlink" width="415.698125pt" height="325.986375pt" viewBox="0 0 415.698125 325.986375" xmlns="http://www.w3.org/2000/svg" version="1.1">
 <metadata>
  <rdf:RDF xmlns:dc="http://purl.org/dc/elements/1.1/" xmlns:cc="http://creativecommons.org/ns#" xmlns:rdf="http://www.w3.org/1999/02/22-rdf-syntax-ns#">
   <cc:Work>
    <dc:type rdf:resource="http://purl.org/dc/dcmitype/StillImage"/>
    <dc:date>2024-06-15T16:36:28.431819</dc:date>
    <dc:format>image/svg+xml</dc:format>
    <dc:creator>
     <cc:Agent>
      <dc:title>Matplotlib v3.9.0, https://matplotlib.org/</dc:title>
     </cc:Agent>
    </dc:creator>
   </cc:Work>
  </rdf:RDF>
 </metadata>
 <defs>
  <style type="text/css">*{stroke-linejoin: round; stroke-linecap: butt}</style>
 </defs>
 <g id="figure_1">
  <g id="patch_1">
   <path d="M 0 325.986375 
L 415.698125 325.986375 
L 415.698125 0 
L 0 0 
z
" style="fill: #ffffff"/>
  </g>
  <g id="axes_1">
   <g id="patch_2">
    <path d="M 51.378125 288.430125 
L 408.498125 288.430125 
L 408.498125 22.318125 
L 51.378125 22.318125 
z
" style="fill: #ffffff"/>
   </g>
   <g id="matplotlib.axis_1">
    <g id="xtick_1">
     <g id="line2d_1">
      <defs>
       <path id="mb57cb11ffc" d="M 0 0 
L 0 3.5 
" style="stroke: #000000; stroke-width: 0.8"/>
      </defs>
      <g>
       <use xlink:href="#mb57cb11ffc" x="66.525051" y="288.430125" style="stroke: #000000; stroke-width: 0.8"/>
      </g>
     </g>
     <g id="text_1">
      <!-- 0 -->
      <g transform="translate(63.343801 303.028562) scale(0.1 -0.1)">
       <defs>
        <path id="DejaVuSans-30" d="M 2034 4250 
Q 1547 4250 1301 3770 
Q 1056 3291 1056 2328 
Q 1056 1369 1301 889 
Q 1547 409 2034 409 
Q 2525 409 2770 889 
Q 3016 1369 3016 2328 
Q 3016 3291 2770 3770 
Q 2525 4250 2034 4250 
z
M 2034 4750 
Q 2819 4750 3233 4129 
Q 3647 3509 3647 2328 
Q 3647 1150 3233 529 
Q 2819 -91 2034 -91 
Q 1250 -91 836 529 
Q 422 1150 422 2328 
Q 422 3509 836 4129 
Q 1250 4750 2034 4750 
z
" transform="scale(0.015625)"/>
       </defs>
       <use xlink:href="#DejaVuSans-30"/>
      </g>
     </g>
    </g>
    <g id="xtick_2">
     <g id="line2d_2">
      <g>
       <use xlink:href="#mb57cb11ffc" x="120.815109" y="288.430125" style="stroke: #000000; stroke-width: 0.8"/>
      </g>
     </g>
     <g id="text_2">
      <!-- 50 -->
      <g transform="translate(114.452609 303.028562) scale(0.1 -0.1)">
       <defs>
        <path id="DejaVuSans-35" d="M 691 4666 
L 3169 4666 
L 3169 4134 
L 1269 4134 
L 1269 2991 
Q 1406 3038 1543 3061 
Q 1681 3084 1819 3084 
Q 2600 3084 3056 2656 
Q 3513 2228 3513 1497 
Q 3513 744 3044 326 
Q 2575 -91 1722 -91 
Q 1428 -91 1123 -41 
Q 819 9 494 109 
L 494 744 
Q 775 591 1075 516 
Q 1375 441 1709 441 
Q 2250 441 2565 725 
Q 2881 1009 2881 1497 
Q 2881 1984 2565 2268 
Q 2250 2553 1709 2553 
Q 1456 2553 1204 2497 
Q 953 2441 691 2322 
L 691 4666 
z
" transform="scale(0.015625)"/>
       </defs>
       <use xlink:href="#DejaVuSans-35"/>
       <use xlink:href="#DejaVuSans-30" x="63.623047"/>
      </g>
     </g>
    </g>
    <g id="xtick_3">
     <g id="line2d_3">
      <g>
       <use xlink:href="#mb57cb11ffc" x="175.105167" y="288.430125" style="stroke: #000000; stroke-width: 0.8"/>
      </g>
     </g>
     <g id="text_3">
      <!-- 100 -->
      <g transform="translate(165.561417 303.028562) scale(0.1 -0.1)">
       <defs>
        <path id="DejaVuSans-31" d="M 794 531 
L 1825 531 
L 1825 4091 
L 703 3866 
L 703 4441 
L 1819 4666 
L 2450 4666 
L 2450 531 
L 3481 531 
L 3481 0 
L 794 0 
L 794 531 
z
" transform="scale(0.015625)"/>
       </defs>
       <use xlink:href="#DejaVuSans-31"/>
       <use xlink:href="#DejaVuSans-30" x="63.623047"/>
       <use xlink:href="#DejaVuSans-30" x="127.246094"/>
      </g>
     </g>
    </g>
    <g id="xtick_4">
     <g id="line2d_4">
      <g>
       <use xlink:href="#mb57cb11ffc" x="229.395224" y="288.430125" style="stroke: #000000; stroke-width: 0.8"/>
      </g>
     </g>
     <g id="text_4">
      <!-- 150 -->
      <g transform="translate(219.851474 303.028562) scale(0.1 -0.1)">
       <use xlink:href="#DejaVuSans-31"/>
       <use xlink:href="#DejaVuSans-35" x="63.623047"/>
       <use xlink:href="#DejaVuSans-30" x="127.246094"/>
      </g>
     </g>
    </g>
    <g id="xtick_5">
     <g id="line2d_5">
      <g>
       <use xlink:href="#mb57cb11ffc" x="283.685282" y="288.430125" style="stroke: #000000; stroke-width: 0.8"/>
      </g>
     </g>
     <g id="text_5">
      <!-- 200 -->
      <g transform="translate(274.141532 303.028562) scale(0.1 -0.1)">
       <defs>
        <path id="DejaVuSans-32" d="M 1228 531 
L 3431 531 
L 3431 0 
L 469 0 
L 469 531 
Q 828 903 1448 1529 
Q 2069 2156 2228 2338 
Q 2531 2678 2651 2914 
Q 2772 3150 2772 3378 
Q 2772 3750 2511 3984 
Q 2250 4219 1831 4219 
Q 1534 4219 1204 4116 
Q 875 4013 500 3803 
L 500 4441 
Q 881 4594 1212 4672 
Q 1544 4750 1819 4750 
Q 2544 4750 2975 4387 
Q 3406 4025 3406 3419 
Q 3406 3131 3298 2873 
Q 3191 2616 2906 2266 
Q 2828 2175 2409 1742 
Q 1991 1309 1228 531 
z
" transform="scale(0.015625)"/>
       </defs>
       <use xlink:href="#DejaVuSans-32"/>
       <use xlink:href="#DejaVuSans-30" x="63.623047"/>
       <use xlink:href="#DejaVuSans-30" x="127.246094"/>
      </g>
     </g>
    </g>
    <g id="xtick_6">
     <g id="line2d_6">
      <g>
       <use xlink:href="#mb57cb11ffc" x="337.97534" y="288.430125" style="stroke: #000000; stroke-width: 0.8"/>
      </g>
     </g>
     <g id="text_6">
      <!-- 250 -->
      <g transform="translate(328.43159 303.028562) scale(0.1 -0.1)">
       <use xlink:href="#DejaVuSans-32"/>
       <use xlink:href="#DejaVuSans-35" x="63.623047"/>
       <use xlink:href="#DejaVuSans-30" x="127.246094"/>
      </g>
     </g>
    </g>
    <g id="xtick_7">
     <g id="line2d_7">
      <g>
       <use xlink:href="#mb57cb11ffc" x="392.265398" y="288.430125" style="stroke: #000000; stroke-width: 0.8"/>
      </g>
     </g>
     <g id="text_7">
      <!-- 300 -->
      <g transform="translate(382.721648 303.028562) scale(0.1 -0.1)">
       <defs>
        <path id="DejaVuSans-33" d="M 2597 2516 
Q 3050 2419 3304 2112 
Q 3559 1806 3559 1356 
Q 3559 666 3084 287 
Q 2609 -91 1734 -91 
Q 1441 -91 1130 -33 
Q 819 25 488 141 
L 488 750 
Q 750 597 1062 519 
Q 1375 441 1716 441 
Q 2309 441 2620 675 
Q 2931 909 2931 1356 
Q 2931 1769 2642 2001 
Q 2353 2234 1838 2234 
L 1294 2234 
L 1294 2753 
L 1863 2753 
Q 2328 2753 2575 2939 
Q 2822 3125 2822 3475 
Q 2822 3834 2567 4026 
Q 2313 4219 1838 4219 
Q 1578 4219 1281 4162 
Q 984 4106 628 3988 
L 628 4550 
Q 988 4650 1302 4700 
Q 1616 4750 1894 4750 
Q 2613 4750 3031 4423 
Q 3450 4097 3450 3541 
Q 3450 3153 3228 2886 
Q 3006 2619 2597 2516 
z
" transform="scale(0.015625)"/>
       </defs>
       <use xlink:href="#DejaVuSans-33"/>
       <use xlink:href="#DejaVuSans-30" x="63.623047"/>
       <use xlink:href="#DejaVuSans-30" x="127.246094"/>
      </g>
     </g>
    </g>
    <g id="text_8">
     <!-- Epoch -->
     <g transform="translate(214.627188 316.706687) scale(0.1 -0.1)">
      <defs>
       <path id="DejaVuSans-45" d="M 628 4666 
L 3578 4666 
L 3578 4134 
L 1259 4134 
L 1259 2753 
L 3481 2753 
L 3481 2222 
L 1259 2222 
L 1259 531 
L 3634 531 
L 3634 0 
L 628 0 
L 628 4666 
z
" transform="scale(0.015625)"/>
       <path id="DejaVuSans-70" d="M 1159 525 
L 1159 -1331 
L 581 -1331 
L 581 3500 
L 1159 3500 
L 1159 2969 
Q 1341 3281 1617 3432 
Q 1894 3584 2278 3584 
Q 2916 3584 3314 3078 
Q 3713 2572 3713 1747 
Q 3713 922 3314 415 
Q 2916 -91 2278 -91 
Q 1894 -91 1617 61 
Q 1341 213 1159 525 
z
M 3116 1747 
Q 3116 2381 2855 2742 
Q 2594 3103 2138 3103 
Q 1681 3103 1420 2742 
Q 1159 2381 1159 1747 
Q 1159 1113 1420 752 
Q 1681 391 2138 391 
Q 2594 391 2855 752 
Q 3116 1113 3116 1747 
z
" transform="scale(0.015625)"/>
       <path id="DejaVuSans-6f" d="M 1959 3097 
Q 1497 3097 1228 2736 
Q 959 2375 959 1747 
Q 959 1119 1226 758 
Q 1494 397 1959 397 
Q 2419 397 2687 759 
Q 2956 1122 2956 1747 
Q 2956 2369 2687 2733 
Q 2419 3097 1959 3097 
z
M 1959 3584 
Q 2709 3584 3137 3096 
Q 3566 2609 3566 1747 
Q 3566 888 3137 398 
Q 2709 -91 1959 -91 
Q 1206 -91 779 398 
Q 353 888 353 1747 
Q 353 2609 779 3096 
Q 1206 3584 1959 3584 
z
" transform="scale(0.015625)"/>
       <path id="DejaVuSans-63" d="M 3122 3366 
L 3122 2828 
Q 2878 2963 2633 3030 
Q 2388 3097 2138 3097 
Q 1578 3097 1268 2742 
Q 959 2388 959 1747 
Q 959 1106 1268 751 
Q 1578 397 2138 397 
Q 2388 397 2633 464 
Q 2878 531 3122 666 
L 3122 134 
Q 2881 22 2623 -34 
Q 2366 -91 2075 -91 
Q 1284 -91 818 406 
Q 353 903 353 1747 
Q 353 2603 823 3093 
Q 1294 3584 2113 3584 
Q 2378 3584 2631 3529 
Q 2884 3475 3122 3366 
z
" transform="scale(0.015625)"/>
       <path id="DejaVuSans-68" d="M 3513 2113 
L 3513 0 
L 2938 0 
L 2938 2094 
Q 2938 2591 2744 2837 
Q 2550 3084 2163 3084 
Q 1697 3084 1428 2787 
Q 1159 2491 1159 1978 
L 1159 0 
L 581 0 
L 581 4863 
L 1159 4863 
L 1159 2956 
Q 1366 3272 1645 3428 
Q 1925 3584 2291 3584 
Q 2894 3584 3203 3211 
Q 3513 2838 3513 2113 
z
" transform="scale(0.015625)"/>
      </defs>
      <use xlink:href="#DejaVuSans-45"/>
      <use xlink:href="#DejaVuSans-70" x="63.183594"/>
      <use xlink:href="#DejaVuSans-6f" x="126.660156"/>
      <use xlink:href="#DejaVuSans-63" x="187.841797"/>
      <use xlink:href="#DejaVuSans-68" x="242.822266"/>
     </g>
    </g>
   </g>
   <g id="matplotlib.axis_2">
    <g id="ytick_1">
     <g id="line2d_8">
      <defs>
       <path id="mbbb18faa5a" d="M 0 0 
L -3.5 0 
" style="stroke: #000000; stroke-width: 0.8"/>
      </defs>
      <g>
       <use xlink:href="#mbbb18faa5a" x="51.378125" y="272.0836" style="stroke: #000000; stroke-width: 0.8"/>
      </g>
     </g>
     <g id="text_9">
      <!-- $\mathdefault{10^{-2}}$ -->
      <g transform="translate(20.878125 275.882819) scale(0.1 -0.1)">
       <defs>
        <path id="DejaVuSans-2212" d="M 678 2272 
L 4684 2272 
L 4684 1741 
L 678 1741 
L 678 2272 
z
" transform="scale(0.015625)"/>
       </defs>
       <use xlink:href="#DejaVuSans-31" transform="translate(0 0.765625)"/>
       <use xlink:href="#DejaVuSans-30" transform="translate(63.623047 0.765625)"/>
       <use xlink:href="#DejaVuSans-2212" transform="translate(128.203125 39.046875) scale(0.7)"/>
       <use xlink:href="#DejaVuSans-32" transform="translate(186.855469 39.046875) scale(0.7)"/>
      </g>
     </g>
    </g>
    <g id="ytick_2">
     <g id="line2d_9">
      <g>
       <use xlink:href="#mbbb18faa5a" x="51.378125" y="167.179262" style="stroke: #000000; stroke-width: 0.8"/>
      </g>
     </g>
     <g id="text_10">
      <!-- $\mathdefault{10^{-1}}$ -->
      <g transform="translate(20.878125 170.978481) scale(0.1 -0.1)">
       <use xlink:href="#DejaVuSans-31" transform="translate(0 0.684375)"/>
       <use xlink:href="#DejaVuSans-30" transform="translate(63.623047 0.684375)"/>
       <use xlink:href="#DejaVuSans-2212" transform="translate(128.203125 38.965625) scale(0.7)"/>
       <use xlink:href="#DejaVuSans-31" transform="translate(186.855469 38.965625) scale(0.7)"/>
      </g>
     </g>
    </g>
    <g id="ytick_3">
     <g id="line2d_10">
      <g>
       <use xlink:href="#mbbb18faa5a" x="51.378125" y="62.274924" style="stroke: #000000; stroke-width: 0.8"/>
      </g>
     </g>
     <g id="text_11">
      <!-- $\mathdefault{10^{0}}$ -->
      <g transform="translate(26.778125 66.074143) scale(0.1 -0.1)">
       <use xlink:href="#DejaVuSans-31" transform="translate(0 0.765625)"/>
       <use xlink:href="#DejaVuSans-30" transform="translate(63.623047 0.765625)"/>
       <use xlink:href="#DejaVuSans-30" transform="translate(128.203125 39.046875) scale(0.7)"/>
      </g>
     </g>
    </g>
    <g id="ytick_4">
     <g id="line2d_11">
      <defs>
       <path id="m21b05c77eb" d="M 0 0 
L -2 0 
" style="stroke: #000000; stroke-width: 0.6"/>
      </defs>
      <g>
       <use xlink:href="#m21b05c77eb" x="51.378125" y="288.333487" style="stroke: #000000; stroke-width: 0.6"/>
      </g>
     </g>
    </g>
    <g id="ytick_5">
     <g id="line2d_12">
      <g>
       <use xlink:href="#m21b05c77eb" x="51.378125" y="282.249881" style="stroke: #000000; stroke-width: 0.6"/>
      </g>
     </g>
    </g>
    <g id="ytick_6">
     <g id="line2d_13">
      <g>
       <use xlink:href="#m21b05c77eb" x="51.378125" y="276.883759" style="stroke: #000000; stroke-width: 0.6"/>
      </g>
     </g>
    </g>
    <g id="ytick_7">
     <g id="line2d_14">
      <g>
       <use xlink:href="#m21b05c77eb" x="51.378125" y="240.504248" style="stroke: #000000; stroke-width: 0.6"/>
      </g>
     </g>
    </g>
    <g id="ytick_8">
     <g id="line2d_15">
      <g>
       <use xlink:href="#m21b05c77eb" x="51.378125" y="222.031511" style="stroke: #000000; stroke-width: 0.6"/>
      </g>
     </g>
    </g>
    <g id="ytick_9">
     <g id="line2d_16">
      <g>
       <use xlink:href="#m21b05c77eb" x="51.378125" y="208.924895" style="stroke: #000000; stroke-width: 0.6"/>
      </g>
     </g>
    </g>
    <g id="ytick_10">
     <g id="line2d_17">
      <g>
       <use xlink:href="#m21b05c77eb" x="51.378125" y="198.758615" style="stroke: #000000; stroke-width: 0.6"/>
      </g>
     </g>
    </g>
    <g id="ytick_11">
     <g id="line2d_18">
      <g>
       <use xlink:href="#m21b05c77eb" x="51.378125" y="190.452158" style="stroke: #000000; stroke-width: 0.6"/>
      </g>
     </g>
    </g>
    <g id="ytick_12">
     <g id="line2d_19">
      <g>
       <use xlink:href="#m21b05c77eb" x="51.378125" y="183.42915" style="stroke: #000000; stroke-width: 0.6"/>
      </g>
     </g>
    </g>
    <g id="ytick_13">
     <g id="line2d_20">
      <g>
       <use xlink:href="#m21b05c77eb" x="51.378125" y="177.345543" style="stroke: #000000; stroke-width: 0.6"/>
      </g>
     </g>
    </g>
    <g id="ytick_14">
     <g id="line2d_21">
      <g>
       <use xlink:href="#m21b05c77eb" x="51.378125" y="171.979421" style="stroke: #000000; stroke-width: 0.6"/>
      </g>
     </g>
    </g>
    <g id="ytick_15">
     <g id="line2d_22">
      <g>
       <use xlink:href="#m21b05c77eb" x="51.378125" y="135.59991" style="stroke: #000000; stroke-width: 0.6"/>
      </g>
     </g>
    </g>
    <g id="ytick_16">
     <g id="line2d_23">
      <g>
       <use xlink:href="#m21b05c77eb" x="51.378125" y="117.127173" style="stroke: #000000; stroke-width: 0.6"/>
      </g>
     </g>
    </g>
    <g id="ytick_17">
     <g id="line2d_24">
      <g>
       <use xlink:href="#m21b05c77eb" x="51.378125" y="104.020557" style="stroke: #000000; stroke-width: 0.6"/>
      </g>
     </g>
    </g>
    <g id="ytick_18">
     <g id="line2d_25">
      <g>
       <use xlink:href="#m21b05c77eb" x="51.378125" y="93.854277" style="stroke: #000000; stroke-width: 0.6"/>
      </g>
     </g>
    </g>
    <g id="ytick_19">
     <g id="line2d_26">
      <g>
       <use xlink:href="#m21b05c77eb" x="51.378125" y="85.547821" style="stroke: #000000; stroke-width: 0.6"/>
      </g>
     </g>
    </g>
    <g id="ytick_20">
     <g id="line2d_27">
      <g>
       <use xlink:href="#m21b05c77eb" x="51.378125" y="78.524812" style="stroke: #000000; stroke-width: 0.6"/>
      </g>
     </g>
    </g>
    <g id="ytick_21">
     <g id="line2d_28">
      <g>
       <use xlink:href="#m21b05c77eb" x="51.378125" y="72.441205" style="stroke: #000000; stroke-width: 0.6"/>
      </g>
     </g>
    </g>
    <g id="ytick_22">
     <g id="line2d_29">
      <g>
       <use xlink:href="#m21b05c77eb" x="51.378125" y="67.075084" style="stroke: #000000; stroke-width: 0.6"/>
      </g>
     </g>
    </g>
    <g id="ytick_23">
     <g id="line2d_30">
      <g>
       <use xlink:href="#m21b05c77eb" x="51.378125" y="30.695572" style="stroke: #000000; stroke-width: 0.6"/>
      </g>
     </g>
    </g>
    <g id="text_12">
     <!-- Cross-entropy loss -->
     <g transform="translate(14.798438 201.469437) rotate(-90) scale(0.1 -0.1)">
      <defs>
       <path id="DejaVuSans-43" d="M 4122 4306 
L 4122 3641 
Q 3803 3938 3442 4084 
Q 3081 4231 2675 4231 
Q 1875 4231 1450 3742 
Q 1025 3253 1025 2328 
Q 1025 1406 1450 917 
Q 1875 428 2675 428 
Q 3081 428 3442 575 
Q 3803 722 4122 1019 
L 4122 359 
Q 3791 134 3420 21 
Q 3050 -91 2638 -91 
Q 1578 -91 968 557 
Q 359 1206 359 2328 
Q 359 3453 968 4101 
Q 1578 4750 2638 4750 
Q 3056 4750 3426 4639 
Q 3797 4528 4122 4306 
z
" transform="scale(0.015625)"/>
       <path id="DejaVuSans-72" d="M 2631 2963 
Q 2534 3019 2420 3045 
Q 2306 3072 2169 3072 
Q 1681 3072 1420 2755 
Q 1159 2438 1159 1844 
L 1159 0 
L 581 0 
L 581 3500 
L 1159 3500 
L 1159 2956 
Q 1341 3275 1631 3429 
Q 1922 3584 2338 3584 
Q 2397 3584 2469 3576 
Q 2541 3569 2628 3553 
L 2631 2963 
z
" transform="scale(0.015625)"/>
       <path id="DejaVuSans-73" d="M 2834 3397 
L 2834 2853 
Q 2591 2978 2328 3040 
Q 2066 3103 1784 3103 
Q 1356 3103 1142 2972 
Q 928 2841 928 2578 
Q 928 2378 1081 2264 
Q 1234 2150 1697 2047 
L 1894 2003 
Q 2506 1872 2764 1633 
Q 3022 1394 3022 966 
Q 3022 478 2636 193 
Q 2250 -91 1575 -91 
Q 1294 -91 989 -36 
Q 684 19 347 128 
L 347 722 
Q 666 556 975 473 
Q 1284 391 1588 391 
Q 1994 391 2212 530 
Q 2431 669 2431 922 
Q 2431 1156 2273 1281 
Q 2116 1406 1581 1522 
L 1381 1569 
Q 847 1681 609 1914 
Q 372 2147 372 2553 
Q 372 3047 722 3315 
Q 1072 3584 1716 3584 
Q 2034 3584 2315 3537 
Q 2597 3491 2834 3397 
z
" transform="scale(0.015625)"/>
       <path id="DejaVuSans-2d" d="M 313 2009 
L 1997 2009 
L 1997 1497 
L 313 1497 
L 313 2009 
z
" transform="scale(0.015625)"/>
       <path id="DejaVuSans-65" d="M 3597 1894 
L 3597 1613 
L 953 1613 
Q 991 1019 1311 708 
Q 1631 397 2203 397 
Q 2534 397 2845 478 
Q 3156 559 3463 722 
L 3463 178 
Q 3153 47 2828 -22 
Q 2503 -91 2169 -91 
Q 1331 -91 842 396 
Q 353 884 353 1716 
Q 353 2575 817 3079 
Q 1281 3584 2069 3584 
Q 2775 3584 3186 3129 
Q 3597 2675 3597 1894 
z
M 3022 2063 
Q 3016 2534 2758 2815 
Q 2500 3097 2075 3097 
Q 1594 3097 1305 2825 
Q 1016 2553 972 2059 
L 3022 2063 
z
" transform="scale(0.015625)"/>
       <path id="DejaVuSans-6e" d="M 3513 2113 
L 3513 0 
L 2938 0 
L 2938 2094 
Q 2938 2591 2744 2837 
Q 2550 3084 2163 3084 
Q 1697 3084 1428 2787 
Q 1159 2491 1159 1978 
L 1159 0 
L 581 0 
L 581 3500 
L 1159 3500 
L 1159 2956 
Q 1366 3272 1645 3428 
Q 1925 3584 2291 3584 
Q 2894 3584 3203 3211 
Q 3513 2838 3513 2113 
z
" transform="scale(0.015625)"/>
       <path id="DejaVuSans-74" d="M 1172 4494 
L 1172 3500 
L 2356 3500 
L 2356 3053 
L 1172 3053 
L 1172 1153 
Q 1172 725 1289 603 
Q 1406 481 1766 481 
L 2356 481 
L 2356 0 
L 1766 0 
Q 1100 0 847 248 
Q 594 497 594 1153 
L 594 3053 
L 172 3053 
L 172 3500 
L 594 3500 
L 594 4494 
L 1172 4494 
z
" transform="scale(0.015625)"/>
       <path id="DejaVuSans-79" d="M 2059 -325 
Q 1816 -950 1584 -1140 
Q 1353 -1331 966 -1331 
L 506 -1331 
L 506 -850 
L 844 -850 
Q 1081 -850 1212 -737 
Q 1344 -625 1503 -206 
L 1606 56 
L 191 3500 
L 800 3500 
L 1894 763 
L 2988 3500 
L 3597 3500 
L 2059 -325 
z
" transform="scale(0.015625)"/>
       <path id="DejaVuSans-20" transform="scale(0.015625)"/>
       <path id="DejaVuSans-6c" d="M 603 4863 
L 1178 4863 
L 1178 0 
L 603 0 
L 603 4863 
z
" transform="scale(0.015625)"/>
      </defs>
      <use xlink:href="#DejaVuSans-43"/>
      <use xlink:href="#DejaVuSans-72" x="69.824219"/>
      <use xlink:href="#DejaVuSans-6f" x="108.6875"/>
      <use xlink:href="#DejaVuSans-73" x="169.869141"/>
      <use xlink:href="#DejaVuSans-73" x="221.96875"/>
      <use xlink:href="#DejaVuSans-2d" x="274.068359"/>
      <use xlink:href="#DejaVuSans-65" x="310.152344"/>
      <use xlink:href="#DejaVuSans-6e" x="371.675781"/>
      <use xlink:href="#DejaVuSans-74" x="435.054688"/>
      <use xlink:href="#DejaVuSans-72" x="474.263672"/>
      <use xlink:href="#DejaVuSans-6f" x="513.126953"/>
      <use xlink:href="#DejaVuSans-70" x="574.308594"/>
      <use xlink:href="#DejaVuSans-79" x="637.785156"/>
      <use xlink:href="#DejaVuSans-20" x="696.964844"/>
      <use xlink:href="#DejaVuSans-6c" x="728.751953"/>
      <use xlink:href="#DejaVuSans-6f" x="756.535156"/>
      <use xlink:href="#DejaVuSans-73" x="817.716797"/>
      <use xlink:href="#DejaVuSans-73" x="869.816406"/>
     </g>
    </g>
   </g>
   <g id="line2d_31">
    <path d="M 67.610852 34.414125 
L 68.696653 88.103537 
L 69.782455 101.19271 
L 70.868256 108.301226 
L 71.954057 113.029032 
L 73.039858 116.915896 
L 74.125659 118.74386 
L 75.21146 120.886866 
L 76.297262 122.599662 
L 77.383063 125.086127 
L 78.468864 125.99917 
L 79.554665 127.259916 
L 80.640466 127.910441 
L 81.726267 130.252272 
L 82.812068 129.830895 
L 83.89787 131.406262 
L 84.983671 131.620534 
L 86.069472 132.618634 
L 87.155273 134.179356 
L 88.241074 134.905111 
L 89.326875 135.998448 
L 90.412677 135.502677 
L 91.498478 135.333566 
L 92.584279 136.713019 
L 93.67008 137.261665 
L 94.755881 138.543367 
L 95.841682 138.506752 
L 98.013285 139.361879 
L 99.099086 140.192078 
L 100.184887 140.538847 
L 101.270688 141.915188 
L 102.356489 141.83165 
L 103.44229 141.009364 
L 104.528092 144.199312 
L 105.613893 142.158142 
L 106.699694 142.62269 
L 107.785495 143.949735 
L 108.871296 143.88773 
L 109.957097 145.327284 
L 111.042898 144.854472 
L 112.1287 144.995472 
L 113.214501 145.503837 
L 114.300302 145.674205 
L 115.386103 146.094946 
L 116.471904 146.094821 
L 117.557705 148.397508 
L 118.643507 147.912705 
L 119.729308 146.787339 
L 120.815109 147.874792 
L 121.90091 147.928331 
L 124.072512 149.244857 
L 125.158314 148.614364 
L 126.244115 149.309113 
L 127.329916 149.213439 
L 128.415717 149.58423 
L 129.501518 149.471335 
L 130.587319 150.273242 
L 131.67312 150.808517 
L 133.844723 150.294016 
L 134.930524 150.91194 
L 136.016325 151.877572 
L 137.102126 152.117173 
L 138.187927 150.097573 
L 139.273729 150.232272 
L 140.35953 151.585007 
L 141.445331 152.314444 
L 142.531132 152.14169 
L 143.616933 152.553931 
L 145.788535 153.112935 
L 146.874337 153.631705 
L 147.960138 154.880088 
L 151.217541 153.872185 
L 152.303342 153.304513 
L 153.389144 154.182718 
L 154.474945 153.099134 
L 155.560746 154.70477 
L 156.646547 154.562294 
L 157.732348 154.753114 
L 158.818149 155.201906 
L 159.90395 155.371423 
L 160.989752 155.391564 
L 162.075553 156.590086 
L 163.161354 154.203111 
L 164.247155 155.343877 
L 165.332956 155.024336 
L 166.418757 155.658314 
L 167.504559 156.065096 
L 168.59036 155.362925 
L 169.676161 155.561673 
L 170.761962 156.667069 
L 171.847763 155.805814 
L 172.933564 157.851084 
L 174.019365 156.882201 
L 175.105167 156.664448 
L 176.190968 155.855824 
L 177.276769 155.775389 
L 178.36257 157.802131 
L 179.448371 156.757926 
L 180.534172 157.397912 
L 181.619974 156.360467 
L 182.705775 158.036483 
L 183.791576 156.926087 
L 184.877377 157.056767 
L 185.963178 156.842833 
L 187.048979 157.968005 
L 188.134781 158.55108 
L 189.220582 158.116024 
L 190.306383 157.554909 
L 191.392184 157.726242 
L 192.477985 158.906109 
L 193.563786 157.896897 
L 194.649587 158.176181 
L 195.735389 159.161049 
L 196.82119 157.503446 
L 197.906991 158.383319 
L 198.992792 158.334514 
L 200.078593 158.695794 
L 201.164394 159.182174 
L 202.250196 160.464994 
L 203.335997 158.597641 
L 204.421798 159.6336 
L 205.507599 159.834857 
L 206.5934 160.357677 
L 207.679201 158.589936 
L 208.765002 158.514726 
L 209.850804 159.000874 
L 210.936605 159.844288 
L 212.022406 160.203375 
L 213.108207 159.250942 
L 214.194008 160.043024 
L 215.279809 159.535927 
L 217.451412 160.460666 
L 218.537213 159.781369 
L 219.623014 159.945402 
L 220.708815 159.856974 
L 221.794616 160.535102 
L 222.880417 159.956489 
L 223.966219 160.523144 
L 225.05202 160.141773 
L 226.137821 160.607257 
L 227.223622 158.980451 
L 228.309423 159.5669 
L 229.395224 159.759095 
L 230.481026 160.970791 
L 231.566827 159.452318 
L 232.652628 159.643791 
L 233.738429 160.27034 
L 234.82423 161.97651 
L 235.910031 160.223585 
L 236.995833 161.178431 
L 238.081634 160.618833 
L 239.167435 159.313292 
L 240.253236 159.663738 
L 241.339037 160.671623 
L 242.424838 160.042957 
L 243.510639 160.713274 
L 244.596441 161.188991 
L 245.682242 162.075271 
L 246.768043 161.182231 
L 247.853844 161.602031 
L 248.939645 161.784209 
L 250.025446 161.537705 
L 251.111248 161.730563 
L 252.197049 162.787878 
L 253.28285 162.844247 
L 254.368651 161.83463 
L 256.540253 160.877381 
L 257.626054 161.466242 
L 258.711856 160.125952 
L 259.797657 160.791564 
L 260.883458 159.922054 
L 261.969259 161.227194 
L 264.140861 162.957395 
L 265.226663 161.227621 
L 266.312464 161.657486 
L 267.398265 161.323716 
L 268.484066 162.009266 
L 269.569867 160.829808 
L 270.655668 160.693675 
L 271.741469 162.085107 
L 272.827271 160.90391 
L 274.998873 162.051234 
L 276.084674 163.110722 
L 277.170475 160.88835 
L 278.256276 161.733704 
L 279.342078 162.261562 
L 280.427879 162.208405 
L 281.51368 161.946773 
L 283.685282 160.734956 
L 284.771083 163.027285 
L 285.856885 161.293516 
L 286.942686 160.956115 
L 288.028487 162.313613 
L 289.114288 161.801986 
L 290.200089 163.85168 
L 291.28589 161.748897 
L 292.371691 160.236134 
L 293.457493 164.104547 
L 294.543294 162.460798 
L 295.629095 159.894232 
L 296.714896 161.797256 
L 297.800697 161.700082 
L 298.886498 162.826905 
L 299.9723 161.749378 
L 301.058101 164.451384 
L 302.143902 161.210267 
L 303.229703 162.390337 
L 304.315504 161.432481 
L 305.401305 161.264472 
L 306.487106 161.640694 
L 307.572908 161.419797 
L 308.658709 161.910648 
L 309.74451 162.011663 
L 310.830311 161.805033 
L 311.916112 160.653281 
L 313.001913 162.040509 
L 314.087715 162.675216 
L 315.173516 161.054682 
L 316.259317 162.342508 
L 317.345118 163.109762 
L 318.430919 161.230885 
L 319.51672 161.763178 
L 320.602521 161.068495 
L 321.688323 161.645399 
L 324.945726 161.749283 
L 326.031527 163.189205 
L 327.117328 163.416785 
L 328.20313 161.773613 
L 329.288931 162.371886 
L 330.374732 162.343064 
L 331.460533 163.245897 
L 332.546334 163.158295 
L 333.632135 161.711274 
L 334.717936 162.029872 
L 335.803738 162.869367 
L 337.97534 162.563318 
L 339.061141 163.044394 
L 340.146942 161.386028 
L 341.232743 162.300277 
L 342.318545 161.480837 
L 343.404346 163.37214 
L 344.490147 162.666433 
L 345.575948 162.447813 
L 346.661749 162.441693 
L 347.74755 161.726924 
L 348.833352 162.285827 
L 349.919153 162.405833 
L 351.004954 161.38799 
L 352.090755 162.108932 
L 353.176556 162.567824 
L 354.262357 162.440206 
L 355.348158 163.327221 
L 356.43396 162.367128 
L 357.519761 162.418422 
L 358.605562 163.321865 
L 359.691363 162.506559 
L 360.777164 160.893613 
L 361.862965 162.596576 
L 365.120369 162.598191 
L 366.20617 161.433935 
L 367.291971 160.468293 
L 368.377772 161.958736 
L 369.463573 161.441955 
L 370.549375 162.715673 
L 371.635176 162.988466 
L 372.720977 162.575401 
L 373.806778 162.388955 
L 374.892579 163.077453 
L 375.97838 162.371585 
L 378.149983 162.079561 
L 379.235784 162.055938 
L 381.407386 162.950694 
L 382.493187 161.763254 
L 383.578988 163.211934 
L 384.66479 162.321957 
L 385.750591 163.558784 
L 386.836392 162.631992 
L 387.922193 162.749374 
L 389.007994 162.752962 
L 390.093795 163.608081 
L 391.179597 162.172331 
L 392.265398 162.865285 
L 392.265398 162.865285 
" clip-path="url(#pd86c28648a)" style="fill: none; stroke: #1f77b4; stroke-width: 1.5; stroke-linecap: square"/>
   </g>
   <g id="line2d_32">
    <path d="M 67.610852 95.03747 
L 68.696653 152.968247 
L 69.782455 142.853896 
L 70.868256 189.383821 
L 71.954057 196.523025 
L 73.039858 202.435326 
L 74.125659 216.273011 
L 75.21146 221.040444 
L 76.297262 222.323656 
L 77.383063 234.975907 
L 78.468864 232.56839 
L 79.554665 227.188159 
L 80.640466 236.573403 
L 81.726267 228.976659 
L 82.812068 232.203719 
L 83.89787 219.769575 
L 84.983671 242.498683 
L 86.069472 241.728875 
L 87.155273 241.193081 
L 88.241074 248.461875 
L 89.326875 253.446387 
L 90.412677 246.177526 
L 91.498478 248.849927 
L 92.584279 246.65974 
L 93.67008 246.013252 
L 94.755881 249.955216 
L 95.841682 245.973107 
L 96.927483 235.868458 
L 98.013285 246.9459 
L 99.099086 253.811495 
L 100.184887 249.646717 
L 101.270688 256.405216 
L 102.356489 249.400607 
L 103.44229 260.335721 
L 104.528092 252.681833 
L 105.613893 249.098012 
L 106.699694 251.262265 
L 108.871296 253.631872 
L 109.957097 262.520127 
L 111.042898 257.735816 
L 112.1287 257.944564 
L 113.214501 260.168683 
L 114.300302 259.233519 
L 115.386103 255.946912 
L 116.471904 255.847421 
L 117.557705 257.937251 
L 118.643507 256.734849 
L 119.729308 257.282992 
L 120.815109 258.770593 
L 121.90091 254.794675 
L 122.986711 266.104827 
L 124.072512 261.739737 
L 125.158314 259.683272 
L 126.244115 265.738475 
L 127.329916 257.118019 
L 128.415717 256.272411 
L 129.501518 263.418824 
L 130.587319 261.866841 
L 131.67312 263.148853 
L 132.758922 266.736326 
L 133.844723 265.858228 
L 134.930524 263.466335 
L 136.016325 264.129507 
L 137.102126 269.009666 
L 138.187927 266.463085 
L 139.273729 265.612229 
L 140.35953 260.853789 
L 141.445331 266.874141 
L 142.531132 265.075744 
L 143.616933 261.989315 
L 144.702734 264.49536 
L 145.788535 263.804715 
L 146.874337 270.669292 
L 147.960138 263.68874 
L 149.045939 258.816696 
L 150.13174 265.742946 
L 151.217541 262.644347 
L 153.389144 265.481242 
L 154.474945 262.856642 
L 155.560746 262.236706 
L 156.646547 267.796999 
L 157.732348 265.378097 
L 158.818149 260.791836 
L 159.90395 265.314876 
L 160.989752 263.68876 
L 162.075553 266.695553 
L 163.161354 268.579129 
L 164.247155 266.723373 
L 165.332956 269.40096 
L 166.418757 265.689995 
L 167.504559 263.867388 
L 168.59036 265.074645 
L 169.676161 268.776482 
L 170.761962 268.965074 
L 171.847763 267.261719 
L 172.933564 267.444094 
L 174.019365 270.308333 
L 175.105167 271.568079 
L 176.190968 270.017447 
L 177.276769 267.99507 
L 178.36257 270.506025 
L 179.448371 269.061565 
L 180.534172 270.357614 
L 181.619974 274.451202 
L 182.705775 272.006994 
L 183.791576 272.996477 
L 184.877377 271.041997 
L 185.963178 273.820571 
L 187.048979 272.128155 
L 188.134781 267.948108 
L 189.220582 271.267118 
L 190.306383 271.930828 
L 191.392184 273.11556 
L 192.477985 269.753139 
L 193.563786 269.504804 
L 194.649587 276.334125 
L 195.735389 270.635856 
L 196.82119 271.767418 
L 197.906991 271.070906 
L 198.992792 270.767717 
L 200.078593 274.08982 
L 201.164394 273.384178 
L 202.250196 270.678778 
L 203.335997 268.886467 
L 204.421798 271.44159 
L 205.507599 273.359317 
L 206.5934 271.552744 
L 207.679201 272.670612 
L 208.765002 270.90361 
L 209.850804 270.341397 
L 210.936605 270.835976 
L 212.022406 272.820902 
L 213.108207 273.480044 
L 214.194008 274.272339 
L 215.279809 273.776431 
L 216.365611 271.239225 
L 217.451412 272.430869 
L 218.537213 274.841201 
L 219.623014 272.210852 
L 220.708815 270.555476 
L 221.794616 273.407236 
L 222.880417 271.999122 
L 223.966219 271.571422 
L 225.05202 270.232933 
L 226.137821 270.049138 
L 227.223622 269.320368 
L 228.309423 271.748547 
L 229.395224 268.668986 
L 230.481026 271.685961 
L 231.566827 269.832599 
L 232.652628 271.370422 
L 233.738429 268.441194 
L 234.82423 270.16063 
L 235.910031 271.525469 
L 236.995833 269.387642 
L 238.081634 269.110885 
L 239.167435 270.655348 
L 240.253236 269.746738 
L 241.339037 270.935826 
L 242.424838 270.125361 
L 243.510639 267.813201 
L 244.596441 269.13711 
L 245.682242 271.787284 
L 246.768043 271.525692 
L 247.853844 271.132302 
L 248.939645 273.144051 
L 250.025446 274.081166 
L 251.111248 271.322001 
L 252.197049 273.641975 
L 253.28285 272.179029 
L 254.368651 272.0297 
L 255.454452 272.599236 
L 256.540253 270.784386 
L 257.626054 269.208469 
L 258.711856 270.221972 
L 259.797657 268.423086 
L 260.883458 269.881321 
L 261.969259 269.634584 
L 263.05506 271.255749 
L 264.140861 270.190909 
L 265.226663 270.353475 
L 266.312464 272.853721 
L 267.398265 270.694133 
L 268.484066 270.472164 
L 269.569867 272.483598 
L 270.655668 271.892762 
L 271.741469 271.844622 
L 272.827271 272.6556 
L 273.913072 272.151231 
L 274.998873 272.249537 
L 276.084674 272.032571 
L 277.170475 272.009373 
L 278.256276 272.908307 
L 279.342078 270.978915 
L 280.427879 272.588731 
L 281.51368 272.005836 
L 282.599481 271.037941 
L 283.685282 273.246126 
L 284.771083 273.088177 
L 285.856885 272.800317 
L 286.942686 272.036257 
L 288.028487 273.47176 
L 289.114288 272.604791 
L 290.200089 273.040318 
L 291.28589 272.43529 
L 292.371691 271.993477 
L 293.457493 271.855415 
L 294.543294 272.46487 
L 295.629095 273.319933 
L 296.714896 272.676231 
L 297.800697 271.118176 
L 298.886498 270.628956 
L 299.9723 271.777308 
L 301.058101 271.991431 
L 302.143902 271.206855 
L 303.229703 271.947593 
L 304.315504 271.428764 
L 305.401305 271.705515 
L 306.487106 271.150241 
L 307.572908 272.342496 
L 308.658709 271.591702 
L 309.74451 271.470126 
L 310.830311 272.431592 
L 311.916112 271.392693 
L 313.001913 270.848956 
L 314.087715 271.003344 
L 315.173516 271.724336 
L 316.259317 271.895963 
L 317.345118 271.768464 
L 318.430919 270.514679 
L 320.602521 271.247486 
L 321.688323 270.887475 
L 322.774124 270.872304 
L 323.859925 271.066832 
L 324.945726 271.775642 
L 326.031527 271.951603 
L 327.117328 271.29159 
L 328.20313 271.330906 
L 329.288931 271.056417 
L 330.374732 271.04763 
L 331.460533 271.31457 
L 332.546334 271.020089 
L 333.632135 270.588044 
L 334.717936 271.379765 
L 335.803738 271.477503 
L 336.889539 271.283306 
L 337.97534 271.496659 
L 339.061141 271.879173 
L 340.146942 271.664774 
L 341.232743 271.897023 
L 342.318545 271.18537 
L 343.404346 271.914371 
L 344.490147 270.884766 
L 345.575948 272.308691 
L 346.661749 270.31319 
L 347.74755 271.413048 
L 348.833352 271.735074 
L 349.919153 271.243771 
L 352.090755 271.390448 
L 354.262357 270.847791 
L 355.348158 271.322762 
L 356.43396 270.633816 
L 357.519761 270.941077 
L 358.605562 271.550385 
L 359.691363 271.190916 
L 360.777164 271.734154 
L 361.862965 271.410437 
L 362.948767 271.757648 
L 364.034568 271.320752 
L 365.120369 271.974818 
L 366.20617 272.305288 
L 367.291971 271.768693 
L 368.377772 271.387813 
L 369.463573 270.820643 
L 371.635176 271.893444 
L 373.806778 270.814963 
L 374.892579 271.610781 
L 375.97838 271.093585 
L 377.064182 271.159133 
L 378.149983 271.616378 
L 379.235784 271.773291 
L 381.407386 270.696695 
L 382.493187 271.413448 
L 383.578988 271.037043 
L 384.66479 271.717805 
L 385.750591 272.014166 
L 386.836392 271.917802 
L 387.922193 271.326627 
L 389.007994 271.878888 
L 390.093795 272.169234 
L 391.179597 271.590063 
L 392.265398 271.734377 
L 392.265398 271.734377 
" clip-path="url(#pd86c28648a)" style="fill: none; stroke: #ff7f0e; stroke-width: 1.5; stroke-linecap: square"/>
   </g>
   <g id="patch_3">
    <path d="M 51.378125 288.430125 
L 51.378125 22.318125 
" style="fill: none; stroke: #000000; stroke-width: 0.8; stroke-linejoin: miter; stroke-linecap: square"/>
   </g>
   <g id="patch_4">
    <path d="M 408.498125 288.430125 
L 408.498125 22.318125 
" style="fill: none; stroke: #000000; stroke-width: 0.8; stroke-linejoin: miter; stroke-linecap: square"/>
   </g>
   <g id="patch_5">
    <path d="M 51.378125 288.430125 
L 408.498125 288.430125 
" style="fill: none; stroke: #000000; stroke-width: 0.8; stroke-linejoin: miter; stroke-linecap: square"/>
   </g>
   <g id="patch_6">
    <path d="M 51.378125 22.318125 
L 408.498125 22.318125 
" style="fill: none; stroke: #000000; stroke-width: 0.8; stroke-linejoin: miter; stroke-linecap: square"/>
   </g>
   <g id="text_13">
    <!-- Loss curves -->
    <g transform="translate(194.93375 16.318125) scale(0.12 -0.12)">
     <defs>
      <path id="DejaVuSans-4c" d="M 628 4666 
L 1259 4666 
L 1259 531 
L 3531 531 
L 3531 0 
L 628 0 
L 628 4666 
z
" transform="scale(0.015625)"/>
      <path id="DejaVuSans-75" d="M 544 1381 
L 544 3500 
L 1119 3500 
L 1119 1403 
Q 1119 906 1312 657 
Q 1506 409 1894 409 
Q 2359 409 2629 706 
Q 2900 1003 2900 1516 
L 2900 3500 
L 3475 3500 
L 3475 0 
L 2900 0 
L 2900 538 
Q 2691 219 2414 64 
Q 2138 -91 1772 -91 
Q 1169 -91 856 284 
Q 544 659 544 1381 
z
M 1991 3584 
L 1991 3584 
z
" transform="scale(0.015625)"/>
      <path id="DejaVuSans-76" d="M 191 3500 
L 800 3500 
L 1894 563 
L 2988 3500 
L 3597 3500 
L 2284 0 
L 1503 0 
L 191 3500 
z
" transform="scale(0.015625)"/>
     </defs>
     <use xlink:href="#DejaVuSans-4c"/>
     <use xlink:href="#DejaVuSans-6f" x="53.962891"/>
     <use xlink:href="#DejaVuSans-73" x="115.144531"/>
     <use xlink:href="#DejaVuSans-73" x="167.244141"/>
     <use xlink:href="#DejaVuSans-20" x="219.34375"/>
     <use xlink:href="#DejaVuSans-63" x="251.130859"/>
     <use xlink:href="#DejaVuSans-75" x="306.111328"/>
     <use xlink:href="#DejaVuSans-72" x="369.490234"/>
     <use xlink:href="#DejaVuSans-76" x="410.603516"/>
     <use xlink:href="#DejaVuSans-65" x="469.783203"/>
     <use xlink:href="#DejaVuSans-73" x="531.306641"/>
    </g>
   </g>
   <g id="legend_1">
    <g id="patch_7">
     <path d="M 264.021563 59.674375 
L 401.498125 59.674375 
Q 403.498125 59.674375 403.498125 57.674375 
L 403.498125 29.318125 
Q 403.498125 27.318125 401.498125 27.318125 
L 264.021563 27.318125 
Q 262.021563 27.318125 262.021563 29.318125 
L 262.021563 57.674375 
Q 262.021563 59.674375 264.021563 59.674375 
z
" style="fill: #ffffff; opacity: 0.8; stroke: #cccccc; stroke-linejoin: miter"/>
    </g>
    <g id="line2d_33">
     <path d="M 266.021563 35.416562 
L 276.021563 35.416562 
L 286.021563 35.416562 
" style="fill: none; stroke: #1f77b4; stroke-width: 1.5; stroke-linecap: square"/>
    </g>
    <g id="text_14">
     <!-- Average training loss -->
     <g transform="translate(294.021563 38.916562) scale(0.1 -0.1)">
      <defs>
       <path id="DejaVuSans-41" d="M 2188 4044 
L 1331 1722 
L 3047 1722 
L 2188 4044 
z
M 1831 4666 
L 2547 4666 
L 4325 0 
L 3669 0 
L 3244 1197 
L 1141 1197 
L 716 0 
L 50 0 
L 1831 4666 
z
" transform="scale(0.015625)"/>
       <path id="DejaVuSans-61" d="M 2194 1759 
Q 1497 1759 1228 1600 
Q 959 1441 959 1056 
Q 959 750 1161 570 
Q 1363 391 1709 391 
Q 2188 391 2477 730 
Q 2766 1069 2766 1631 
L 2766 1759 
L 2194 1759 
z
M 3341 1997 
L 3341 0 
L 2766 0 
L 2766 531 
Q 2569 213 2275 61 
Q 1981 -91 1556 -91 
Q 1019 -91 701 211 
Q 384 513 384 1019 
Q 384 1609 779 1909 
Q 1175 2209 1959 2209 
L 2766 2209 
L 2766 2266 
Q 2766 2663 2505 2880 
Q 2244 3097 1772 3097 
Q 1472 3097 1187 3025 
Q 903 2953 641 2809 
L 641 3341 
Q 956 3463 1253 3523 
Q 1550 3584 1831 3584 
Q 2591 3584 2966 3190 
Q 3341 2797 3341 1997 
z
" transform="scale(0.015625)"/>
       <path id="DejaVuSans-67" d="M 2906 1791 
Q 2906 2416 2648 2759 
Q 2391 3103 1925 3103 
Q 1463 3103 1205 2759 
Q 947 2416 947 1791 
Q 947 1169 1205 825 
Q 1463 481 1925 481 
Q 2391 481 2648 825 
Q 2906 1169 2906 1791 
z
M 3481 434 
Q 3481 -459 3084 -895 
Q 2688 -1331 1869 -1331 
Q 1566 -1331 1297 -1286 
Q 1028 -1241 775 -1147 
L 775 -588 
Q 1028 -725 1275 -790 
Q 1522 -856 1778 -856 
Q 2344 -856 2625 -561 
Q 2906 -266 2906 331 
L 2906 616 
Q 2728 306 2450 153 
Q 2172 0 1784 0 
Q 1141 0 747 490 
Q 353 981 353 1791 
Q 353 2603 747 3093 
Q 1141 3584 1784 3584 
Q 2172 3584 2450 3431 
Q 2728 3278 2906 2969 
L 2906 3500 
L 3481 3500 
L 3481 434 
z
" transform="scale(0.015625)"/>
       <path id="DejaVuSans-69" d="M 603 3500 
L 1178 3500 
L 1178 0 
L 603 0 
L 603 3500 
z
M 603 4863 
L 1178 4863 
L 1178 4134 
L 603 4134 
L 603 4863 
z
" transform="scale(0.015625)"/>
      </defs>
      <use xlink:href="#DejaVuSans-41"/>
      <use xlink:href="#DejaVuSans-76" x="62.533203"/>
      <use xlink:href="#DejaVuSans-65" x="121.712891"/>
      <use xlink:href="#DejaVuSans-72" x="183.236328"/>
      <use xlink:href="#DejaVuSans-61" x="224.349609"/>
      <use xlink:href="#DejaVuSans-67" x="285.628906"/>
      <use xlink:href="#DejaVuSans-65" x="349.105469"/>
      <use xlink:href="#DejaVuSans-20" x="410.628906"/>
      <use xlink:href="#DejaVuSans-74" x="442.416016"/>
      <use xlink:href="#DejaVuSans-72" x="481.625"/>
      <use xlink:href="#DejaVuSans-61" x="522.738281"/>
      <use xlink:href="#DejaVuSans-69" x="584.017578"/>
      <use xlink:href="#DejaVuSans-6e" x="611.800781"/>
      <use xlink:href="#DejaVuSans-69" x="675.179688"/>
      <use xlink:href="#DejaVuSans-6e" x="702.962891"/>
      <use xlink:href="#DejaVuSans-67" x="766.341797"/>
      <use xlink:href="#DejaVuSans-20" x="829.818359"/>
      <use xlink:href="#DejaVuSans-6c" x="861.605469"/>
      <use xlink:href="#DejaVuSans-6f" x="889.388672"/>
      <use xlink:href="#DejaVuSans-73" x="950.570312"/>
      <use xlink:href="#DejaVuSans-73" x="1002.669922"/>
     </g>
    </g>
    <g id="line2d_34">
     <path d="M 266.021563 50.094687 
L 276.021563 50.094687 
L 286.021563 50.094687 
" style="fill: none; stroke: #ff7f0e; stroke-width: 1.5; stroke-linecap: square"/>
    </g>
    <g id="text_15">
     <!-- Test loss -->
     <g transform="translate(294.021563 53.594687) scale(0.1 -0.1)">
      <defs>
       <path id="DejaVuSans-54" d="M -19 4666 
L 3928 4666 
L 3928 4134 
L 2272 4134 
L 2272 0 
L 1638 0 
L 1638 4134 
L -19 4134 
L -19 4666 
z
" transform="scale(0.015625)"/>
      </defs>
      <use xlink:href="#DejaVuSans-54"/>
      <use xlink:href="#DejaVuSans-65" x="44.083984"/>
      <use xlink:href="#DejaVuSans-73" x="105.607422"/>
      <use xlink:href="#DejaVuSans-74" x="157.707031"/>
      <use xlink:href="#DejaVuSans-20" x="196.916016"/>
      <use xlink:href="#DejaVuSans-6c" x="228.703125"/>
      <use xlink:href="#DejaVuSans-6f" x="256.486328"/>
      <use xlink:href="#DejaVuSans-73" x="317.667969"/>
      <use xlink:href="#DejaVuSans-73" x="369.767578"/>
     </g>
    </g>
   </g>
  </g>
 </g>
 <defs>
  <clipPath id="pd86c28648a">
   <rect x="51.378125" y="22.318125" width="357.12" height="266.112"/>
  </clipPath>
 </defs>
</svg>
